<?xml version="1.0" encoding="UTF-8"?>
<svg id="Layer_2" data-name="Layer 2" xmlns="http://www.w3.org/2000/svg" viewBox="0 0 114.03 114.04">
  <defs>
    <style>
      .cls-1 {
        fill: #5a4319;
      }
    </style>
  </defs>
  <g id="Layer_1-2" data-name="Layer 1">
    <g>
      <path class="cls-1" d="M114.03,18.54v77.06c-.25,1.18-.39,2.37-.69,3.54-1.76,6.75-7.13,12.19-13.83,14.11l-4.01.79H18.44c-10.17-1.06-17.95-9.05-18.44-19.33V19.16C.56,8.78,8.79.58,19.15.02c25.59.06,51.19-.13,76.77.09,9.55.86,17.35,8.88,18.1,18.43ZM52.72,22.66c-3.52.42-5.04,3.84-5.38,6.97-.64,5.77,1.46,12.15,3.67,17.39-2.66,7.99-5.94,15.77-9.95,23.17-5.77,2.75-13.06,5.58-17.34,10.5-5.07,5.82-.23,12.06,6.72,10.52,4.41-.98,8.58-5.43,11.29-8.86,2.48-3.14,4.59-6.55,6.65-9.98,5.76-2.01,11.7-3.64,17.72-4.7,5.4,4.6,13.08,8.74,20.42,7.78,6.15-.81,8.27-7.44,2.94-10.9-4.27-2.77-11.87-2.61-16.8-2.2-1.64.13-3.28.41-4.92.55-3.89-3.73-7.11-8.17-9.75-12.86,1.6-5.06,3.01-10.53,3.22-15.87s-1.82-12.32-8.48-11.52Z"/>
      <g>
        <path class="cls-1" d="M70.22,65.96c1.03-.09,2.06-.29,3.09-.38,2.69-.25,8.68-.55,11.01.68,2.69,1.42,1.79,4.86-1.13,5.2-3.57.42-9.5-2.72-12.28-4.89-.23-.18-.51-.38-.67-.61Z"/>
        <path class="cls-1" d="M39.34,74.99l-.81,1.42c-2.14,3.18-4.45,6.54-7.35,9.08-1.22,1.07-3.97,3.06-5.47,1.48s1.35-4.46,2.52-5.47c3.21-2.76,7.31-4.71,11.12-6.51Z"/>
        <path class="cls-1" d="M53.31,42.87c-.13,0-.15-.14-.19-.23-1.38-3.03-2.29-8.67-2.09-11.98.1-1.65.71-5.11,3.12-4.25,2.2.78,1.47,5.86,1.24,7.67-.39,3-1.13,5.94-2.08,8.8Z"/>
        <path class="cls-1" d="M51.51,66.72l4.61-11.31c1.89,2.97,4.05,5.79,6.51,8.31l-11.11,2.99Z"/>
      </g>
    </g>
  </g>
</svg>