<?xml version="1.0" encoding="UTF-8"?>
<svg id="Layer_2" data-name="Layer 2" xmlns="http://www.w3.org/2000/svg" viewBox="0 0 116.01 113.13">
  <defs>
    <style>
      .cls-1 {
        fill: #9595c9;
      }

      .cls-2 {
        fill: #5a4319;
      }

      .cls-3 {
        fill: #fcfcfd;
      }
    </style>
  </defs>
  <g id="Layer_1-2" data-name="Layer 1">
    <g>
      <path class="cls-2" d="M96.14,0c.34.23.9.08,1.32.11,9.29.67,17.99,9.03,18.43,18.43.02.42-.11.99.11,1.32v73.29c-.22.34-.09.9-.11,1.32-.44,9.6-9.28,17.98-18.76,18.54H18.98c-9.81-.76-18-8.69-18.76-18.54-.03-.42.03-.94-.22-1.32V19.32c.29-.7.23-1.49.36-2.23C1.94,7.99,9.44.99,18.65.11c.34-.03.71.02,1.06,0l.27-.11h76.16ZM44.24,29.27c-.17-.12-.38-.12-.58-.14-3.91-.34-8.3.27-12.26,0-.91-.05-.54,1.08-.6,1.72-.06.67-.18,1.36-.3,2.02-4.86,14.79-10.51,29.33-15.38,44.11-.18.55-.76,1.96-.66,2.43.07.35.62.36.94.39,2.2.19,5.95.15,8.18,0,.31-.02.85-.06,1.11-.22.62-.38,3.33-10.36,3.93-11.74l.09-.13,18.1-.04,4.1,11.74.6.17c3.18-.22,6.7.27,9.83,0,.25-.02.48-.03.66-.22l-17.74-50.09ZM96.03,78.2v-8.06c0-.07-.16-.16-.26-.15-.31.03-1.48.57-1.95.7-5.17,1.4-14.09,2.08-17.31-3.22-.73-1.2-1.24-2.72-1.35-4.12,5.5.03,11.01-.03,16.51,0,2.08.01,4.79.35,6.83-.11.17-.04.37-.17.44-.33.15-.33.24-1.59.28-2.04,1.07-12.58-5.78-21.31-18.93-20.03-19.15,1.86-22.04,32.68-4.45,38.77,4.89,1.69,12.03,1.53,17,.16.64-.18,2.33-.69,2.82-1.05.17-.13.33-.32.36-.52Z"/>
      <path class="cls-3" d="M.22,94.48c.76,9.86,8.95,17.78,18.76,18.54v.11H0v-18.65h.22Z"/>
      <path class="cls-3" d="M18.65,0v.11C9.44.99,1.94,7.99.36,17.08c-.13.74-.07,1.53-.36,2.23V0h18.65Z"/>
      <path class="cls-3" d="M116.01,94.48v18.65h-18.87v-.11c9.49-.56,18.32-8.95,18.76-18.54h.11Z"/>
      <path class="cls-3" d="M97.46,0h18.54v18.54h-.11c-.45-9.41-9.14-17.76-18.43-18.43v-.11Z"/>
      <rect class="cls-1" x="18.98" y="113.02" width="78.15" height=".11"/>
      <path class="cls-1" d="M.22,94.48h-.22v-1.32c.25.38.19.9.22,1.32Z"/>
      <path class="cls-1" d="M19.98,0l-.27.11c-.35.02-.72-.04-1.06,0v-.11h1.32Z"/>
      <path class="cls-1" d="M97.46,0v.11c-.43-.03-.99.11-1.32-.11h1.32Z"/>
      <path class="cls-1" d="M116.01,19.87c-.22-.34-.09-.9-.11-1.32h.11v1.32Z"/>
      <path class="cls-1" d="M116.01,94.48h-.11c.02-.42-.11-.99.11-1.32v1.32Z"/>
      <polygon class="cls-2" points="31.46 58.06 37.58 37.97 43.71 58.06 31.46 58.06"/>
      <path class="cls-2" d="M75.17,56.29c.38-4.52,3.48-7.51,8.12-7.18,2.69.19,5.14,2.22,5.74,4.86.11.5.39,1.73-.09,2.02-.15.09-1.08.31-1.24.31h-12.53Z"/>
    </g>
  </g>
</svg>