<?xml version="1.0" encoding="UTF-8"?>
<svg id="Layer_2" data-name="Layer 2" xmlns="http://www.w3.org/2000/svg" viewBox="0 0 115.95 113.04">
  <defs>
    <style>
      .cls-1 {
        fill: #5a4319;
      }
    </style>
  </defs>
  <g id="Layer_1-2" data-name="Layer 1">
    <g>
      <path class="cls-1" d="M96.91,113.04H19.03c-.52-.16-1.13-.14-1.66-.22-8.72-1.31-15.86-8.42-17.15-17.15-.08-.54-.06-1.15-.22-1.66V19.04C.79,8.81,9.14.51,19.46,0h77.2c10.28.58,18.66,9.04,19.27,19.28-.06,25.15.13,50.31-.1,75.45-.98,9.64-9.07,17.62-18.78,18.22l-.15.09ZM57.39,52.18c3.31-2.12,5.06-6.73,4.83-10.58-.35-5.69-4.16-9.61-9.35-11.43-4.23-1.49-8.89-1.2-13.3-1.18-3.65.02-7.49-.08-11.12.09-.28.01-1.54.11-1.65.19-.08.06-.14.2-.19.29l-.05,49.52c.06.62.18.84.83.91,2.66.3,5.8-.17,8.5.2,7.44.08,15.48.36,21.98-3.83,8.38-5.4,9.47-17.23,1.04-23.15-.17-.12-1.58-.95-1.52-1.04ZM80.34,41.07h-9.08s-.17.15-.19.19c-.16.35.21,2.56.24,3.14.04.77-.03,1.55,0,2.32.34,10.78-.08,21.62.14,32.42.09.38.3.53.68.58,2.87.33,6.35-.26,9.28,0,.26.03.44-.09.57-.3l.07-24.86c2.29-2.02,6.17-3.28,9.2-3.45.6-.03,2.94.14,3.24-.14.16-.15.18-.46.2-.67.24-2.88-.19-6.08,0-8.99-.05-.98-1.43-.76-2.18-.73-3.44.15-6.22,1.45-8.74,3.72l-1.98,1.98c0-1.03-.19-4.94-1.45-5.22Z"/>
      <path class="cls-1" d="M37.2,70.92v-12.95c3.87.25,8.41-.59,12.1.7,4.92,1.72,5.91,7.88,1.32,10.74-3.67,2.29-9.29,1.44-13.42,1.51Z"/>
      <path class="cls-1" d="M37.2,48.89l-.04-10.74c.15-.06.31-.08.47-.09,2.69-.19,7.77-.23,10.25.68,4.63,1.7,4.95,7.5,1.4,10.49-3.99-.49-8.04-.3-12.07-.34Z"/>
    </g>
  </g>
</svg>