<?xml version="1.0" encoding="UTF-8"?>
<svg id="Layer_2" data-name="Layer 2" xmlns="http://www.w3.org/2000/svg" viewBox="0 0 112.86 112.72">
  <defs>
    <style>
      .cls-1 {
        fill: #5a4319;
      }
    </style>
  </defs>
  <g id="Layer_1-2" data-name="Layer 1">
    <g>
      <path class="cls-1" d="M67.42.98l-6.83-.98h-8.37C25.13,1.67,1.83,24.84.06,51.95c-.19,2.86.14,5.92,0,8.8l.98,6.61c9.62,47.63,71.7,62.1,100.89,22.29C126.43,56.25,107.47,8.99,67.42.98ZM67.68,69.84c-3.48,0-6.66-1.33-9.05-3.5v1.25c-.01,1.01.02,2.09.05,3.22.11,4.03.24,8.59-.96,12.5-1.5,4.86-4.81,7.83-9.84,8.83-1.01.2-2,.3-2.97.3-3.86,0-7.32-1.56-9.78-4.49-3.28-3.91-4.25-9.7-2.42-14.4,1-2.56,2.68-4.58,4.92-5.96-4.63-3.07-6.81-8.52-5.59-14.18.78-3.61,2.8-6.54,5.58-8.39-1.89-1.25-3.4-2.93-4.46-5-1.62-3.17-1.9-6.98-.77-10.46,1.12-3.44,3.46-6.21,6.59-7.79,3.66-1.85,9.67-1.7,14.49-1.57,1.07.03,2.08.06,2.94.05,1.11,0,2.28-.02,3.41-.04,2.45-.04,4.97-.08,7.39.04,9.02.44,13.49,6.64,13.92,12.59.36,5.06-2.01,9.54-6.1,12.21,3.69,2.41,6.14,6.57,6.14,11.3,0,7.43-6.05,13.48-13.48,13.48Z"/>
      <path class="cls-1" d="M76.75,56.35c0,5-4.07,9.07-9.07,9.07-4.61,0-8.43-3.46-9-7.93-.02-.15-.03-.29-.05-.44,0-.05,0-.1-.01-.15-.01-.19-.02-.37-.02-.56v-.02c0-.18,0-.36.02-.54,0-.05,0-.1.01-.15.01-.15.03-.3.05-.45,0-.05.01-.09.02-.14.01-.07.02-.13.03-.2.01-.07.02-.15.04-.22.01-.06.02-.12.03-.18.02-.11.05-.21.07-.32,0-.02.01-.04.02-.06.79-3.03,3.1-5.45,6.07-6.38.01,0,.02,0,.03-.01.11-.03.22-.06.34-.09.04-.01.07-.02.11-.03.09-.02.18-.04.27-.06.09-.02.18-.04.27-.06.09-.02.17-.03.26-.05.19-.03.38-.05.57-.07.04,0,.08,0,.12-.01.15-.01.3-.02.44-.02.06,0,.11,0,.17,0,.15,0,.3,0,.46,0,.04,0,.07,0,.1,0,.19.01.38.02.57.05,4.54.5,8.08,4.35,8.08,9.02Z"/>
      <path class="cls-1" d="M68.84,42.92c-.06,0-.11,0-.17,0-.16-.01-.32-.02-.47-.03-.1,0-.2,0-.3,0-.07,0-.14,0-.22,0-.08,0-.15,0-.23,0-.1,0-.2,0-.3,0-.16,0-.32.02-.48.03-.08,0-.17.01-.25.02-.2.02-.39.04-.59.07-.04,0-.07,0-.11.01l-2.98-.03-4.14-.04v-18.3c.43,0,.85-.01,1.27-.02,2.37-.04,4.83-.07,7.1.04,6.76.33,9.47,4.79,9.73,8.5.28,3.97-2.05,8.49-7.89,9.76Z"/>
      <path class="cls-1" d="M54.2,24.62v18.27c-.2,0-.39,0-.59-.01-.08,0-.17,0-.25,0-.32,0-.65-.02-.98-.02-.35,0-.71-.02-1.07-.03-.17,0-.33,0-.5-.01-.2,0-.4,0-.6-.01-.16,0-.32,0-.48,0-.21,0-.41,0-.61,0-.16,0-.32,0-.48,0-.2,0-.4,0-.61,0-.16,0-.32,0-.48,0-.2,0-.4,0-.6,0-.16,0-.32,0-.48,0-.2,0-.39,0-.59.01-.16,0-.31.01-.47.02-.19,0-.39.02-.58.02-.16,0-.31.02-.46.03-.13,0-.27.01-.41.02-2.31-.47-5.28-1.72-6.91-4.9-1.09-2.13-1.27-4.71-.51-7.08.76-2.32,2.32-4.17,4.38-5.22,1.9-.96,5.29-1.16,8.56-1.16,1.33,0,2.64.03,3.83.06.29,0,.57.01.85.02Z"/>
      <path class="cls-1" d="M54.28,57.83c0,.06.01.12.02.18l-.07,7.4c-.05,0-.1,0-.15,0-.33,0-.66,0-.99-.01-.1,0-.21,0-.31,0-.44,0-.88-.02-1.33-.03-.32,0-.64-.01-.96-.02-.07,0-.14,0-.21,0-.25,0-.51,0-.76-.01-.1,0-.2,0-.3,0-.22,0-.45,0-.67,0-.12,0-.24,0-.35,0-.21,0-.41,0-.62,0-.13,0-.26,0-.39,0-.2,0-.39,0-.59.02-.13,0-.27.01-.41.02-.19,0-.38.02-.58.03-.14,0-.28.02-.42.03-.19.01-.37.03-.56.05-.14.01-.29.03-.43.04-.07,0-.15.01-.22.02-.51-.21-.99-.37-1.44-.51-.68-.22-1.27-.41-1.85-.74-4.28-2.39-5.02-6.85-4.34-9.95.68-3.14,3.06-6.63,7.7-7.01,1.22-.1,2.54-.13,3.9-.13s2.88.04,4.32.07c.32,0,.65.02.98.02.17,0,.34,0,.51.01.15,0,.29,0,.44,0h0s.02,0,.02,0l.06,5.45.02,1.93c0,.06-.01.12-.02.18,0,.06-.01.11-.02.17-.02.19-.03.38-.04.57,0,.04,0,.09,0,.13-.02.41-.02.83,0,1.24,0,.04,0,.08,0,.12.01.19.03.38.04.57,0,.06.01.11.02.17Z"/>
      <path class="cls-1" d="M47.01,87.81c-4.43.88-7.07-.99-8.51-2.7-2.24-2.67-2.94-6.77-1.69-9.98.79-2.02,2.66-4.57,7.12-5.16.27-.04.54-.06.81-.09.05,0,.11-.01.16-.02.26-.02.52-.05.79-.06.05,0,.09,0,.14,0,.25-.02.51-.03.76-.04.03,0,.05,0,.08,0,.27,0,.55-.02.82-.02.05,0,.1,0,.15,0,.27,0,.54,0,.81,0,.43,0,.85,0,1.29.01.13,0,.25,0,.37,0,.41,0,.81.02,1.23.02.44.01.89.02,1.34.03.13,0,.26,0,.39,0,.33,0,.66,0,.99,0,.06,0,.11,0,.17,0,0,.36.02.73.03,1.11.26,9.28-.11,15.47-7.25,16.88Z"/>
    </g>
  </g>
</svg>