<?xml version="1.0" encoding="UTF-8"?>
<svg id="Layer_2" data-name="Layer 2" xmlns="http://www.w3.org/2000/svg" viewBox="0 0 116.66 112.47">
  <defs>
    <style>
      .cls-1 {
        fill: #5a4319;
      }
    </style>
  </defs>
  <g id="Layer_1-2" data-name="Layer 1">
    <path class="cls-1" d="M97.51,0c.71.17,1.44.2,2.16.32,7.92,1.39,14.39,7.45,16.36,15.23.28,1.12.4,2.27.63,3.4v74.66c-1.08,10.26-9.29,18.37-19.68,18.86H19.5C9.01,111.87.57,103.38,0,92.88V19.78C.36,9.47,8.87.71,19.16,0h78.35ZM82.13,17.81c-.28.03-.61.18-.85.33-1.25.76-2.61,2.63-3.85,3.54-.34.25-.91.48-1.34.46-1.68-.07-4.12-1.29-5.77-1.15-1.36.12-2.06,1.7-1.41,2.88.53.96,2.36,2.52,3.16,3.45.68.79.92,1.06.81,2.18-.15,1.6-1.26,4.03-1.05,5.54.18,1.3,1.84,1.91,2.94,1.21,1.31-.84,2.6-2.64,3.9-3.58.58-.42,1.02-.45,1.72-.36,1.46.18,3.73,1.14,5.08,1.14,1.52,0,2.39-1.79,1.59-3.05s-2.65-2.61-3.58-3.9c-.32-.45-.43-.89-.38-1.45.16-1.57.98-3.42,1.13-4.99.12-1.25-.85-2.36-2.13-2.24ZM44.92,38.11h21.34c.74,0,.65-.69.63-1.21-.09-2.23-.43-5.47-.79-7.67-.04-.24-.09-.64-.35-.72h-31.26s-.21.18-.21.18l-.03,49.8c.08.25.22.47.51.46,3.28-.06,6.59.09,9.85-.08.07-.03.32-.23.32-.27v-19.2h19.49c.3,0,.42-.48.44-.72.24-2.62-.19-5.61,0-8.27.05-.15-.24-.63-.34-.63h-19.59v-11.67ZM83.42,40.63h-10.8s0,38.31,0,38.31h10.8s0-38.31,0-38.31Z"/>
  </g>
</svg>