<?xml version="1.0" encoding="UTF-8"?>
<svg id="Layer_2" data-name="Layer 2" xmlns="http://www.w3.org/2000/svg" viewBox="0 0 116.95 114.04">
  <defs>
    <style>
      .cls-1 {
        fill: #5a4319;
      }
    </style>
  </defs>
  <g id="Layer_1-2" data-name="Layer 1">
    <g>
      <path class="cls-1" d="M98.02,0l3.58.7c8.13,2.13,14.34,9.33,15.22,17.72.26,25.35.04,50.73.11,76.1-.62,10.63-9.36,19.1-19.97,19.53H20.19c-9.08-.28-17.16-6.53-19.49-15.33-.3-1.15-.41-2.33-.7-3.47V18.69c.3-1.11.41-2.25.7-3.36C2.53,8.27,8.3,2.56,15.33.7l3.47-.7h79.22ZM89.08,31.4c0-3.4-2.76-6.16-6.16-6.16s-6.16,2.76-6.16,6.16,2.76,6.16,6.16,6.16,6.16-2.76,6.16-6.16ZM71.97,80.2l-.06-.85-17.83-50.15-13.36-.11c-.37.22-.18,1.46-.22,1.89-.06.58-.19,1.17-.25,1.75-4.89,15.05-10.61,29.84-15.55,44.87-.17.53-1.07,2.5-.36,2.71l9.83-.03.28-.17,3.96-11.89,17.96-.02,4.44,12.03,11.17-.02ZM88.35,41.6h-11.02s0,38.95,0,38.95h11.02s0-38.95,0-38.95Z"/>
      <polygon class="cls-1" points="41.28 58.3 47.34 38.05 53.63 58.3 41.28 58.3"/>
    </g>
  </g>
</svg>