<?xml version="1.0" encoding="UTF-8"?>
<svg id="Layer_2" data-name="Layer 2" xmlns="http://www.w3.org/2000/svg" viewBox="0 0 116.78 113.93">
  <defs>
    <style>
      .cls-1 {
        fill: #5a4319;
      }
    </style>
  </defs>
  <g id="Layer_1-2" data-name="Layer 1">
    <g>
      <path class="cls-1" d="M97.05,113.93H19.5l-4.02-.72c-7.2-1.87-13.06-7.66-14.86-14.91-.26-1.06-.35-2.14-.63-3.19V18.59c.34-1.4.53-2.83.97-4.22C3.54,6.23,11.12.44,19.67,0h77.67c10.39.61,18.81,9.1,19.44,19.45v74.7c-.45,10.47-9.05,19.21-19.55,19.67l-.18.11ZM75.27,40.83c-6.5-.55-13.38.81-18.36,5.19-10.32,9.07-9.25,28.12,4.22,33.53,6.9,2.77,17.06,1.97,23.86-.88.49-.2,1.05-.34,1.4-.77l-.19-52.6-.2-.25h-10.5s-.22.42-.22.46v15.34ZM42.43,29.19h-10.85s0,51.44,0,51.44h10.85s0-51.44,0-51.44Z"/>
      <path class="cls-1" d="M75.27,50.07v21.38c0,.13-.52.26-.64.27-9.31,1.32-14.88-4.25-13.24-13.59,1.1-6.28,8.03-9.37,13.88-8.07Z"/>
    </g>
  </g>
</svg>