<?xml version="1.0" encoding="UTF-8"?>
<svg id="Layer_2" data-name="Layer 2" xmlns="http://www.w3.org/2000/svg" viewBox="0 0 117.1 114.15">
  <defs>
    <style>
      .cls-1 {
        fill: #5a4319;
      }
    </style>
  </defs>
  <g id="Layer_1-2" data-name="Layer 1">
    <g>
      <path class="cls-1" d="M97.05,0c.34.23.91.08,1.34.11,9.4.63,18.16,9.12,18.61,18.6.02.43-.11,1,.11,1.34v74.62c-.19.12-.1.46-.11.67-.3,9.77-9.94,18.56-19.61,18.71H19.83c-8.91-.43-16.72-6.63-19.02-15.23-.37-1.37-.5-2.77-.81-4.14V20.05c.25-.39.19-.91.22-1.34C1.09,8.88,9,1,18.83.11c.35-.03.71.03,1.07,0l.27-.12h76.88ZM14.09,80.52h9.36c.14,0,.26-.35.28-.5.26-1.93.14-4.27.21-6.25.35-8.99.66-18.06.79-27.05.05-3.29-.09-6.58.05-9.86l10.3,43.5.39.16,9.2-.06.38-.4c3.73-14.36,7.86-28.62,11.15-43.09.02,9.26-.22,18.52-.17,27.79.02,4.17.1,8.41.23,12.57.02.73-.15,2.43.02,2.99.03.11.1.19.2.25l9.98.06c.98-.13.51-1.22.49-1.84-.37-15.49-1.1-30.97-1.67-46.44-.02-.61.25-2.85-.41-3.05l-14.07.03-.17.17-10.2,36.53c-2.35-12.2-5.77-24.16-8.72-36.22-.11-.43-.47-.67-.91-.65-4.37.29-9.18-.36-13.49,0-.77.06-.77.43-.83,1.18-.39,4.68-.42,9.55-.67,14.26-.62,11.59-1.48,23.16-1.9,34.74,0,.26-.07,1.1.17,1.17ZM80.56,63.48h20c.7-.09,1.41-.16,2.11-.22s1.89.26,2.05-.73c1.52-8.9-1.83-19.19-11.36-21.6-14.15-3.58-24.5,7.74-23.85,21.39.73,15.47,13.44,21.08,27.42,17.93.88-.2,4.2-1.16,4.74-1.72.21-.21.25-.66.28-.95.16-1.91.14-5.21,0-7.14-.02-.21-.06-.4-.12-.6-1.34.44-2.64.95-4.03,1.26-3.97.88-9.51,1.1-13.13-.98-2.37-1.36-3.8-3.95-4.12-6.63Z"/>
      <rect class="cls-1" x="19.83" y="114.04" width="77.55" height=".11"/>
      <path class="cls-1" d="M.22,18.71c-.04.43.03.95-.22,1.34v-1.34h.22Z"/>
      <path class="cls-1" d="M20.17,0l-.27.12c-.35.02-.72-.04-1.07,0v-.11h1.34Z"/>
      <path class="cls-1" d="M98.39,0v.11c-.43-.03-1,.11-1.34-.11h1.34Z"/>
      <path class="cls-1" d="M117.1,20.05c-.22-.34-.09-.91-.11-1.34h.11v1.34Z"/>
      <path class="cls-1" d="M117.1,95.33h-.11c0-.21-.08-.55.11-.67v.67Z"/>
      <path class="cls-1" d="M80.56,55.91c.47-4.24,3.55-7.31,7.97-7.01,2.77.19,5.37,2.16,6.02,4.9.1.42.41,1.91-.11,2.01l-13.87.11Z"/>
    </g>
  </g>
</svg>