<?xml version="1.0" encoding="UTF-8"?>
<svg id="Layer_2" data-name="Layer 2" xmlns="http://www.w3.org/2000/svg" viewBox="0 0 117.1 114.15">
  <defs>
    <style>
      .cls-1 {
        fill: #5a4319;
      }
    </style>
  </defs>
  <g id="Layer_1-2" data-name="Layer 1">
    <g>
      <path class="cls-1" d="M97.16,0c.3.22.83.09,1.23.11,9.2.57,18.39,9.22,18.61,18.6,0,.18-.07.46.11.56v74.84c-.22.3-.09.83-.11,1.23-.44,9.9-9.81,18.47-19.61,18.71H19.83c-8.92-.43-16.71-6.62-19.02-15.23-.37-1.37-.5-2.76-.81-4.14V20.05c.29-.39.19-.9.22-1.34C.98,8.9,9.08,1,18.83.11c.35-.03.71.03,1.07,0l.27-.12h76.99ZM36.99,64.26c7.19.35,15.41.26,21.06-4.84,6.45-5.82,7.01-17.17,1.56-23.83-7.59-9.26-22.25-6.02-32.7-6.3-.37,0-.53.26-.5.61v50.23c.06.28.33.51.61.51,2.92-.27,6.41.33,9.26,0,.19-.02.72-.22.72-.39v-15.98ZM94.56,42.8c-.34-.3-2.15-.81-2.68-.94-8.04-1.95-20.59-1.14-22.95,8.61-1.73,7.15,2.77,11.46,8.69,14.22,2.04.95,7.34,2.47,8.38,4.32.79,1.42,0,2.7-1.4,3.24-3.44,1.34-10.02-.04-13.36-1.51-.59-.26-1.55-.93-2.04-1.08-.35-.11-.7-.11-.68.33.2,2.77-.25,5.86,0,8.59.08.91.88,1.06,1.65,1.36,8.58,3.39,25.79,2.61,26.66-9.49.48-6.68-3.2-9.75-8.73-12.33-2.18-1.02-7.54-2.59-8.86-4.4-.68-.93-.64-2.27.28-3.03,2.13-1.77,9.06-.55,11.6.29.78.26,2.84,1.4,3.48,1.09.16-.08.23-.27.23-.44-.2-2.61.25-5.57,0-8.14-.02-.24-.08-.51-.27-.68Z"/>
      <rect class="cls-1" x="19.83" y="114.04" width="77.55" height=".11"/>
      <path class="cls-1" d="M.22,18.71c-.03.44.07.95-.22,1.34v-1.34h.22Z"/>
      <path class="cls-1" d="M20.17,0l-.27.12c-.35.02-.72-.04-1.07,0v-.11h1.34Z"/>
      <path class="cls-1" d="M98.39,0v.11c-.39-.02-.92.11-1.23-.11h1.23Z"/>
      <path class="cls-1" d="M117.1,95.33h-.11c.02-.39-.11-.93.11-1.23v1.23Z"/>
      <path class="cls-1" d="M117.1,19.27c-.18-.09-.11-.38-.11-.56h.11v.56Z"/>
      <path class="cls-1" d="M37.1,55.13v-16.48c3.89.17,8.07-.62,11.67,1.2,3.17,1.6,4.27,4.94,3.82,8.32-.97,7.33-9.84,7.15-15.49,6.96Z"/>
    </g>
  </g>
</svg>