<?xml version="1.0" encoding="UTF-8"?>
<svg id="Layer_2" data-name="Layer 2" xmlns="http://www.w3.org/2000/svg" viewBox="0 0 117.1 114.02">
  <defs>
    <style>
      .cls-1 {
        fill: #5a4319;
      }
    </style>
  </defs>
  <g id="Layer_2-2" data-name="Layer 2">
    <path class="cls-1" d="M53.96,46.73c-.11,8.34-9.55,8.59-15.59,8.05v-16.3s5.57-.1,5.57-.1c2.24-.04,4.43.35,6.38,1.41,2.53,1.36,3.68,3.98,3.64,6.94Z"/>
    <path class="cls-1" d="M97.75.02L19.53,0C9.78,0,1.83,8.1.27,17.12c-.08.47-.13.43-.27.53v78.36c.22.09.24.29.29.6,1.52,9.1,8.86,16.02,18.04,17.16l1.61.24h76.54l-75.75-.23h.01s77.29.23,77.29.23c9.97-1.24,19.05-8.82,19.05-19.51l.03-75.19C117.1,9.16,107.92.02,97.75.02ZM63.09,54.36c-4.29,9.21-15.24,10.33-24.57,9.66l-.12,16.31-10.55-.06V29.11s16.68-.32,16.68-.32c3.89-.07,7.5.68,10.97,2.28,3.68,1.83,6.6,4.64,8.05,8.55,1.76,4.76,1.7,10.11-.46,14.74ZM95.28,51.3c-3.84-.1-9.94.75-12.55,3.62l-.06,25.5-10.07.08c-.59,0-.93-.32-.93-.86v-21.98c0-5.51-.04-10.75-.31-16.23h9.16c1.36,0,1.33,3.96,1.6,5.06,3.35-3.6,8.18-6.33,13.21-5.82l-.04,10.63Z"/>
  </g>
</svg>