<?xml version="1.0" encoding="UTF-8"?>
<svg id="Layer_2" data-name="Layer 2" xmlns="http://www.w3.org/2000/svg" viewBox="0 0 117.1 114.16">
  <defs>
    <style>
      .cls-1 {
        fill: #5a4319;
      }
    </style>
  </defs>
  <g id="Layer_2-2" data-name="Layer 2">
    <g>
      <path class="cls-1" d="M87.84,85.33c-.63,1.5-2.01,2.49-3.51,2.97-4.11,1.31-11.3,1.54-14.64-1.63-.74-.75-1.44-1.8-1.19-2.92.37-1.66,1.54-3.03,2.92-3.93,1.65-.11,3.16.18,4.77.21,3.13.07,8.34-.01,10.8,1.66,1.12.76,1.41,2.29.85,3.65Z"/>
      <path class="cls-1" d="M96.94,114.16l-77.17-.02C9.01,114.13,0,104.52,0,93.77V20.49C0,9.15,9.57,0,20.68,0l75.77.02c11.82,0,20.66,9.96,20.65,21.67l-.04,71.27c0,11.15-8.69,21.2-20.12,21.19ZM39.37,80.74c3.52-.36,6.89-1.28,9.82-3.11,4.85-3.04,7.36-8.19,6.9-13.86-.37-4.58-2.6-8.38-6.36-10.93-2.47-1.67-4.99-3.09-7.84-4.11s-5.53-2.27-7.95-3.98c-1.36-.96-2.14-2.37-1.92-3.98.58-4.28,6.65-4.41,9.94-4.29,3.92.15,7.51,1.14,11.22,2.93l.09-9.85c0-.43-.4-.74-.69-.95-3.37-1.72-10.03-2.05-13.8-1.92-7.71.28-15.06,3.68-17.05,11.77-1.17,4.74-.12,10.52,3.58,14,2.74,2.57,6.04,4.23,9.48,5.68l4.2,1.77c2.97,1.25,6.56,3.33,5.81,6.97-.81,3.92-6.28,4.26-9.52,4.05-4.87-.31-9.34-1.69-13.71-4.44l-.13,7.56c-.03,1.5-.41,3.61.7,4.13,4.91,2.31,11.92,3.09,17.24,2.55ZM98.2,81.36c-.28-3.51-2.07-6.46-5.05-8.13-5.84-3.27-12.33-2.25-18.73-3.01-.94-.93-.88-2.76-.58-4.01,4.02.4,7.88-.03,11.51-1.67,4.38-1.97,6.89-6.23,6.77-11.05-.04-1.8-.27-3.44-1.23-5.1l5.99.3.04-8.53-12.52-.19c-2.47-.04-4.73-.61-7.2-.68-4.05-.11-8.02.52-11.42,2.76-3.94,2.62-6.03,6.91-5.87,11.64.14,4.07,2.01,7.63,5.45,9.81-2.02,3.6-1.95,7.75.08,11.21-1.97,1.77-3.74,3.42-5.28,5.45-.91,1.36-1.88,2.75-1.96,4.43-.15,3.28,1.47,6.1,3.83,8.23,1.73,1.56,3.73,2.56,5.95,3.28,6.51,2.09,14.83,1.81,21.09-.97,5.26-2.34,9.64-7.46,9.13-13.77Z"/>
      <ellipse class="cls-1" cx="76.21" cy="52.89" rx="5.6" ry="5.67"/>
    </g>
  </g>
</svg>