<?xml version="1.0" encoding="UTF-8"?>
<svg id="Layer_2" data-name="Layer 2" xmlns="http://www.w3.org/2000/svg" viewBox="0 0 94.95 52.26">
  <defs>
    <style>
      .cls-1 {
        fill: #e54e4d;
      }

      .cls-2 {
        fill: #fff;
      }
    </style>
  </defs>
  <g id="Brand_Guide_Stuff" data-name="Brand Guide Stuff">
    <path class="cls-1" d="M70.05,36.39c.13-.31.25-.61.36-.92.29-.78.54-1.58.75-2.4.31-1.22.54-2.48.67-3.77.09-.9.14-1.81.13-2.73-.07-14.16-12-25.41-26.16-25.41L9.84,1.89.91,12.92c-1.18,1.72.95,2.92,3.04,2.92h20c-.44,1.07-.82,2.18-1.11,3.32-.21.82-.38,1.65-.51,2.49-.18,1.15-.27,2.32-.29,3.52-.2,14.25,10.71,26.17,24.96,26.17l36.34.11,8.3-10.2c1.41-2.06-.06-4.86-2.56-4.86h-19.03Z"/>
    <path class="cls-2" d="M92.48,36.06h-20.83c.13-.31.26-.63.37-.95.29-.8.55-1.62.76-2.45.32-1.25.55-2.54.69-3.86.09-.92.14-1.85.13-2.8-.02-3.82-.89-7.43-2.41-10.68C67.2,6.53,58.46.34,48.24.04c-.47-.02-.93-.04-1.4-.04H11.17c-1.42,0-2.74.7-3.54,1.86L.44,12.34c-1.12,1.63.05,3.86,2.03,3.86h20.83c-.12.28-.21.57-.32.86-.01.04-.03.07-.04.11-.29.8-.56,1.6-.78,2.43-.21.83-.39,1.69-.52,2.55-.06.4-.09.81-.13,1.22,0,.03,0,.06,0,.09-.12,1.14-.18,2.3-.15,3.48.1,3.26.82,6.36,2.02,9.2.05.12.1.24.16.36.08.19.16.37.25.56,3.5,7.55,10.5,13.13,18.92,14.68,1.73.35,3.52.54,5.35.54h35.72c1.42,0,2.74-.7,3.54-1.86l7.19-10.48c1.12-1.63-.05-3.86-2.03-3.86ZM37.32,5.35c2.93-1.54,6.2-2.35,9.51-2.35.4,0,.82.01,1.25.03h.03s.03,0,.03,0c8.86.26,16.64,5.45,20.33,13.56,1.4,2.98,2.11,6.15,2.13,9.42,0,.83-.04,1.66-.12,2.48-.12,1.15-.32,2.3-.61,3.41-.19.73-.41,1.46-.67,2.17-.1.28-.22.56-.33.84l-.47,1.14h-.08s-27.45,0-27.45,0c-.34,0-.51-.41-.27-.65l2.28-2.28c.16-.16,1.18-.96,1.38-.85.31.18.63.33.97.46.18.07.4.01.53-.12l7.52-7.52v-.04c-.15-.43-.34-.84-.56-1.23-.11-.2-.09-.45.08-.62l4.88-4.88c.85-.86,1.57-2.23,1.04-3.5-.3-.73-1.09-1.6-3.13-1.6h-27.3c2.14-3.17,5.03-5.78,8.44-7.56l.58-.3ZM3.49,13.2L10.49,3h2.99l-7,10.2h-2.99ZM8.29,13.2L15.3,3h4.49l-7,10.2h-4.49ZM21.61,3h13.73c-4.42,2.32-8.09,5.87-10.55,10.2h-10.18l7-10.2ZM57.13,47.06c-2.81,1.45-5.92,2.21-9.08,2.21-1.59,0-3.19-.16-4.75-.48h-.03s-.03,0-.03,0c-7.33-1.35-13.59-6.2-16.75-13.01-.06-.14-.13-.27-.19-.41l-.03-.06-.05-.12-.09-.21c-1.1-2.58-1.7-5.31-1.79-8.11-.03-.92.02-1.9.14-3.11v-.04s0,0,0,0c.02-.15.03-.29.04-.44.02-.22.04-.43.07-.65.12-.76.27-1.52.46-2.26.16-.64.38-1.32.7-2.19l.02-.06.11-.31c.05-.15.11-.3.17-.45l.47-1.14c9.39,0,25.98,0,28.04,0,.37,0,.55.44.29.7l-4.15,4.16c-.17.17-.43.19-.63.07-.34-.21-.7-.38-1.07-.53-.19-.08-.41-.02-.56.12l-7.28,7.28c-.15.15-.19.36-.11.56.14.32.35.81.51,1.07.12.21-.67,1.24-.84,1.4l-3.03,3.05c-.8.86-1.45,2.17-.94,3.39.31.73,1.1,1.6,3.15,1.6h26.58c-2.16,3.16-5.07,5.76-8.49,7.52l-.88.46ZM59.4,49.26c4.46-2.3,8.16-5.85,10.65-10.18h10.28l-6.99,10.18h-13.95ZM75.16,49.26l7-10.2h4.49l-7,10.2h-4.49ZM84.46,49.26h-2.99l7-10.2h2.99l-7,10.2Z"/>
  </g>
</svg>