<?xml version="1.0" encoding="UTF-8"?>
<svg id="Layer_2" data-name="Layer 2" xmlns="http://www.w3.org/2000/svg" viewBox="0 0 308.31 109.45">
  <defs>
    <style>
      .cls-1 {
        fill: #fff;
      }
    </style>
  </defs>
  <g id="Invoice">
    <g>
      <g>
        <path class="cls-1" d="M90.11,39.2h.02c1.6-2.75,1.41-7.34-.62-10.15h0s-.01-.02-.02-.03c-.01-.01-.02-.03-.03-.05h0c-1.96-2.48-4.22-3.32-7.32-3.32h-15.82c-3.48-.05-7.56,1.71-9.21,4.45h0s-14.46,25.24-14.46,25.24c-.61,1.06.16,2.39,1.39,2.39h6.56c.8,0,1.54-.43,1.94-1.13l12.09-21.2c.11-.19.28-.33.45-.45v-.19s.03-.05.03-.05l-.03-.02v-.08s.9,0,.9,0h13.41s.98,0,1.39.85h-.01c.22.45.26.99-.02,1.48l-3.07,5.32h0s-.06.11-.06.11h0s-4.41,7.64-4.41,7.64v.02l-.02.03h-.01s-4.45,7.71-4.45,7.71h0s-1.54,2.66-1.54,2.66c-.1.17-.25.28-.39.39l-.07.11.14.08-.17-.09c-.25.17-.54.29-.85.29H13.14c-1.05,0-1.57-1.27-.83-2.01l7.15-7.16c.51-.51,1.29-.59,1.93-.24.94.53,1.92,1,2.94,1.39.59.23,1.26.06,1.71-.38l23.26-23.26-.04-.12c-.45-1.33-1.02-2.6-1.7-3.8-.36-.63-.28-1.41.24-1.93l7.96-7.96c2.62-2.65,4.85-6.9,3.21-10.81C58.01,2.71,55.56.03,49.28,0h0s-.05,0-.05,0c0,0-.01,0-.02,0h0S6.52,0,6.52,0C5.64,0,4.92.72,4.92,1.6v6.04c0,.88.7,1.6,1.58,1.6,6.46,0,30.95.01,39.62.02,1.14,0,1.69,1.38.89,2.18l-5.69,5.69c-.52.52-1.32.6-1.95.22-1.05-.63-2.16-1.17-3.31-1.62-.59-.23-1.27-.07-1.72.38l-23.26,23.26.04.12c.5,1.47,1.16,2.87,1.94,4.18.38.63.3,1.43-.22,1.95l-9.08,9.08h0s-.02.03-.02.03h0s-.05.05-.08.08l-.22.23h0c-2.48,2.67-4.47,6.71-2.9,10.47.95,2.26,3.4,4.96,9.74,4.96h0s56.62,0,56.62,0h0c4.82,0,8.53-5.7,8.53-5.7l14.66-25.56Z"/>
        <path class="cls-1" d="M122.63,26.44s-4.91,8.57-5.25,9.27c-.34.7-.85,1.08-2.28,1.08h-3.83c-.56,0-1.09.3-1.37.78l-3.71,6.27c-.63,1.07.14,2.41,1.38,2.41l9.22-.03c5.07-.15,6.47-2,9.08-4.79h-.01s0-.01,0-.01h0s7.92-13.03,7.92-13.03c.82-1.05.07-2.58-1.26-2.58h-8.65c-.49,0-.96.23-1.26.62Z"/>
        <path class="cls-1" d="M165.65,62.39c-.44-.8-1.27-1.29-2.18-1.29h-1.93c-1.22-.02-1.95-1.36-1.33-2.41l3.65-6.23,12.78-23.14c.86-1.57-.27-3.49-2.06-3.49h-4.92c-.84,0-1.62.45-2.04,1.18l-19.07,33.3c-.29.49-.81.79-1.38.79h.57c-.54,0-.92,0-1.02,0h-12.51c-1.23,0-2-1.34-1.38-2.4l3.65-6.23,13.14-23.56c.77-1.38-.23-3.07-1.8-3.07h-5.56c-.74,0-1.42.39-1.79,1.03l-19.29,33.45c-.29.49-.81.79-1.38.79h-9.77c-1.24,0-2.38-.66-3-1.73l-6.4-11.02c-.29-.5-.29-1.11,0-1.6L126.17,2.69c.69-1.19-.18-2.68-1.55-2.67l-4.8.03c-3.12,0-3.39.95-4.26,2.42-.79,1.46-34.06,58.88-34.06,58.88-.79,1.47-4.08,6.76-8.16,9.09,2.34,0,7.88-.09,8.16-.09,0,0,0-.02,0-.02,3.18-.09,7.32-2.42,8.71-5.53h.02s3.28-5.67,3.28-5.67c.62-1.07,2.16-1.06,2.77,0l2.86,4.98c2.2,3.84,6.28,6.2,10.71,6.2h37.72s20.52,0,20.52,0c.96,0,1.56-1.04,1.08-1.88l-3.52-6.06Z"/>
        <path class="cls-1" d="M241.7,16.12s.03-.08.05-.11l.02-.03h0c1.91-3.98,2.33-11.02-4.21-14.47-3.54-1.93-6.53-1.66-8.43-1.1-3.76,1.12-5.82,4.04-6.5,5.16h0s-11.56,20.01-11.56,20.01l.13.08h-2.81s-2.16,0-2.16,0h-13c-4.98,0-10.18.23-14.25,6.35-.58.81-2.72,4.83-5.08,9.08-1.4,2.52-1.07,5.68.91,7.79,2.23,2.36,5.68,4.44,10.53,4.44h6.21c1.23-.02,2,1.32,1.38,2.38l-2.64,4.58c-.29.49-.81.8-1.39.8l-18.39.03c-.88,0-1.44.93-1.04,1.71l3.23,6.2c.44.8,1.28,1.29,2.19,1.29l10.92-.05c6.1,0,9.23.05,14.67-9.19l3.31-5.75c1.94-3.87.79-6.58-.08-7.86-2.54-3.74-7.5-3.39-8.96-3.39h-9.91c-.67,0-1.26-.41-1.49-1.03l3.38-5.9c.68-1.28,2.12-2.22,3.26-2.22l17.17-.03h0s1.23,0,1.23,0l3.43-.08c2.7-.3,5.69-2.15,7.24-4.63h0s11.45-19.83,11.45-19.83h0c.11-.18,1.06-1.32,1.69-1.32.92,0,1.67.75,1.67,1.67,0,.23-.19.7-.33,1.04l-31.15,53.96-1.36,2.43s-1.2,2.19,1.41,2.19h7.03c.57,0,1.1-.3,1.38-.8l30.83-53.4h.01Z"/>
      </g>
      <path class="cls-1" d="M306.62,11.74h0s-.01-.02-.02-.03c-.01-.01-.02-.03-.03-.05h0c-1.67-2.11-3.6-3-6.04-3.22v-.1h-22.61c-.57,0-1.1.3-1.38.8l-3.4,5.86s-1.79,2.58,1.38,2.58h2.48s.07,0,.06,0h19.26c1.23,0,2,1.33,1.38,2.4l-3.37,5.84c-.29.49-.81.8-1.38.8l-19.75.21c-3.19.31-6.59,1.98-8.04,4.44l-13.63,24.31c-.62,1.06.14,2.4,1.38,2.4h6.97c.3,0,.59-.1.84-.25v.02s4.35-2.57,4.35-2.57l-.02-4.62.05-.08,3.93-2.43-.02-4.43.03-.05,3.95-2.44-.02-4.32c.57-.66,1.41-1.07,2.31-1.07l10.55-.15c.92,0,1.59.75,1.6,1.58l-3.49,2.07.03,4.62-.04.08-3.93,2.44.03,4.41-.05.08-3.93,2.44.03,4.38-1.64,2.73c-.29.48-.75.8-1.4.8h.18s0,0,0,0h-.17l-4.02-2.18-3.78,2.18h-.04l-4.02-2.18-3.78,2.18h-9.98c-1.23,0-2-1.33-1.39-2.39l10.55-19.11s8.65-13.81-7.94-13.81l-8.43-.02c-.48,0-.93.26-1.16.69l-3.68,6.72c-.45.81.14,1.81,1.07,1.81l9.37.04c1.23,0,1.99,1.33,1.38,2.4l-12.05,21.73c-5.52,9.63,3.38,11.18,3.38,11.18h54.95c1.21-.01,1.98-1.31,1.4-2.38l-3.3-6.03c-.28-.51-.82-.83-1.4-.83h-3.55s-.1-.01-.1-.01c-1.21-.03-.04-2.52.69-4.01h.04l9.75-17.47c3.01-5.22,10.28-17.81,10.28-17.81h-.01c1.6-2.77,1.41-7.36-.62-10.17Z"/>
      <g>
        <path class="cls-1" d="M67.28,85.9l-16.45,21.77c-.34.43-.75.8-1.23,1.12-.48.31-.97.51-1.45.6-.49.07-.88.03-1.17-.15-.3-.17-.45-.44-.46-.81l-.4-12.66-15.04,12.66c-.37.31-.76.56-1.17.73-.42.17-.81.26-1.18.26-.51,0-.86-.16-1.06-.49s-.2-.74.02-1.26l8.65-21.77h4.28l-6.07,15.34,12.75-10.59c.36-.31.76-.56,1.17-.73.42-.17.81-.26,1.18-.26s.66.09.87.26c.21.17.33.42.36.73l.49,10.59,11.64-15.34h4.28Z"/>
        <path class="cls-1" d="M87.09,99.73c-.82,1.42-1.81,2.72-2.98,3.9-1.17,1.19-2.44,2.21-3.8,3.08-1.36.86-2.77,1.54-4.23,2.02-1.46.48-2.89.72-4.28.72h-5.7c-1.39,0-2.54-.24-3.45-.72-.91-.48-1.55-1.15-1.91-2.02-.37-.86-.45-1.89-.26-3.08.19-1.19.7-2.49,1.52-3.9l2.56-4.44c.81-1.4,1.8-2.7,2.99-3.89,1.18-1.19,2.45-2.22,3.81-3.08,1.36-.86,2.77-1.53,4.24-2.02,1.47-.49,2.9-.73,4.29-.73h5.7c1.39,0,2.54.24,3.44.73s1.54,1.16,1.9,2.02c.37.86.45,1.88.25,3.08-.2,1.19-.71,2.49-1.52,3.89l-2.56,4.44ZM85.44,95.29c.48-.83.78-1.58.91-2.26.12-.67.09-1.25-.12-1.73-.2-.48-.57-.85-1.09-1.12-.52-.26-1.19-.4-2-.4h-5.7c-.82,0-1.65.13-2.47.4-.83.27-1.62.64-2.39,1.12-.76.48-1.47,1.06-2.13,1.73-.65.68-1.22,1.43-1.7,2.26l-2.56,4.44c-.48.83-.78,1.59-.91,2.26-.13.68-.08,1.25.13,1.73.21.48.57.85,1.1,1.12.52.27,1.19.4,2.01.4h5.67c.82,0,1.64-.13,2.47-.4.83-.26,1.62-.64,2.39-1.12.76-.48,1.47-1.06,2.13-1.73.65-.67,1.22-1.43,1.7-2.26l2.56-4.44Z"/>
        <path class="cls-1" d="M117.93,93.7c-.56.96-1.17,1.82-1.84,2.57-.67.76-1.38,1.42-2.12,2-.74.58-1.49,1.07-2.26,1.48-.77.41-1.51.75-2.24,1.01-.73.27-1.42.46-2.08.57-.66.12-1.24.18-1.76.18l4.41,7.6h-6.51l-4.39-7.6h-3.03l2.43-4.21h9.52c.55-.04,1.1-.15,1.64-.33s1.06-.42,1.55-.72c.49-.3.95-.67,1.37-1.09.42-.43.79-.92,1.11-1.47l1.53-2.66c.14-.24.21-.42.22-.54.01-.12-.01-.22-.07-.28-.06-.06-.13-.09-.23-.11-.1-.01-.19-.02-.27-.02h-13.9l-10.98,19.01h-4.21l12.18-21.1c.17-.29.38-.57.64-.83.26-.26.54-.49.84-.68.3-.19.61-.35.93-.45.32-.11.63-.16.94-.16h15.98c.94,0,1.63.17,2.09.51s.73.77.84,1.28c.11.51.08,1.07-.08,1.66-.16.59-.4,1.15-.7,1.67l-1.55,2.69Z"/>
        <path class="cls-1" d="M117.5,109.12h-4.21l13.41-23.22h4.21l-13.41,23.22ZM137.6,109.12h-5.98l-3.99-9.49h-2.96l2.45-4.24h2.96l14.95-9.49h5.98l-18.64,11.61,5.23,11.61Z"/>
        <path class="cls-1" d="M166.5,102.29c-.48.83-1.02,1.58-1.61,2.24s-1.21,1.25-1.85,1.76c-.64.51-1.29.94-1.96,1.3-.67.36-1.32.65-1.95.87-.63.23-1.23.39-1.8.5-.58.11-1.09.16-1.54.16h-16.24l2.43-4.21h16.24c.81,0,1.58-.24,2.3-.71.72-.47,1.31-1.11,1.78-1.91.22-.39.37-.74.44-1.07.07-.32.06-.6-.02-.84-.08-.24-.25-.42-.49-.55-.24-.13-.56-.19-.95-.19h-9.68c-.68,0-1.34-.12-1.99-.36-.65-.24-1.15-.63-1.52-1.17-.36-.54-.52-1.25-.46-2.12.06-.87.45-1.94,1.18-3.21s1.57-2.33,2.52-3.2c.95-.87,1.92-1.58,2.91-2.12.99-.54,1.95-.94,2.88-1.18.93-.24,1.73-.36,2.41-.36h14.33l-2.43,4.21h-14.33c-.8,0-1.56.24-2.29.73-.73.49-1.32,1.13-1.78,1.93s-.61,1.45-.44,1.92c.18.47.66.7,1.46.7h9.72c.45.01.89.07,1.33.19.44.11.85.29,1.21.53.36.24.67.54.91.9.24.36.4.8.45,1.3.06.51,0,1.09-.18,1.75-.18.66-.5,1.4-.98,2.23Z"/>
        <path class="cls-1" d="M178.23,95.39h14.79l5.48-9.49h4.21l-13.41,23.22h-4.21l5.48-9.49h-14.79l-5.48,9.49h-4.21l13.41-23.22h4.21l-5.48,9.49Z"/>
        <path class="cls-1" d="M224.01,99.73c-.82,1.42-1.81,2.72-2.98,3.9-1.17,1.19-2.44,2.21-3.8,3.08-1.36.86-2.77,1.54-4.23,2.02-1.46.48-2.89.72-4.28.72h-5.7c-1.39,0-2.54-.24-3.45-.72-.91-.48-1.55-1.15-1.91-2.02-.37-.86-.45-1.89-.26-3.08.19-1.19.7-2.49,1.52-3.9l2.56-4.44c.81-1.4,1.8-2.7,2.99-3.89,1.18-1.19,2.45-2.22,3.81-3.08,1.36-.86,2.77-1.53,4.24-2.02,1.47-.49,2.9-.73,4.29-.73h5.7c1.39,0,2.54.24,3.44.73.9.49,1.54,1.16,1.9,2.02.37.86.45,1.88.25,3.08-.2,1.19-.71,2.49-1.52,3.89l-2.56,4.44ZM222.36,95.29c.48-.83.78-1.58.91-2.26.12-.67.09-1.25-.12-1.73-.2-.48-.57-.85-1.09-1.12-.52-.26-1.19-.4-2-.4h-5.7c-.82,0-1.65.13-2.47.4-.83.27-1.62.64-2.39,1.12-.76.48-1.47,1.06-2.13,1.73-.65.68-1.22,1.43-1.7,2.26l-2.56,4.44c-.48.83-.78,1.59-.91,2.26-.13.68-.08,1.25.13,1.73.21.48.57.85,1.1,1.12.52.27,1.19.4,2.01.4h5.67c.82,0,1.64-.13,2.47-.4.83-.26,1.62-.64,2.39-1.12.76-.48,1.47-1.06,2.13-1.73.65-.67,1.22-1.43,1.7-2.26l2.56-4.44Z"/>
        <path class="cls-1" d="M253.69,95.62c-.56.96-1.17,1.82-1.84,2.57-.67.76-1.38,1.42-2.12,2-.74.58-1.49,1.07-2.26,1.48-.77.41-1.51.74-2.24,1-.73.26-1.42.45-2.08.57-.66.12-1.24.18-1.76.18h-9.52l2.43-4.21h9.52c.56-.04,1.12-.15,1.66-.33s1.05-.42,1.54-.72c.49-.3.94-.67,1.36-1.09.42-.43.78-.91,1.1-1.45l1.1-1.91c.25-.53.42-1.01.5-1.46.08-.44.07-.82-.05-1.13-.12-.31-.33-.56-.65-.74s-.75-.27-1.3-.27h-9.49c-.56,0-1.07.15-1.53.44s-.85.71-1.17,1.26l-10,17.31h-4.21l10-17.31c.62-1.08,1.35-2,2.18-2.75.83-.76,1.67-1.37,2.53-1.83.86-.46,1.69-.8,2.5-1.01.81-.21,1.51-.32,2.09-.32h9.52c.95,0,1.73.12,2.35.36.61.24,1.09.57,1.44.97.34.4.57.87.66,1.4.1.53.11,1.08.05,1.66-.07.58-.21,1.16-.43,1.75-.22.59-.48,1.14-.78,1.66l-1.1,1.91Z"/>
      </g>
    </g>
  </g>
</svg>