<?xml version="1.0" encoding="UTF-8"?>
<svg id="Layer_2" xmlns="http://www.w3.org/2000/svg" version="1.1" viewBox="0 0 334.2 295.5">
  <!-- Generator: Adobe Illustrator 29.4.0, SVG Export Plug-In . SVG Version: 2.1.0 Build 152)  -->
  <defs>
    <style>
      .st0 {
        fill: #605039;
      }
    </style>
  </defs>
  <g id="Layer_2-2">
    <g id="Layer_1-2">
      <g id="Layer_1-3">
        <g id="Layer_1-2-2">
          <g>
            <path class="st0" d="M81.7,107.2c-.9.4-1.8.8-2.8,1.3-1.5.7-2.8,1.4-3.7,1.9,0,0-.2,0-.3.2-.4.2-.7.4-.9.6h0c-5.7,3.3-10.8,7.5-15.3,12.4l-.2-.2V.1C26.2.1,0,27.7,0,61.7v149.4h0c0,9.1,3.3,18.1,9.8,25,11.7,12.3,29.7,13.6,42.8,4.1-9,13.8-7.8,32.8,3.9,45,13.2,13.8,34.5,13.8,47.6,0l55.1-65.4h0c10.1-12.5,16.3-28.7,16.3-46.4s-5.2-66.2,14.6-85.2C234.1,50.8,337.2,14.7,334.1,10.1c-2.8-4.2-206.7,75.6-252.4,97h0s0,0,0,0h0ZM86.8,203.8c-4.9-.5-9-4.3-10-9.5-2.5-12.6-5.1-36.7,6.7-50.4,4.9-5.8,12-9,19.3-10.8-5.9,5.2-9.7,12.9-9.7,21.5,0,15.5,12,28.1,26.8,28.1s17.4-5,22.3-12.6c-.9,7.9-3.2,15.8-8.3,21.6-11.8,13.8-34.9,13.4-47.1,12.1h0s0,0,0,0Z"/>
            <g>
              <path class="st0" d="M246.5,25V0h-12.3c-25.5,0-46.3,21.7-46.3,48.6h0l58.6-23.7h0Z"/>
              <path class="st0" d="M334.2,161.4c0-34.2-29.9-61.8-58.9-61.8-24.4.2-28.9,6.6-28.9,6.6v-6.6h0v-.2s0-28.6,0-28.6h0c-24.7,0-58.5,28.8-58.5,43s-.3,133.3-.3,133.3h58.9v-70.5h0v-.7c0-.2,0-.4,0-.5,0-.9.2-1.7.4-2.6,0-.2,0-.3,0-.4,1.5-5.4,5.7-9.6,10.9-10.8.9-.2,2-.3,2.9-.3,2,0,3.9.4,5.6,1.2,5,2.2,8.5,7.3,8.8,13.3h0v71.2h58.9v-85.8h0c0,.1,0,.1,0,.1h0Z"/>
            </g>
          </g>
        </g>
      </g>
    </g>
  </g>
</svg>