<?xml version="1.0" encoding="UTF-8"?>
<svg id="Layer_2" xmlns="http://www.w3.org/2000/svg" version="1.1" viewBox="0 0 312.5 295.5">
  <!-- Generator: Adobe Illustrator 30.0.0, SVG Export Plug-In . SVG Version: 2.1.1 Build 123)  -->
  <defs>
    <style>
      .st0 {
        fill: #f26f6c;
      }

      .st1 {
        fill: #605039;
      }

      .st2 {
        fill: none;
        stroke: #ec008c;
        stroke-miterlimit: 10;
        stroke-width: 11px;
      }
    </style>
  </defs>
  <path class="st1" d="M222.3,0v32.4l-60.2,22.7C164.8,24.2,190.7,0,222.3,0Z"/>
  <path class="st1" d="M111,139.5c0,0-.2-.2-.3-.3,0,0,.2.2.3.3Z"/>
  <path class="st1" d="M222.3,0v32.4l-60.2,22.7C164.8,24.2,190.7,0,222.3,0Z"/>
  <g>
    <path class="st1" d="M161.7,254.5h0c0,0,0,0,0,0Z"/>
    <path class="st1" d="M237.2,104h0c-5.1,0-10.1.5-15,1.5v-38.3l-31.3,15.3c-8.7,4.3-16.1,10.9-21.3,19.2-5.2,8.3-7.9,17.8-7.9,27.5v79.2h0c0,25.1-.1,45.1-.1,46.1h60.6v-75.9c0-8.2,6.6-14.8,14.8-14.8h0c8.2,0,14.8,6.6,14.8,14.8v75.8h60.7v-75.1c0-41.6-33.7-75.3-75.3-75.3Z"/>
  </g>
  <path class="st0" d="M310.9,8.5L84.1,96.3c-15.3,6-23.6,15-23.6,15V.2C27.1.2,0,25.1,0,55.8v104.8c0,0,0,0,0,0v65.9C0,242.2,12.8,255.1,28.7,255.1s11.1-1.7,15.6-4.6c1.6-1.1,3.2-2.3,4.5-3.6-5.1,5.2-8.2,12.2-8.2,20.1,0,15.8,12.8,28.7,28.7,28.7s15.6-3.4,20.8-8.9c.6-.6,42.5-48.8,42.5-48.8,11.2-13.1,18-30.2,18-48.8v-59.8c0-24.2,13.8-46.2,35.5-56.9l125.8-61.6c1.4-.7.5-2.8-1-2.2ZM117.9,187.2c-11.5,13.4-34,13-45.9,11.8h0s0,0,0,0c-4.8-.5-8.8-4.2-9.7-9.2-2.4-12.3-5-35.8,6.5-49.2,4.8-5.7,11.7-8.8,18.9-10.5-5.8,5-9.5,12.5-9.5,21,0,15.1,11.7,27.4,26.1,27.4s17-4.9,21.7-12.3c-.9,7.7-3.1,15.4-8.1,21.1Z"/>
  <path class="st2" d="M83.5,90"/>
</svg>