<?xml version="1.0" encoding="UTF-8"?>
<svg id="Layer_2" xmlns="http://www.w3.org/2000/svg" version="1.1" viewBox="0 0 839 191.2">
  <!-- Generator: Adobe Illustrator 30.0.0, SVG Export Plug-In . SVG Version: 2.1.1 Build 123)  -->
  <defs>
    <style>
      .st0 {
        fill: #605039;
      }
    </style>
  </defs>
  <g id="Layer_2-2">
    <g>
      <path class="st0" d="M158.6,17.1V1h-7.9c-16.4,0-29.8,14-29.8,31.3h0l37.7-15.2h0Z"/>
      <path class="st0" d="M52.6,70c-.6.3-1.1.6-1.8.8-1,.5-1.8.9-2.4,1.2,0,0-.1,0-.2.1-.2.1-.4.3-.6.4h0c-3.7,2.2-7,4.8-9.9,7.9h-.1V1.1C16.9,1.1,0,18.9,0,40.7v96.1h0c0,5.8,2.1,11.7,6.3,16.1,7.5,7.9,19.1,8.7,27.6,2.6-5.8,8.9-5,21.1,2.5,28.9,8.5,8.9,22.2,8.9,30.6,0l35.4-42.1h0c6.5-8.1,10.5-18.5,10.5-29.9s-3.3-42.6,9.4-54.8c28.2-24,94.5-47.2,92.6-50.2-1.8-2.7-133,48.6-162.4,62.4h0s0,0,0,0ZM55.9,132.2c-3.2-.3-5.8-2.8-6.4-6.1-1.6-8.1-3.3-23.6,4.3-32.4,3.2-3.7,7.7-5.8,12.4-6.9-3.8,3.3-6.3,8.3-6.2,13.8,0,10,7.7,18.1,17.2,18.1s11.2-3.2,14.3-8.1c-.6,5.1-2.1,10.1-5.3,13.9-7.6,8.8-22.4,8.6-30.3,7.8h0s0,0,0,0h0Z"/>
      <path class="st0" d="M215,104.9c0-22-19.3-39.8-37.9-39.8-15.7.1-18.6,4.2-18.6,4.2v-4.2h0v-18.5h0c-15.9,0-37.6,18.5-37.6,27.7s-.2,85.8-.2,85.8h37.9v-45.4h0v-.4c0-.1,0-.2,0-.3,0-.6.1-1.1.2-1.7,0-.1,0-.2,0-.3.9-3.5,3.6-6.2,7-6.9.6-.1,1.2-.2,1.9-.2,1.3,0,2.5.3,3.6.8,3.2,1.4,5.4,4.7,5.6,8.6h0v45.8h37.9v-55.2h0c0,0,0,0,0,0Z"/>
    </g>
    <path class="st0" d="M294.3,24.6c3.4-1.9,7.4-2.9,12.2-2.9s10.8,1.5,15.3,4.4c4.5,3,8.1,7.3,10.8,12.9,2.6,5.6,3.9,12.2,3.9,19.9s-1.3,14.3-3.9,19.9c-2.6,5.6-6.2,9.9-10.8,12.9-4.5,3-9.6,4.4-15.3,4.4s-8.8-1-12.2-2.9c-3.4-1.9-6-4.6-7.8-7.9v9.9h-28.6V0h28.6v32.5c1.8-3.4,4.4-6,7.8-7.9h0ZM304.5,49.9c-2-2.2-4.5-3.2-7.6-3.2s-5.6,1.1-7.6,3.2-3,5.1-3,9,1,6.9,3,9c2,2.2,4.5,3.2,7.6,3.2s5.6-1.1,7.6-3.2,3-5.2,3-9-1-6.9-3-9Z"/>
    <path class="st0" d="M384.4,25.9c4.2-2.5,8.6-3.8,13.1-3.8v30.5h-8.1c-5.4,0-9.4.9-11.9,2.8-2.5,1.9-3.8,5.2-3.8,10v29.7h-28.6V22.6h28.6v13.4c2.9-4.2,6.5-7.6,10.7-10.1h0,0Z"/>
    <path class="st0" d="M479.9,63.9h-45.9c.4,6.3,3,9.4,7.9,9.4s5.3-1.4,6.7-4.2h30.2c-1,5.1-3.2,9.8-6.5,13.8-3.3,4.1-7.5,7.3-12.5,9.7-5,2.4-10.5,3.5-16.5,3.5s-13.6-1.5-19.2-4.5c-5.6-3-10-7.3-13.1-12.9-3.1-5.6-4.7-12.2-4.7-19.8s1.6-14.1,4.7-19.8c3.1-5.6,7.5-9.9,13.1-12.9,5.6-3,12-4.5,19.2-4.5s13.6,1.5,19.2,4.4c5.6,3,10,7.2,13.1,12.7,3.1,5.5,4.7,12,4.7,19.4s-.1,3.9-.4,5.7h0ZM451.4,51.5c0-2.4-.8-4.2-2.3-5.5-1.5-1.2-3.5-1.9-5.8-1.9-5.1,0-8,2.4-8.9,7.3h17Z"/>
    <path class="st0" d="M559.3,30.5c4.7,5.6,7,13.1,7,22.6v42.1h-28.4v-38.5c0-3.4-.9-6.2-2.8-8.2-1.8-2-4.3-3-7.4-3s-5.7,1-7.5,3c-1.8,2-2.7,4.7-2.7,8.2v38.5h-28.6V22.6h28.6v11.1c2.2-3.4,5.2-6.2,8.9-8.4,3.7-2.1,8.2-3.2,13.3-3.2,8.3,0,14.8,2.8,19.5,8.4h0s0,0,0,0Z"/>
    <path class="st0" d="M579,39c2.6-5.6,6.2-9.9,10.7-12.9,4.5-3,9.7-4.4,15.3-4.4s8.8,1,12.2,2.9,6,4.6,7.8,7.9V0h28.6v95.2h-28.6v-9.9c-1.8,3.3-4.4,6-7.8,7.9-3.4,1.9-7.4,2.9-12.2,2.9s-10.8-1.5-15.3-4.4-8.1-7.2-10.7-12.9c-2.6-5.6-3.9-12.2-3.9-19.9s1.3-14.3,3.9-19.9h0ZM622.1,49.9c-2-2.2-4.5-3.2-7.6-3.2s-5.6,1.1-7.6,3.2-3,5.1-3,9,1,6.9,3,9c2,2.2,4.5,3.2,7.6,3.2s5.6-1.1,7.6-3.2c2-2.2,3-5.2,3-9s-1-6.9-3-9Z"/>
    <path class="st0" d="M666.2,39c2.6-5.6,6.2-9.9,10.7-12.9,4.5-3,9.7-4.4,15.3-4.4s8.8,1,12.2,2.9,6,4.6,7.8,7.9v-9.9h28.4v72.6h-28.4v-9.9c-1.8,3.3-4.4,6-7.8,7.9-3.4,1.9-7.5,2.9-12.2,2.9s-10.8-1.5-15.3-4.4-8.1-7.2-10.7-12.9c-2.6-5.6-3.9-12.2-3.9-19.9s1.3-14.3,3.9-19.9h0ZM709.3,49.9c-2-2.2-4.5-3.2-7.6-3.2s-5.6,1.1-7.6,3.2-3,5.1-3,9,1,6.9,3,9c2,2.2,4.5,3.2,7.6,3.2s5.6-1.1,7.6-3.2c2-2.2,3-5.2,3-9s-1-6.9-3-9Z"/>
    <path class="st0" d="M819.7,30.5c4.7,5.6,7,13.1,7,22.6v42.1h-28.4v-38.5c0-3.4-.9-6.2-2.8-8.2-1.8-2-4.3-3-7.4-3s-5.7,1-7.5,3c-1.8,2-2.7,4.7-2.7,8.2v38.5h-28.6V22.6h28.6v11.1c2.2-3.4,5.2-6.2,8.9-8.4,3.7-2.1,8.2-3.2,13.3-3.2,8.3,0,14.8,2.8,19.5,8.4h0s0,0,0,0Z"/>
    <path class="st0" d="M608.1,125.4c-4.7-5.6-11.2-8.4-19.5-8.4s-9.6,1.1-13.3,3.2c-3.7,2.1-6.7,4.9-8.9,8.3v-33.7h-28.4v95.2h28.4v-38.5c0-3.4.9-6.1,2.7-8.2,1.8-2,4.3-3,7.5-3s5.5,1,7.4,3c1.8,2,2.8,4.7,2.8,8.2v38.5h28.4v-42.1c0-9.5-2.3-17.1-7-22.6h0Z"/>
    <path class="st0" d="M702.4,117.6v72.6h-28.6v-11.1c-2.2,3.4-5.2,6.2-8.9,8.4s-8.2,3.2-13.3,3.2c-8.3,0-14.8-2.8-19.5-8.4-4.7-5.6-7-13.1-7-22.6v-42.1h28.4v38.5c0,3.4.9,6.2,2.8,8.2,1.8,2,4.3,3,7.4,3s5.7-1,7.5-3c1.8-2,2.7-4.7,2.7-8.2v-38.5h28.6s0,0,0,0Z"/>
    <path class="st0" d="M839,165.8v24.3h-10.8c-19.9,0-29.8-9.9-29.8-29.7v-19h-9v-23.8h9v-22.4h28.6v22.4h11.8v23.8h-11.8v19.6c0,1.7.4,2.9,1.2,3.7s2.2,1.2,4,1.2h6.8Z"/>
    <path class="st0" d="M752,120.1c4.2-2.6,21-3.8,25.7-3.8v30.9h-20.6c-5.5,0-9.5,1-12,2.9-2.6,1.9-3.8,5.3-3.8,10.2v30.1h-28.9v-73.4h28.9v13.5c3-4.2,6.5-7.7,10.8-10.2h0Z"/>
    <g>
      <path class="st0" d="M257.9,145.3v-36h11.6c3.6,0,6.6.8,8.7,2.5,2.2,1.7,3.3,3.9,3.3,6.7s-.4,3-1.1,4.2c-.7,1.2-1.7,2.1-3,2.8-1.2.7-2.6,1-4,1v.2c1.6,0,3.1.3,4.4.9,1.3.6,2.4,1.6,3.2,2.8s1.2,2.8,1.2,4.6-.5,3.9-1.5,5.5c-1,1.6-2.4,2.8-4.3,3.6s-4,1.3-6.6,1.3h-12.1ZM265.1,123.8h4.3c1.5,0,2.6-.4,3.4-1.2.8-.8,1.2-1.8,1.2-3.1s-.4-2.4-1.2-3.1-2-1.1-3.4-1.1h-4.3v8.5h0ZM265.1,139.3h4.6c1.6,0,2.9-.4,3.8-1.3s1.4-2,1.4-3.6-.5-2.7-1.4-3.6-2.2-1.3-3.8-1.3h-4.6v9.7Z"/>
      <path class="st0" d="M291.4,145.3v-36h11.6c2.6,0,4.8.4,6.7,1.3s3.3,2.2,4.4,3.8c1,1.7,1.5,3.6,1.5,5.8s-.6,4.4-1.7,6.3c-1.1,1.8-2.7,3.2-4.6,4l6.8,14.8h-8l-5.8-13.6h-3.5v13.6h-7.4ZM298.8,125.3h4.2c1.6,0,2.9-.4,3.8-1.2s1.4-2,1.4-3.4-.5-2.8-1.4-3.6-2.2-1.3-3.8-1.3h-4.2v9.6h0Z"/>
      <path class="st0" d="M323,145.3l8.8-36h9.4l8.9,36h-7.5l-1.7-8.1h-8.6l-1.7,8.1h-7.5,0ZM333.5,131.2h6.1l-1.7-8.7c-.2-1.2-.5-2.5-.7-3.7-.2-1.2-.4-2.2-.6-2.9-.1.7-.3,1.7-.5,2.9-.2,1.2-.5,2.4-.7,3.7l-1.8,8.7h0Z"/>
      <path class="st0" d="M358.3,145.3v-36h8.6l9.3,27.9c-.1-1.2-.2-2.6-.4-4.2-.1-1.6-.2-3.2-.3-4.8,0-1.6-.1-2.9-.1-4.1v-14.8h6.5v36h-8.6l-9.2-27.9c.1,1.1.2,2.3.3,3.8.1,1.4.2,2.9.3,4.4,0,1.5.1,2.8.1,3.9v15.8h-6.5,0Z"/>
      <path class="st0" d="M392,145.3v-36h11.7c2.5,0,4.7.5,6.5,1.4s3.3,2.3,4.3,4c1,1.7,1.5,3.8,1.5,6.1v12.9c0,2.3-.5,4.3-1.5,6.1-1,1.8-2.5,3.1-4.3,4.1s-4,1.5-6.5,1.5h-11.7ZM399.4,138.4h4.3c1.5,0,2.7-.4,3.6-1.3.9-.9,1.4-2,1.4-3.4v-12.9c0-1.4-.5-2.5-1.4-3.4s-2.1-1.3-3.6-1.3h-4.3v22.2Z"/>
      <path class="st0" d="M426.4,145.3v-6.4h7.2v-23.2h-7.2v-6.4h21.7v6.4h-7.2v23.2h7.2v6.4h-21.7Z"/>
      <path class="st0" d="M459,145.3v-36h8.6l9.3,27.9c-.1-1.2-.2-2.6-.4-4.2-.1-1.6-.2-3.2-.3-4.8,0-1.6-.1-2.9-.1-4.1v-14.8h6.5v36h-8.6l-9.2-27.9c.1,1.1.2,2.3.3,3.8s.2,2.9.3,4.4c0,1.5.1,2.8.1,3.9v15.8h-6.5,0Z"/>
      <path class="st0" d="M504.6,145.8c-2.4,0-4.5-.4-6.3-1.4-1.8-.9-3.2-2.2-4.2-3.8s-1.5-3.5-1.5-5.7v-15.3c0-2.2.5-4.1,1.5-5.7,1-1.6,2.4-2.9,4.2-3.8,1.8-.9,3.9-1.4,6.3-1.4s4.5.4,6.3,1.4c1.8.9,3.2,2.2,4.2,3.8,1,1.6,1.5,3.5,1.5,5.7h-7.4c0-1.4-.4-2.6-1.2-3.3-.8-.8-2-1.1-3.4-1.1s-2.6.4-3.4,1.1-1.2,1.9-1.2,3.3v15.3c0,1.4.4,2.5,1.2,3.3s2,1.2,3.4,1.2,2.6-.4,3.4-1.2,1.2-1.9,1.2-3.3v-3.1h-5.3v-6.3h12.7v9.4c0,2.2-.5,4.1-1.5,5.7-1,1.6-2.4,2.9-4.2,3.8-1.8.9-3.9,1.4-6.3,1.4h0Z"/>
      <path class="st0" d="M257.8,189.6v-36h11.7c2.5,0,4.7.5,6.5,1.4s3.3,2.3,4.3,4c1,1.7,1.5,3.8,1.5,6.1v12.9c0,2.3-.5,4.3-1.5,6.1-1,1.8-2.5,3.1-4.3,4.1s-4,1.5-6.5,1.5h-11.7ZM265.2,182.7h4.3c1.5,0,2.7-.4,3.6-1.3.9-.9,1.4-2,1.4-3.4v-12.9c0-1.4-.5-2.5-1.4-3.4s-2.1-1.3-3.6-1.3h-4.3v22.2h0Z"/>
      <path class="st0" d="M292.2,189.6v-36h22.2v6.3h-15v8.1h13.2v6.3h-13.2v9h15v6.3h-22.2Z"/>
      <path class="st0" d="M336.6,190.1c-2.5,0-4.7-.4-6.6-1.3-1.9-.9-3.3-2.1-4.3-3.6-1-1.6-1.5-3.4-1.5-5.5h7.4c0,1.2.5,2.2,1.4,2.9s2.2,1.1,3.8,1.1,2.8-.4,3.6-1c.9-.7,1.3-1.6,1.3-2.9s-.3-2-1-2.7c-.7-.8-1.6-1.3-2.8-1.5l-3.6-.8c-3.1-.7-5.4-2.1-7.1-4s-2.5-4.4-2.5-7.2.5-3.9,1.5-5.5c1-1.6,2.3-2.8,4.1-3.6,1.8-.9,3.9-1.3,6.3-1.3,3.7,0,6.6.9,8.8,2.7s3.2,4.3,3.2,7.4h-7.4c0-1.1-.4-2.1-1.2-2.7-.8-.7-2-1-3.5-1s-2.5.3-3.3,1-1.1,1.6-1.1,2.7.3,1.9.9,2.7,1.5,1.2,2.6,1.5l3.9.9c3.2.7,5.6,2,7.3,3.9s2.5,4.3,2.5,7.2-.5,4-1.5,5.6c-1,1.6-2.5,2.9-4.3,3.8-1.9.9-4.1,1.3-6.6,1.3h0s0,0,0,0Z"/>
      <path class="st0" d="M359.3,189.6v-6.4h7.2v-23.2h-7.2v-6.4h21.7v6.4h-7.2v23.2h7.2v6.4h-21.7Z"/>
      <path class="st0" d="M403.9,190.1c-2.4,0-4.5-.4-6.3-1.4-1.8-.9-3.2-2.2-4.2-3.8s-1.5-3.5-1.5-5.7v-15.3c0-2.2.5-4.1,1.5-5.7,1-1.6,2.4-2.9,4.2-3.8,1.8-.9,3.9-1.4,6.3-1.4s4.5.4,6.3,1.4c1.8.9,3.2,2.2,4.2,3.8,1,1.6,1.5,3.5,1.5,5.7h-7.4c0-1.4-.4-2.6-1.2-3.3s-2-1.1-3.4-1.1-2.6.4-3.4,1.1-1.2,1.9-1.2,3.3v15.3c0,1.4.4,2.5,1.2,3.3s2,1.2,3.4,1.2,2.6-.4,3.4-1.2,1.2-1.9,1.2-3.3v-3.1h-5.3v-6.3h12.7v9.4c0,2.2-.5,4.1-1.5,5.7-1,1.6-2.4,2.9-4.2,3.8-1.8.9-3.9,1.4-6.3,1.4h0Z"/>
      <path class="st0" d="M425.4,189.6v-36h8.6l9.3,27.9c-.1-1.2-.2-2.6-.4-4.2-.1-1.6-.2-3.2-.3-4.8,0-1.6-.1-2.9-.1-4.1v-14.8h6.5v36h-8.6l-9.2-27.9c.1,1.1.2,2.3.3,3.8s.2,2.9.3,4.4.1,2.8.1,3.9v15.8h-6.5,0Z"/>
      <path class="st0" d="M460,189.6v-36h22.2v6.3h-15v8.1h13.2v6.3h-13.2v9h15v6.3h-22.2Z"/>
      <path class="st0" d="M492.8,189.6v-36h11.6c2.6,0,4.8.4,6.7,1.3s3.3,2.2,4.4,3.8c1,1.6,1.5,3.6,1.5,5.8s-.6,4.4-1.7,6.3c-1.1,1.8-2.7,3.2-4.6,4l6.8,14.8h-8l-5.8-13.6h-3.5v13.6h-7.4ZM500.2,169.6h4.2c1.6,0,2.9-.4,3.8-1.2.9-.8,1.4-2,1.4-3.4s-.5-2.8-1.4-3.6-2.2-1.3-3.8-1.3h-4.2v9.6h0Z"/>
    </g>
  </g>
</svg>