<?xml version="1.0" encoding="utf-8"?>
<!-- Generator: Adobe Illustrator 28.0.0, SVG Export Plug-In . SVG Version: 6.00 Build 0)  -->
<svg version="1.1" id="Layer_2_00000173154166542359965310000013970143190485560465_"
	 xmlns="http://www.w3.org/2000/svg" xmlns:xlink="http://www.w3.org/1999/xlink" x="0px" y="0px" viewBox="0 0 135.6 290.5"
	 style="enable-background:new 0 0 135.6 290.5;" xml:space="preserve">
<style type="text/css">
	.st0{fill:#F15B4E;}
	.st1{fill:#36657C;}
	.st2{fill:#FFFFFF;}
</style>
<g id="_2_Colour">
	<g>
		<path class="st0" d="M60.4,289.3c-19.9,0-32.3-2.3-39.2-4.3c-8.1-2.3-13.2-5.3-13.9-8.2C-10.2,200.5,14.4,115,20,101.4
			c1.7-4.1,3.4-7.2,5.2-9.1c4.2,8.5,9.8,10.3,17.4,10.3c1.6,0,3.2-0.1,4.9-0.1c1.9-0.1,3.8-0.2,5.8-0.2c8.6,0,26.2-3.4,30.5-11.1
			c2.8,2.3,4.7,6.6,4.8,9.8v0.1l0,0.1c21.3,90.6,24.9,153.9,22.1,174.6C108.8,281.1,93.4,289.3,60.4,289.3L60.4,289.3z"/>
		<path class="st0" d="M84.1,93.1c1.8,2.1,3.3,5.3,3.4,8v0.2l0.1,0.2c21.2,90.2,24.8,153.3,22.1,174c-1.8,4.2-15.9,12.6-49.3,12.6
			c-37,0-51.2-7.9-51.9-11.5c-9-39.3-6.4-80.9-2.5-108.9c4.3-31.5,11.6-57.1,15.1-65.8c1.3-3.1,2.6-5.6,3.8-7.4
			c4.4,7.7,10.3,9.4,17.7,9.4c1.6,0,3.2-0.1,5-0.1c1.8-0.1,3.8-0.2,5.8-0.2C60,103.5,78,101,84.1,93.1 M83.4,89.4
			c-2.7,8.2-21.5,11.7-30,11.7c-3.9,0-7.5,0.3-10.8,0.3c-7.3,0-12.9-1.5-17-11.1c-2.1,1.6-4.3,4.8-6.7,10.6
			c-6.7,16.4-29.8,101.8-12.7,176.2c1.3,6.4,19.8,13.4,54.2,13.4s49.6-8.7,51.6-14.4c2.8-20.4-0.7-84.1-22.1-175.1
			C89.7,96.9,87,91.5,83.4,89.4L83.4,89.4L83.4,89.4z"/>
	</g>
	<g>
		<path class="st1" d="M54.5,107c-9.2,0-21.8-4.3-27.4-16.3c0.8-0.5,1.7-0.7,2.5-0.7c1.6,0,3.1,0.8,4.6,1.5c0.3,0.2,0.7,0.3,1,0.5
			c0.9,0.4,2,1,3.2,1.6c4.5,2.3,10.2,5.2,14.7,5.2c10.4,0,18.5-2.5,23.6-7.4c1.2-1.1,2.4-1.7,3.7-1.7c0.5,0,1,0.1,1.6,0.3
			c-1.6,3.3-5.7,7.3-11.4,10.9C64.6,104.6,58.3,107.1,54.5,107L54.5,107z"/>
		<path class="st1" d="M80,90.9c-1.9,2.8-5.5,6-10.1,9c-5.7,3.6-11.8,6-15.4,6c-8.6,0-20.2-3.9-25.8-14.5c0.3-0.1,0.6-0.1,0.9-0.1
			c1.3,0,2.7,0.7,4,1.4c0.3,0.2,0.7,0.3,1,0.5c0.9,0.4,2,1,3.2,1.6C42.5,97,48.3,100,53,100c10.7,0,19.1-2.7,24.4-7.7
			C78.3,91.5,79.1,91,80,90.9 M80.3,88.5c-1.5,0-3,0.6-4.5,2c-6.7,6.4-17.4,7-22.8,7S40,92.9,35.6,90.9c-1.8-0.8-3.8-2.1-6.1-2.1
			c-1.3,0-2.6,0.4-4,1.5c6,14,20.1,17.9,28.9,17.9s26.2-10.6,28.9-18.8C82.4,88.8,81.4,88.5,80.3,88.5L80.3,88.5L80.3,88.5z"/>
	</g>
	<g>
		<path class="st0" d="M52,77.9c-19.9,0-47.9-12.1-47.9-39c0-14.6,6.2-25.2,18.4-31.4C33.1,2,45.5,1.2,52,1.2
			c11.3,0,25.6,4,31.7,15.2c0.5,0.7,0.6,1.2,0.5,1.6c-0.2,0.8-1.5,1.6-3,2.6c-4.2,2.7-10.6,6.8-10.6,18.9c0,13.2,7.7,15.7,12.2,17.2
			c1,0.3,2.6,0.9,2.7,1.2c0,0,0,0.2-0.2,0.6l-0.1,0.2l0,0.2C84.4,70.8,72,77.8,52,77.9L52,77.9z"/>
		<path class="st0" d="M52,2.4c11,0,24.8,3.8,30.7,14.6l0,0.1l0,0.1c0.2,0.3,0.3,0.5,0.3,0.6c-0.3,0.4-1.5,1.2-2.5,1.8
			c-4.2,2.7-11.2,7.1-11.2,19.9c0,14,8.5,16.9,13,18.4c0.5,0.2,1.2,0.4,1.6,0.6l0,0l0,0.5c-0.2,3.2-1.6,7.8-6.8,11.5
			c-5.6,4.1-14.1,6.1-25.2,6.1c-8,0-20.2-2.3-30.3-8.8C14.2,63,5.3,54,5.3,38.8C5.3,5.9,38,2.4,52,2.4 M52,0C37.3,0,2.9,4,2.9,38.8
			C2.9,67.9,33.3,79,52,79c25.8,0,33.7-10.9,34.4-19.9c2.9-5.7-14.6-0.1-14.6-19.6s17.3-17,13-23.7C77.7,2.9,61.4,0,52,0L52,0z"/>
	</g>
	<g>
		<path class="st2" d="M41.3,46.8c-6.6,0-13.2-3.6-19.4-10.6c-0.2-0.2-0.3-0.4-0.4-0.5l-0.2-0.2c-1-1.1-1.4-1.4-0.2-3.6
			c0.1-0.1,8-14.9,20.2-14.9c6.8,0,17.5,6.9,20.7,13.4l0,0.1l0,0.1c0.8,1.2,1.3,1.9-0.5,4.2C59,38.4,51.6,46.8,41.3,46.8L41.3,46.8z
			"/>
		<path class="st1" d="M41.3,18.2c6.3,0,16.6,6.7,19.7,12.8l0.1,0.1l0.1,0.1c0.7,1,0.8,1.3-0.4,2.9c-2.6,3.5-9.7,11.5-19.4,11.5
			c-6.3,0-12.5-3.4-18.5-10.2c-0.2-0.2-0.3-0.4-0.4-0.5l-0.2-0.2c-0.2-0.2-0.6-0.6-0.6-0.7c0,0,0-0.4,0.6-1.5
			c0.9-1.6,3.2-5.2,6.4-8.3C32.7,20.2,37,18.2,41.3,18.2 M41.3,15.9c-11.6,0-19.7,12.6-21.3,15.6s-0.7,3.8,0.6,5.1S29.9,48,41.3,48
			s19.3-9.8,21.3-12.5s1.6-3.9,0.5-5.6C59.8,23.2,48.7,15.8,41.3,15.9L41.3,15.9L41.3,15.9z"/>
	</g>
	<g>
		<path class="st1" d="M51.3,41.7c-5.6,0-12.3-1.7-12.6-9.8c-0.1-3,0.6-5.3,2.2-6.9c2.4-2.5,6.2-3,9-3c1.3,0,2.2,0.1,2.5,0.1
			c5.3,1.5,8,8.8,8.7,10.9L54,41.5C53.5,41.6,52.5,41.7,51.3,41.7L51.3,41.7L51.3,41.7z"/>
		<path class="st1" d="M49.9,23.2c1.1,0,2,0.1,2.2,0.1c4,1.2,6.6,6.5,7.6,9.4l-6.4,7.7c-0.5,0.1-1.2,0.1-2.1,0.1
			c-7.4,0-11.2-2.9-11.4-8.6c-0.1-2.7,0.5-4.6,1.9-6.1C44,23.5,47.8,23.2,49.9,23.2 M49.9,20.8c-4.5,0-12.7,1.3-12.4,11.1
			c0.3,9.6,8.9,10.9,13.8,10.9c2,0,3.3-0.2,3.3-0.2l7.8-9.4c0,0-2.8-10.3-9.8-12.3C52.7,21,51.5,20.8,49.9,20.8L49.9,20.8L49.9,20.8
			z"/>
	</g>
	<g>
		<path class="st1" d="M97.9,53.2c-10.3,0-16.4-2.4-18.7-7.2c-1.9-3.7-1.6-5-1.3-5.4c0.3-0.5,1.2-0.8,2.6-0.8c0.7,0,1.3,0.1,2,0.1
			c0.6,0,1.1,0.1,1.5,0.1h48.9c1,0,1.4,0.1,1.6,0.2c-0.2,0.4-1,1.5-3.6,3.2c-4.3,2.8-13.4,8.5-27.2,9.6
			C101.6,53.2,99.6,53.2,97.9,53.2L97.9,53.2z"/>
		<path class="st1" d="M80.5,41c0.6,0,1.2,0.1,1.9,0.1c0.6,0,1.1,0.1,1.6,0.1h48c-0.4,0.3-1,0.8-1.7,1.2c-4.3,2.7-13.1,8.4-26.6,9.5
			c-2.1,0.1-4,0.2-5.8,0.2c-9.8,0-15.6-2.1-17.6-6.5l0-0.1l0,0c-1.5-2.9-1.4-4-1.3-4.2C79,41.2,79.4,41,80.5,41 M80.5,38.6
			c-3,0-5.9,1-2.4,7.9c2.8,6,10.3,7.9,19.8,7.9c1.9,0,3.9-0.1,5.9-0.2c13.6-1.1,22.8-6.7,27.7-9.8c4.9-3.1,5.6-5.6,1.3-5.6H83.9
			C83.1,38.8,81.7,38.7,80.5,38.6L80.5,38.6L80.5,38.6z"/>
	</g>
	<g>
		<path class="st1" d="M78.1,35.2c-0.1,0-0.3,0-0.4-0.4c-0.4-1.4,1-5.5,7.8-9.8c2.9-1.5,6.4-2.2,10-2.2c2,0,4,0.2,6.1,0.7l1.3,0.3
			c6.1,1.4,17.6,4,25.6,7.8c3.8,1.8,5.2,2.9,5.6,3.4c-0.3,0.1-0.9,0.2-1.8,0.2L78.1,35.2L78.1,35.2z"/>
		<path class="st1" d="M95.6,24c1.9,0,3.9,0.2,5.8,0.7l1.3,0.3c6.1,1.4,17.5,3.9,25.3,7.7c1.1,0.5,1.9,1,2.6,1.4H78.9
			c0.2-1.4,1.9-4.6,7.3-7.9C88.9,24.7,92.2,24,95.6,24 M95.6,21.6c-3.7,0-7.4,0.8-10.6,2.4c-9.7,6-9.7,12.4-6.9,12.4h54.3
			c4.2,0,5.4-1.7-3.3-5.9c-8.7-4.2-21.3-6.9-27.1-8.2C99.8,21.8,97.6,21.6,95.6,21.6L95.6,21.6L95.6,21.6z"/>
	</g>
</g>
</svg>
