<?xml version="1.0" encoding="UTF-8"?>
<svg id="Layer_2" data-name="Layer 2" xmlns="http://www.w3.org/2000/svg" viewBox="0 0 808.9 191.2">
  <defs>
    <style>
      .cls-1 {
        fill: #f26f6c;
      }

      .cls-2 {
        fill: #605039;
      }

      .cls-3 {
        fill: #605039;
      }
    </style>
  </defs>
  <g>
    <path class="cls-1" d="M264.3,24.7c3.4-1.9,7.4-2.9,12.2-2.9s10.8,1.5,15.3,4.4c4.5,3,8.1,7.3,10.8,12.9,2.6,5.6,3.9,12.2,3.9,19.9s-1.3,14.3-3.9,19.9-6.2,9.9-10.8,12.9c-4.5,3-9.6,4.4-15.3,4.4s-8.8-1-12.2-2.9c-3.4-1.9-6-4.6-7.8-7.9v9.9h-28.6V0h28.6v32.5c1.8-3.4,4.4-6,7.8-7.9h0v.1ZM274.5,49.9c-2-2.2-4.5-3.2-7.6-3.2s-5.6,1.1-7.6,3.2-3,5.1-3,9,1,6.9,3,9c2,2.2,4.5,3.2,7.6,3.2s5.6-1.1,7.6-3.2,3-5.2,3-9-1-6.9-3-9Z"/>
    <path class="cls-1" d="M354.3,25.9c4.2-2.5,8.6-3.8,13.1-3.8v30.5h-8.1c-5.4,0-9.4.9-11.9,2.8-2.5,1.9-3.8,5.2-3.8,10v29.7h-28.6V22.7h28.6v13.4c2.9-4.2,6.5-7.6,10.7-10.1h0v-.1Z"/>
    <path class="cls-1" d="M449.9,64h-45.9c.4,6.3,3,9.4,7.9,9.4s5.3-1.4,6.7-4.2h30.2c-1,5.1-3.2,9.8-6.5,13.8-3.3,4.1-7.5,7.3-12.5,9.7-5,2.4-10.5,3.5-16.5,3.5s-13.6-1.5-19.2-4.5-10-7.3-13.1-12.9-4.7-12.2-4.7-19.8,1.6-14.1,4.7-19.8c3.1-5.6,7.5-9.9,13.1-12.9s12-4.5,19.2-4.5,13.6,1.5,19.2,4.4c5.6,3,10,7.2,13.1,12.7s4.7,12,4.7,19.4-.1,3.9-.4,5.7h0ZM421.3,51.5c0-2.4-.8-4.2-2.3-5.5-1.5-1.2-3.5-1.9-5.8-1.9-5.1,0-8,2.4-8.9,7.3h17v.1Z"/>
    <path class="cls-1" d="M529.3,30.5c4.7,5.6,7,13.1,7,22.6v42.1h-28.4v-38.5c0-3.4-.9-6.2-2.8-8.2-1.8-2-4.3-3-7.4-3s-5.7,1-7.5,3-2.7,4.7-2.7,8.2v38.5h-28.6V22.7h28.6v11.1c2.2-3.4,5.2-6.2,8.9-8.4,3.7-2.1,8.2-3.2,13.3-3.2,8.3,0,14.8,2.8,19.5,8.4h0l.1-.1Z"/>
    <path class="cls-1" d="M548.9,39.1c2.6-5.6,6.2-9.9,10.7-12.9s9.7-4.4,15.3-4.4,8.8,1,12.2,2.9,6,4.6,7.8,7.9V0h28.6v95.2h-28.6v-9.9c-1.8,3.3-4.4,6-7.8,7.9-3.4,1.9-7.4,2.9-12.2,2.9s-10.8-1.5-15.3-4.4-8.1-7.2-10.7-12.9c-2.6-5.6-3.9-12.2-3.9-19.9s1.3-14.3,3.9-19.9h0v.1ZM592.1,49.9c-2-2.2-4.5-3.2-7.6-3.2s-5.6,1.1-7.6,3.2-3,5.1-3,9,1,6.9,3,9c2,2.2,4.5,3.2,7.6,3.2s5.6-1.1,7.6-3.2c2-2.2,3-5.2,3-9s-1-6.9-3-9Z"/>
    <path class="cls-1" d="M636.1,39.1c2.6-5.6,6.2-9.9,10.7-12.9s9.7-4.4,15.3-4.4,8.8,1,12.2,2.9,6,4.6,7.8,7.9v-9.9h28.4v72.6h-28.4v-9.9c-1.8,3.3-4.4,6-7.8,7.9-3.4,1.9-7.5,2.9-12.2,2.9s-10.8-1.5-15.3-4.4-8.1-7.2-10.7-12.9c-2.6-5.6-3.9-12.2-3.9-19.9s1.3-14.3,3.9-19.9h0ZM679.3,49.9c-2-2.2-4.5-3.2-7.6-3.2s-5.6,1.1-7.6,3.2-3,5.1-3,9,1,6.9,3,9c2,2.2,4.5,3.2,7.6,3.2s5.6-1.1,7.6-3.2c2-2.2,3-5.2,3-9s-1-6.9-3-9Z"/>
    <path class="cls-1" d="M789.7,30.5c4.7,5.6,7,13.1,7,22.6v42.1h-28.4v-38.5c0-3.4-.9-6.2-2.8-8.2-1.8-2-4.3-3-7.4-3s-5.7,1-7.5,3-2.7,4.7-2.7,8.2v38.5h-28.6V22.7h28.6v11.1c2.2-3.4,5.2-6.2,8.9-8.4,3.7-2.1,8.2-3.2,13.3-3.2,8.3,0,14.8,2.8,19.5,8.4h0l.1-.1Z"/>
    <path class="cls-1" d="M578,125.4c-4.7-5.6-11.2-8.4-19.5-8.4s-9.6,1.1-13.3,3.2-6.7,4.9-8.9,8.3v-33.7h-28.4v95.2h28.4v-38.5c0-3.4.9-6.1,2.7-8.2,1.8-2,4.3-3,7.5-3s5.5,1,7.4,3c1.8,2,2.8,4.7,2.8,8.2v38.5h28.4v-42.1c0-9.5-2.3-17.1-7-22.6h0l-.1.1Z"/>
    <path class="cls-1" d="M672.4,117.6v72.6h-28.6v-11.1c-2.2,3.4-5.2,6.2-8.9,8.4s-8.2,3.2-13.3,3.2c-8.3,0-14.8-2.8-19.5-8.4-4.7-5.6-7-13.1-7-22.6v-42.1h28.4v38.5c0,3.4.9,6.2,2.8,8.2,1.8,2,4.3,3,7.4,3s5.7-1,7.5-3,2.7-4.7,2.7-8.2v-38.5h28.6-.1Z"/>
    <path class="cls-1" d="M808.9,165.8v24.3h-10.8c-19.9,0-29.8-9.9-29.8-29.7v-19h-9v-23.8h9v-22.4h28.6v22.4h11.8v23.8h-11.8v19.6c0,1.7.4,2.9,1.2,3.7s2.2,1.2,4,1.2h6.8v-.1Z"/>
    <path class="cls-1" d="M722,120.1c4.2-2.6,21-3.8,25.7-3.8v30.9h-20.6c-5.5,0-9.5,1-12,2.9-2.6,1.9-3.8,5.3-3.8,10.2v30.1h-28.9v-73.4h28.9v13.5c3-4.2,6.5-7.7,10.8-10.2h0l-.1-.2Z"/>
    <g>
      <path class="cls-2" d="M227.9,145.3v-36h11.6c3.6,0,6.6.8,8.7,2.5,2.2,1.7,3.3,3.9,3.3,6.7s-.4,3-1.1,4.2c-.7,1.2-1.7,2.1-3,2.8-1.2.7-2.6,1-4,1v.2c1.6,0,3.1.3,4.4.9,1.3.6,2.4,1.6,3.2,2.8s1.2,2.8,1.2,4.6-.5,3.9-1.5,5.5-2.4,2.8-4.3,3.6-4,1.3-6.6,1.3h-12.1l.2-.1ZM235,123.8h4.3c1.4,0,2.6-.4,3.4-1.2.8-.8,1.2-1.8,1.2-3.1s-.4-2.4-1.2-3.1-2-1.1-3.4-1.1h-4.3v8.5h0ZM235,139.3h4.6c1.6,0,2.9-.4,3.8-1.3s1.4-2,1.4-3.6-.5-2.7-1.4-3.6-2.2-1.3-3.8-1.3h-4.6v9.8Z"/>
      <path class="cls-2" d="M261.4,145.3v-36h11.6c2.6,0,4.8.4,6.7,1.3s3.3,2.2,4.4,3.8c1,1.7,1.5,3.6,1.5,5.8s-.6,4.4-1.7,6.3c-1.1,1.8-2.7,3.2-4.6,4l6.8,14.8h-8l-5.8-13.6h-3.5v13.6h-7.4ZM268.8,125.3h4.2c1.6,0,2.9-.4,3.8-1.2s1.4-2,1.4-3.4-.5-2.8-1.4-3.6-2.2-1.3-3.8-1.3h-4.2v9.6h0v-.1Z"/>
      <path class="cls-2" d="M293,145.3l8.8-36h9.4l8.9,36h-7.5l-1.7-8.1h-8.6l-1.7,8.1h-7.6ZM303.5,131.2h6.1l-1.7-8.7c-.2-1.2-.5-2.5-.7-3.7s-.4-2.2-.6-2.9c-.1.7-.3,1.7-.5,2.9-.2,1.2-.5,2.4-.7,3.7l-1.8,8.7h-.1Z"/>
      <path class="cls-2" d="M328.3,145.3v-36h8.6l9.3,27.9c-.1-1.2-.2-2.6-.4-4.2-.1-1.6-.2-3.2-.3-4.8s-.1-2.9-.1-4.1v-14.8h6.5v36h-8.6l-9.2-27.9c.1,1.1.2,2.3.3,3.8s.2,2.9.3,4.4.1,2.8.1,3.9v15.8h-6.5,0Z"/>
      <path class="cls-2" d="M362,145.3v-36h11.7c2.5,0,4.7.5,6.5,1.4s3.3,2.3,4.3,4,1.5,3.8,1.5,6.1v12.9c0,2.3-.5,4.3-1.5,6.1s-2.5,3.1-4.3,4.1-4,1.5-6.5,1.5h-11.7v-.1ZM369.4,138.4h4.3c1.5,0,2.7-.4,3.6-1.3.9-.9,1.4-2,1.4-3.4v-12.9c0-1.4-.5-2.5-1.4-3.4s-2.1-1.3-3.6-1.3h-4.3v22.3Z"/>
      <path class="cls-2" d="M396.4,145.3v-6.4h7.2v-23.2h-7.2v-6.4h21.7v6.4h-7.2v23.2h7.2v6.4h-21.7Z"/>
      <path class="cls-2" d="M429,145.3v-36h8.6l9.3,27.9c-.1-1.2-.2-2.6-.4-4.2-.1-1.6-.2-3.2-.3-4.8s-.1-2.9-.1-4.1v-14.8h6.5v36h-8.6l-9.2-27.9c.1,1.1.2,2.3.3,3.8s.2,2.9.3,4.4.1,2.8.1,3.9v15.8h-6.5,0Z"/>
      <path class="cls-2" d="M474.6,145.8c-2.4,0-4.5-.4-6.3-1.4-1.8-.9-3.2-2.2-4.2-3.8s-1.5-3.5-1.5-5.7v-15.3c0-2.2.5-4.1,1.5-5.7s2.4-2.9,4.2-3.8c1.8-.9,3.9-1.4,6.3-1.4s4.5.4,6.3,1.4c1.8.9,3.2,2.2,4.2,3.8,1,1.6,1.5,3.5,1.5,5.7h-7.4c0-1.4-.4-2.6-1.2-3.3s-2-1.1-3.4-1.1-2.6.4-3.4,1.1-1.2,1.9-1.2,3.3v15.3c0,1.4.4,2.5,1.2,3.3s2,1.2,3.4,1.2,2.6-.4,3.4-1.2,1.2-1.9,1.2-3.3v-3.1h-5.3v-6.3h12.7v9.4c0,2.2-.5,4.1-1.5,5.7-1,1.6-2.4,2.9-4.2,3.8s-3.9,1.4-6.3,1.4h0Z"/>
      <path class="cls-2" d="M227.7,189.6v-36h11.7c2.5,0,4.7.5,6.5,1.4s3.3,2.3,4.3,4,1.6,3.8,1.6,6.1v12.9c0,2.3-.5,4.3-1.6,6.1-1,1.8-2.5,3.1-4.3,4.1s-4,1.5-6.5,1.5h-11.7v-.1ZM235.1,182.7h4.3c1.5,0,2.7-.4,3.6-1.3s1.4-2,1.4-3.4v-12.9c0-1.4-.5-2.5-1.4-3.4s-2.1-1.3-3.6-1.3h-4.3v22.2h0v.1Z"/>
      <path class="cls-2" d="M262.1,189.6v-36h22.2v6.3h-15v8.1h13.2v6.3h-13.2v9h15v6.3h-22.2Z"/>
      <path class="cls-2" d="M306.6,190.1c-2.5,0-4.7-.4-6.6-1.3-1.9-.9-3.3-2.1-4.3-3.6-1-1.6-1.5-3.4-1.5-5.5h7.4c0,1.2.5,2.2,1.4,2.9s2.2,1.1,3.8,1.1,2.8-.4,3.6-1,1.3-1.6,1.3-2.9-.3-2-1-2.7c-.7-.8-1.6-1.3-2.8-1.5l-3.6-.8c-3.1-.7-5.4-2.1-7.1-4s-2.5-4.4-2.5-7.2.5-3.9,1.5-5.5,2.3-2.8,4.1-3.6c1.8-.9,3.9-1.3,6.3-1.3,3.7,0,6.6.9,8.8,2.7s3.2,4.3,3.2,7.4h-7.4c0-1.1-.4-2.1-1.2-2.7-.8-.7-2-1-3.5-1s-2.5.3-3.3,1-1.1,1.6-1.1,2.7.3,1.9.9,2.7,1.5,1.2,2.6,1.5l3.9.9c3.2.7,5.6,2,7.3,3.9s2.5,4.3,2.5,7.2-.5,4-1.5,5.6-2.5,2.9-4.3,3.8c-1.9.9-4.1,1.3-6.6,1.3h0l-.3-.1Z"/>
      <path class="cls-2" d="M329.3,189.6v-6.4h7.2v-23.2h-7.2v-6.4h21.7v6.4h-7.2v23.2h7.2v6.4h-21.7Z"/>
      <path class="cls-2" d="M373.9,190.1c-2.4,0-4.5-.4-6.3-1.4-1.8-.9-3.2-2.2-4.2-3.8s-1.5-3.5-1.5-5.7v-15.3c0-2.2.5-4.1,1.5-5.7,1-1.6,2.4-2.9,4.2-3.8s3.9-1.4,6.3-1.4,4.5.4,6.3,1.4c1.8.9,3.2,2.2,4.2,3.8s1.5,3.5,1.5,5.7h-7.4c0-1.4-.4-2.6-1.2-3.3s-2-1.1-3.4-1.1-2.6.4-3.4,1.1-1.2,1.9-1.2,3.3v15.3c0,1.4.4,2.5,1.2,3.3s2,1.2,3.4,1.2,2.6-.4,3.4-1.2,1.2-1.9,1.2-3.3v-3.1h-5.3v-6.3h12.7v9.4c0,2.2-.5,4.1-1.5,5.7-1,1.6-2.4,2.9-4.2,3.8s-3.9,1.4-6.3,1.4h0Z"/>
      <path class="cls-2" d="M395.4,189.6v-36h8.6l9.3,27.9c-.1-1.2-.2-2.6-.4-4.2-.1-1.6-.2-3.2-.3-4.8s-.1-2.9-.1-4.1v-14.8h6.5v36h-8.6l-9.2-27.9c.1,1.1.2,2.3.3,3.8s.2,2.9.3,4.4.1,2.8.1,3.9v15.8h-6.5,0Z"/>
      <path class="cls-2" d="M430,189.6v-36h22.2v6.3h-15v8.1h13.2v6.3h-13.2v9h15v6.3h-22.2Z"/>
      <path class="cls-2" d="M462.8,189.6v-36h11.6c2.6,0,4.8.4,6.7,1.3s3.3,2.2,4.4,3.8c1,1.6,1.5,3.6,1.5,5.8s-.6,4.4-1.7,6.3c-1.1,1.8-2.7,3.2-4.6,4l6.8,14.8h-8l-5.8-13.6h-3.5v13.6h-7.4ZM470.1,169.6h4.2c1.6,0,2.9-.4,3.8-1.2s1.4-2,1.4-3.4-.5-2.8-1.4-3.6-2.2-1.3-3.8-1.3h-4.2v9.6h0v-.1Z"/>
    </g>
  </g>
  <path class="cls-2" d="M71.8,90.2l-.2-.2.2.2Z"/>
  <path class="cls-3" d="M143.8,0v20.95l-38.95,14.68C106.6,15.67,123.38,0,143.8,0Z"/>
  <path class="cls-3" d="M153.47,67.29h0c-3.31,0-6.55.33-9.67.96v-24.79l-20.26,9.92c-5.66,2.77-10.41,7.06-13.75,12.41s-5.1,11.5-5.1,17.81v51.24h0c-.04,16.23-.08,29.15-.08,29.82h39.19v-49.11c0-5.29,4.29-9.58,9.58-9.58h0c5.29,0,9.58,4.29,9.58,9.58v49.05h39.24v-48.58c0-26.91-21.82-48.73-48.73-48.73Z"/>
  <path class="cls-1" d="M201.11,5.49L54.4,62.32c-9.88,3.85-15.24,9.72-15.24,9.72V.11C17.52.11-.01,16.21,0,36.07l.05,67.82L0,103.85v42.63C0,156.71,8.3,165.02,18.54,165.02c3.72,0,7.17-1.1,10.07-2.98,1.06-.69,2.05-1.48,2.94-2.36-3.29,3.34-5.32,7.92-5.32,12.98,0,10.24,8.3,18.54,18.54,18.54,5.3,0,10.07-2.22,13.44-5.78.37-.37,27.5-31.56,27.5-31.56,7.27-8.5,11.65-19.54,11.65-31.6v-38.66c0-15.64,8.9-29.91,22.95-36.79L201.74,6.95c.91-.44.31-1.81-.63-1.45ZM76.31,121.09c-7.44,8.67-22,8.42-29.72,7.6v-.03h0c-3.12-.35-5.67-2.73-6.3-5.97-1.57-7.97-3.23-23.17,4.22-31.81,3.12-3.66,7.58-5.69,12.2-6.79-3.74,3.27-6.14,8.11-6.12,13.58,0,9.76,7.58,17.7,16.9,17.7s11-3.18,14.05-7.94c-.56,5.01-2.03,9.94-5.24,13.65Z"/>
</svg>