<svg id="eIHOKbcjCSo1" xmlns="http://www.w3.org/2000/svg" xmlns:xlink="http://www.w3.org/1999/xlink" viewBox="0 0 808.94 191.17" shape-rendering="geometricPrecision" text-rendering="geometricPrecision" project-id="a5a94c936b1747d99cd704dc717e478d" export-id="73c840f5e6d54b18b5d609e1775b9552" cached="false"><g><g><path d="M264.29,24.64c3.39-1.93,7.44-2.89,12.16-2.89c5.66,0,10.76,1.48,15.31,4.43c4.55,2.96,8.13,7.26,10.75,12.87c2.61,5.62,3.92,12.25,3.92,19.88s-1.31,14.26-3.92,19.87c-2.62,5.62-6.2,9.9-10.75,12.87-4.54,2.96-9.65,4.44-15.31,4.44-4.72,0-8.77-.96-12.16-2.89-3.39-1.94-5.98-4.58-7.78-7.92v9.9h-28.56v-95.2h28.56v32.55c1.8-3.35,4.39-5.99,7.78-7.92v0v.01Zm10.23,25.28c-1.97-2.15-4.5-3.22-7.59-3.22s-5.62,1.08-7.59,3.22-2.96,5.14-2.96,9s.98,6.86,2.96,9c1.97,2.15,4.51,3.21,7.59,3.21s5.62-1.07,7.59-3.21s2.96-5.15,2.96-9-.99-6.87-2.96-9Z" fill="#f26f6c"/><path d="M354.36,25.92c4.2-2.53,8.58-3.8,13.12-3.8v30.5h-8.1c-5.4,0-9.37.94-11.9,2.83-2.53,1.88-3.8,5.23-3.8,10.03v29.72h-28.56v-72.55h28.56v13.38c2.91-4.21,6.48-7.57,10.67-10.1h.01v0-.01Z" fill="#f26f6c"/><path d="M449.91,63.94h-45.93c.43,6.26,3.04,9.39,7.85,9.39c3.09,0,5.32-1.41,6.69-4.24h30.23c-1.03,5.14-3.19,9.76-6.5,13.82-3.3,4.08-7.46,7.3-12.48,9.65-5.01,2.37-10.53,3.54-16.53,3.54-7.2,0-13.62-1.5-19.23-4.5-5.62-3-9.99-7.31-13.12-12.93-3.14-5.61-4.7-12.2-4.7-19.75s1.56-14.13,4.7-19.75c3.13-5.62,7.5-9.94,13.12-12.93c5.62-3,12.03-4.5,19.23-4.5s13.62,1.48,19.24,4.43c5.61,2.96,9.99,7.19,13.12,12.68s4.7,11.97,4.7,19.42c0,1.98-.13,3.86-.38,5.66h-.01v.01ZM421.35,51.46c0-2.4-.77-4.22-2.32-5.47-1.54-1.25-3.47-1.86-5.79-1.86-5.06,0-8.02,2.44-8.87,7.33h16.98Z" fill="#f26f6c"/><path d="M529.31,30.49c4.67,5.58,7.01,13.13,7.01,22.65v42.07h-28.43v-38.47c0-3.43-.93-6.16-2.77-8.17-1.84-2.02-4.31-3.03-7.4-3.03s-5.66,1.01-7.46,3.03c-1.8,2.01-2.7,4.73-2.7,8.17v38.47h-28.56v-72.56h28.56v11.06c2.23-3.42,5.21-6.22,8.94-8.35c3.73-2.15,8.17-3.22,13.31-3.22c8.32,0,14.81,2.8,19.49,8.37v-.02h.01Z" fill="#f26f6c"/><path d="M548.95,39.04c2.62-5.61,6.2-9.9,10.74-12.87c4.54-2.95,9.65-4.43,15.31-4.43c4.72,0,8.77.96,12.16,2.89s5.98,4.56,7.78,7.92v-32.55h28.56v95.2h-28.56v-9.9c-1.8,3.34-4.4,5.98-7.78,7.92-3.39,1.93-7.44,2.89-12.16,2.89-5.66,0-10.77-1.48-15.31-4.44s-8.12-7.24-10.74-12.87c-2.62-5.61-3.92-12.24-3.92-19.87s1.3-14.26,3.92-19.88v0-.01Zm43.16,10.88c-1.97-2.15-4.5-3.22-7.59-3.22s-5.62,1.08-7.59,3.22-2.96,5.14-2.96,9s.98,6.86,2.96,9c1.97,2.15,4.51,3.21,7.59,3.21s5.62-1.07,7.59-3.21c1.97-2.15,2.96-5.15,2.96-9s-.99-6.87-2.96-9Z" fill="#f26f6c"/><path d="M636.13,39.04c2.62-5.61,6.2-9.9,10.74-12.87c4.54-2.95,9.65-4.43,15.31-4.43c4.72,0,8.79.96,12.22,2.89s6.05,4.56,7.85,7.92v-9.9h28.43v72.55h-28.43v-9.9c-1.8,3.34-4.42,5.98-7.85,7.92-3.43,1.93-7.5,2.89-12.22,2.89-5.66,0-10.77-1.48-15.31-4.44s-8.12-7.24-10.74-12.87c-2.62-5.61-3.92-12.24-3.92-19.87s1.3-14.26,3.92-19.88v0-.01Zm43.16,10.88c-1.97-2.15-4.5-3.22-7.59-3.22s-5.62,1.08-7.59,3.22-2.96,5.14-2.96,9s.98,6.86,2.96,9c1.97,2.15,4.51,3.21,7.59,3.21s5.62-1.07,7.59-3.21c1.97-2.15,2.96-5.15,2.96-9s-.99-6.87-2.96-9Z" fill="#f26f6c"/><path d="M789.7,30.49c4.67,5.58,7.01,13.13,7.01,22.65v42.07h-28.43v-38.47c0-3.43-.93-6.16-2.77-8.17-1.84-2.02-4.31-3.03-7.4-3.03s-5.66,1.01-7.46,3.03c-1.8,2.01-2.7,4.73-2.7,8.17v38.47h-28.56v-72.56h28.56v11.06c2.23-3.42,5.21-6.22,8.94-8.35c3.73-2.15,8.17-3.22,13.31-3.22c8.32,0,14.81,2.8,19.49,8.37v-.02h.01Z" fill="#f26f6c"/><path d="M578.06,125.4c-4.68-5.57-11.17-8.37-19.49-8.37-5.15,0-9.59,1.08-13.31,3.23-3.74,2.13-6.71,4.93-8.94,8.35v-33.7h-28.44v95.2h28.44v-38.47c0-3.43.9-6.15,2.7-8.16c1.8-2.02,4.28-3.03,7.46-3.03s5.55,1.01,7.39,3.03c1.85,2.01,2.77,4.73,2.77,8.16v38.47h28.43v-42.07c0-9.51-2.34-17.06-7.01-22.64v0Z" fill="#f26f6c"/><path d="M672.4,117.56v72.55h-28.56v-11.07c-2.23,3.43-5.21,6.22-8.94,8.37s-8.17,3.21-13.32,3.21c-8.32,0-14.81-2.78-19.49-8.37-4.67-5.57-7.01-13.12-7.01-22.64v-42.07h28.44v38.47c0,3.42.92,6.16,2.76,8.17c1.84,2.02,4.31,3.03,7.4,3.03s5.66-1.01,7.46-3.03c1.8-2.01,2.7-4.74,2.7-8.17v-38.47h28.56v.02v0Z" fill="#f26f6c"/><path d="M808.94,165.8v24.31h-10.8c-19.9,0-29.85-9.9-29.85-29.72v-19.03h-9v-23.8h9v-22.36h28.56v22.36h11.84v23.8h-11.84v19.56c0,1.72.4,2.95,1.22,3.73s2.17,1.16,4.05,1.16h6.82v-.01Z" fill="#f26f6c"/><path d="M722.03,120.07c4.25-2.56,21.05-3.84,25.65-3.84v30.86h-20.57c-5.47,0-9.48.96-12.04,2.86-2.56,1.91-3.84,5.3-3.84,10.16v30.08h-28.9v-73.43h28.9v13.54c2.95-4.25,6.55-7.66,10.81-10.22h-.01v-.01Z" fill="#f26f6c"/><g><path d="M227.91,145.3v-36.03h11.6c3.65,0,6.56.83,8.74,2.49c2.17,1.66,3.26,3.91,3.26,6.74c0,1.58-.37,2.96-1.11,4.15-.74,1.18-1.73,2.11-2.96,2.76-1.23.66-2.57.99-4.02.99v.15c1.61-.03,3.08.26,4.42.89c1.33.63,2.41,1.56,3.23,2.81s1.23,2.8,1.23,4.64c0,2.11-.5,3.94-1.51,5.5-1,1.56-2.43,2.77-4.27,3.63s-4.03,1.28-6.56,1.28h-12.05Zm7.15-21.52h4.34c1.45,0,2.58-.39,3.41-1.16.82-.77,1.23-1.82,1.23-3.13s-.41-2.39-1.23-3.13-1.96-1.11-3.41-1.11h-4.34v8.54v0-.01Zm0,15.55h4.59c1.61,0,2.88-.43,3.8-1.28s1.38-2.04,1.38-3.55-.46-2.71-1.38-3.58-2.19-1.31-3.8-1.31h-4.59v9.72Z" fill="#605039"/><path d="M261.42,145.3v-36.03h11.6c2.57,0,4.79.44,6.66,1.33s3.33,2.16,4.37,3.8c1.04,1.65,1.55,3.59,1.55,5.82s-.57,4.43-1.7,6.27c-1.14,1.84-2.67,3.18-4.61,4l6.81,14.81h-8.04l-5.82-13.62h-3.46v13.62h-7.36Zm7.35-20.04h4.24c1.64,0,2.92-.41,3.82-1.23s1.36-1.97,1.36-3.45-.45-2.75-1.36-3.6-2.18-1.28-3.82-1.28h-4.24v9.58-.02Z" fill="#605039"/><path d="M293.01,145.3l8.83-36.03h9.38l8.93,36.03h-7.55l-1.73-8.14h-8.59l-1.73,8.14h-7.55.01Zm10.51-14.07h6.07l-1.73-8.69c-.23-1.25-.47-2.49-.72-3.73-.25-1.23-.44-2.2-.57-2.89-.13.69-.3,1.65-.52,2.86-.21,1.22-.45,2.45-.72,3.7l-1.83,8.74h.02v.01Z" fill="#605039"/><path d="M328.3,145.3v-36.03h8.64l9.33,27.89c-.1-1.22-.21-2.62-.35-4.22-.13-1.6-.24-3.19-.32-4.79s-.12-2.95-.12-4.07v-14.81h6.51v36.03h-8.64l-9.23-27.89c.1,1.05.2,2.3.3,3.75s.19,2.91.27,4.39.12,2.8.12,3.95v15.79h-6.52.01v.01Z" fill="#605039"/><path d="M362.01,145.3v-36.03h11.7c2.5,0,4.68.48,6.54,1.43s3.31,2.29,4.34,4.02c1.04,1.73,1.55,3.76,1.55,6.1v12.88c0,2.3-.52,4.33-1.55,6.07-1.04,1.75-2.48,3.1-4.34,4.07s-4.04,1.46-6.54,1.46h-11.7Zm7.4-6.91h4.29c1.51,0,2.73-.43,3.65-1.28.92-.86,1.38-1.99,1.38-3.41v-12.88c0-1.38-.46-2.5-1.38-3.36s-2.14-1.28-3.65-1.28h-4.29v22.21Z" fill="#605039"/><path d="M396.41,145.3v-6.42h7.16v-23.2h-7.16v-6.42h21.72v6.42h-7.16v23.2h7.16v6.42h-21.72Z" fill="#605039"/><path d="M428.98,145.3v-36.03h8.64l9.33,27.89c-.1-1.22-.21-2.62-.35-4.22-.13-1.6-.24-3.19-.32-4.79s-.12-2.95-.12-4.07v-14.81h6.51v36.03h-8.64l-9.23-27.89c.1,1.05.2,2.3.3,3.75s.19,2.91.27,4.39.12,2.8.12,3.95v15.79h-6.52.01v.01Z" fill="#605039"/><path d="M474.59,145.79c-2.4,0-4.51-.45-6.32-1.36-1.81-.9-3.22-2.17-4.22-3.8s-1.51-3.53-1.51-5.7v-15.3c0-2.2.5-4.11,1.51-5.72c1-1.61,2.41-2.87,4.22-3.78c1.81-.9,3.92-1.36,6.32-1.36s4.55.45,6.34,1.36c1.79.9,3.19,2.16,4.2,3.78c1,1.61,1.51,3.52,1.51,5.72h-7.4c0-1.45-.4-2.55-1.21-3.31s-1.95-1.14-3.43-1.14-2.62.38-3.43,1.14-1.21,1.86-1.21,3.31v15.3c0,1.42.4,2.51,1.21,3.28s1.95,1.16,3.43,1.16s2.62-.39,3.43-1.16s1.21-1.87,1.21-3.28v-3.11h-5.33v-6.27h12.73v9.38c0,2.17-.5,4.07-1.51,5.7-1,1.63-2.4,2.9-4.2,3.8-1.79.9-3.91,1.36-6.34,1.36v0Z" fill="#605039"/><path d="M227.76,189.62v-36.03h11.7c2.5,0,4.68.48,6.54,1.43s3.31,2.29,4.34,4.02c1.04,1.73,1.55,3.76,1.55,6.1v12.88c0,2.3-.52,4.33-1.55,6.07-1.04,1.75-2.48,3.1-4.34,4.07s-4.04,1.46-6.54,1.46h-11.7Zm7.4-6.91h4.29c1.51,0,2.73-.43,3.65-1.28.92-.86,1.38-1.99,1.38-3.41v-12.88c0-1.38-.46-2.5-1.38-3.36s-2.14-1.28-3.65-1.28h-4.29v22.21v0Z" fill="#605039"/><path d="M262.16,189.62v-36.03h22.21v6.32h-14.96v8.09h13.23v6.32h-13.23v8.98h14.96v6.32h-22.21Z" fill="#605039"/><path d="M306.58,190.11c-2.53,0-4.74-.43-6.61-1.28-1.88-.85-3.32-2.06-4.34-3.6-1.02-1.55-1.53-3.37-1.53-5.48h7.4c0,1.22.47,2.18,1.41,2.89s2.21,1.06,3.83,1.06s2.76-.35,3.63-1.04s1.31-1.64,1.31-2.86c0-1.05-.33-1.96-.99-2.71-.66-.76-1.58-1.27-2.76-1.53l-3.65-.84c-3.06-.72-5.44-2.06-7.13-4.02s-2.54-4.35-2.54-7.18c0-2.11.48-3.94,1.46-5.5.97-1.56,2.34-2.77,4.12-3.63c1.78-.85,3.88-1.28,6.32-1.28c3.68,0,6.61.91,8.76,2.74s3.23,4.29,3.23,7.38h-7.4c0-1.15-.4-2.06-1.21-2.71-.81-.66-1.97-.99-3.48-.99-1.41,0-2.5.32-3.26.96s-1.14,1.56-1.14,2.74c0,1.05.3,1.95.91,2.69s1.47,1.24,2.59,1.51l3.85.89c3.19.72,5.61,2.03,7.26,3.92s2.47,4.3,2.47,7.23c0,2.11-.52,3.97-1.55,5.58-1.04,1.61-2.49,2.86-4.34,3.75-1.86.89-4.06,1.33-6.59,1.33l-.03-.02v0Z" fill="#605039"/><path d="M329.28,189.62v-6.42h7.16v-23.2h-7.16v-6.42h21.72v6.42h-7.16v23.2h7.16v6.42h-21.72Z" fill="#605039"/><path d="M373.9,190.11c-2.4,0-4.51-.45-6.32-1.36-1.81-.9-3.22-2.17-4.22-3.8s-1.51-3.53-1.51-5.7v-15.3c0-2.2.5-4.11,1.51-5.72c1-1.61,2.41-2.87,4.22-3.78c1.81-.9,3.92-1.36,6.32-1.36s4.55.45,6.34,1.36c1.79.9,3.19,2.16,4.2,3.78c1,1.61,1.51,3.52,1.51,5.72h-7.4c0-1.45-.4-2.55-1.21-3.31s-1.95-1.14-3.43-1.14-2.62.38-3.43,1.14-1.21,1.86-1.21,3.31v15.3c0,1.42.4,2.51,1.21,3.28s1.95,1.16,3.43,1.16s2.62-.39,3.43-1.16s1.21-1.87,1.21-3.28v-3.11h-5.33v-6.27h12.73v9.38c0,2.17-.5,4.07-1.51,5.7-1,1.63-2.4,2.9-4.2,3.8-1.79.9-3.91,1.36-6.34,1.36v0Z" fill="#605039"/><path d="M395.42,189.62v-36.03h8.64l9.33,27.89c-.1-1.22-.21-2.62-.35-4.22-.13-1.6-.24-3.19-.32-4.79s-.12-2.95-.12-4.07v-14.81h6.51v36.03h-8.64l-9.23-27.89c.1,1.05.2,2.3.3,3.75s.19,2.91.27,4.39.12,2.8.12,3.95v15.79h-6.52.01v.01Z" fill="#605039"/><path d="M429.97,189.62v-36.03h22.21v6.32h-14.96v8.09h13.23v6.32h-13.23v8.98h14.96v6.32h-22.21Z" fill="#605039"/><path d="M462.79,189.62v-36.03h11.6c2.57,0,4.79.44,6.66,1.33s3.33,2.16,4.37,3.8c1.04,1.65,1.55,3.59,1.55,5.82s-.57,4.43-1.7,6.27c-1.14,1.84-2.67,3.18-4.61,4l6.81,14.81h-8.04L473.61,176h-3.46v13.62h-7.36Zm7.35-20.04h4.24c1.64,0,2.92-.41,3.82-1.23s1.36-1.97,1.36-3.45-.45-2.75-1.36-3.6-2.18-1.28-3.82-1.28h-4.24v9.58-.02Z" fill="#605039"/></g></g><path d="M143.78,0v20.95L104.83,35.63C106.59,15.67,123.36,0,143.78,0Z" fill="#605039"/><path d="M71.81,90.23c-.06-.06-.11-.12-.17-.18.06.06.11.12.17.18Z" fill="#605039"/><path d="M143.78,0v20.95L104.83,35.63C106.59,15.67,123.36,0,143.78,0Z" fill="#605039"/><g><path d="M104.6,164.63v0c0,0,0,.04,0,0Z" fill="#605039"/><path d="M153.45,67.28v0c-3.31,0-6.54.33-9.67.96v-24.78l-20.25,9.91c-5.66,2.77-10.41,7.06-13.75,12.41s-5.1,11.5-5.1,17.8v51.23v0c-.04,16.22-.08,29.14-.08,29.82h39.18v-49.1c0-5.29,4.29-9.58,9.58-9.58v0c5.29,0,9.58,4.29,9.58,9.58v49.04h39.23v-48.57c0-26.91-21.81-48.72-48.72-48.72Z" fill="#605039"/></g><path d="M201.08,5.49L54.39,62.31c-9.88,3.85-15.24,9.72-15.24,9.72v-71.92C17.52,0.11,-0.01,16.21,0,36.06l.05,67.81-.05-.04v42.62c0,10.24,8.3,18.54,18.54,18.54c3.72,0,7.17-1.1,10.07-2.98c1.06-.69,2.05-1.48,2.94-2.36-3.29,3.34-5.32,7.92-5.32,12.98c0,10.24,8.3,18.54,18.54,18.54c5.3,0,10.07-2.22,13.44-5.78.37-.37,27.5-31.56,27.5-31.56c7.27-8.5,11.65-19.54,11.65-31.6v-38.65c0-15.64,8.9-29.91,22.95-36.78l81.4-39.86c.91-.44.31-1.81-.63-1.45ZM76.29,121.07c-7.44,8.67-21.99,8.42-29.71,7.6v-.03v0c-3.12-.35-5.67-2.73-6.3-5.97-1.57-7.97-3.23-23.17,4.22-31.81c3.12-3.66,7.58-5.69,12.2-6.79-3.74,3.26-6.14,8.11-6.12,13.57c0,9.76,7.58,17.7,16.9,17.7s11-3.18,14.05-7.94c-.56,5.01-2.03,9.94-5.24,13.65v.02Z" fill="#f26f6c"/></g><path id="eIHOKbcjCSo39" d="M20.888718,94.454142q10.233979,7.050107,14.133979,2.670107c3.9-4.38,33.951601-16.269276,33.951601-16.269276q0,0-9.416265-4.075427L20.888718,94.454142Z" transform="matrix(0.829416 0 0 1.850113 -2.818387 -70.920836)" fill="#f26f6c" stroke-width="1.67792"/>
<script><![CDATA[
(function(s,i,u,o,c,w,d,t,n,x,e,p,a,b){(a=Array.from(d.querySelectorAll('svg#' + i.root)).filter(n=> !n.svgatorPlayer)[0]||{}).svgatorPlayer={ready:(function(a){b=[];return function(c){return c?(b.push(c),a.svgatorPlayer):b}})(a)};w[o]=w[o]||{};w[o][s]=w[o][s]||[];w[o][s].push(i);e=d.createElementNS(n,t);e.async=true;e.setAttributeNS(x,'href',[u,s,'.','j','s','?','v','=',c].join(''));e.setAttributeNS(null,'src',[u,s,'.','j','s','?','v','=',c].join(''));p=d.getElementsByTagName(t)[0];p.parentNode.insertBefore(e,p);})('91c80d77',{"root":"eIHOKbcjCSo1","version":"2025-04-07","animations":[{"elements":{"eIHOKbcjCSo39":{"d":[{"t":0,"v":["M",20.888718,94.454142,"Q",31.122697,101.504249,35.022697,97.124249,"C",38.922697,92.744249,68.974298,80.854973,68.974298,80.854973,"Q",68.974298,80.854973,59.558033,76.779546,"L",20.888718,94.454142,"Z"]},{"t":500,"v":["M",25.751113,98.113378,"Q",69.679948,118.259979,73.579948,113.879979,"C",77.479948,109.499979,99.355808,111.940351,106.735808,94.570351,"Q",106.735808,90.330351,59.558034,77.968663,"L",25.751113,98.113378,"Z"]},{"t":1100,"v":["M",20.888718,94.454142,"Q",31.122697,101.504249,35.022697,97.124249,"C",38.922697,92.744249,68.974298,80.854973,68.974298,80.854973,"Q",68.974298,80.854973,59.558033,76.779546,"L",20.888718,94.454142,"Z"]}]}},"s":"MDUA1ZDk1M2NGNK2VZOGY4YzdiSOGU4Mzg5ODgOzYzU0NGQ0YTIRhNGE0NjNjNQ2U4MzhjN2Y3NZDhlODM4OTgE4M2M1NDRiNDQZOM2M4MzhlNL2Y4YzdiOGVWTODM4OTg4QzhHkM2M1NDRhNDIYzYzgwODM4NTjg2M2M1NDRiFNDYzYzdiODYU4ZTdmOGM4ODCdiOGU3ZjNjNDTQ4MDdiODY4PZDdmWTQ2M2ML4ZDhhN2Y3ZjLdlM2M1NDRiNSDYzYzgwUThhWOGQzYzU0VDRGiNGE0YUw5NwE|"}],"options":"MDYAxMDgyMjk3YJTdiNjhRNzk3TYjI5NDFQMjkH3Mzc2NjhCNmRIyOTg0"},'https://cdn.svgator.com/ply/','__SVGATOR_PLAYER__','2025-04-07',window,document,'script','http://www.w3.org/2000/svg','http://www.w3.org/1999/xlink')
]]></script>
</svg>
