<?xml version="1.0" encoding="UTF-8"?>
<svg id="Layer_1" data-name="Layer 1" xmlns="http://www.w3.org/2000/svg" viewBox="0 0 864 864">
  <defs>
    <style>
      .cls-1 {
        fill: #41854c;
      }
    </style>
  </defs>
  <path class="cls-1" d="M373.97,620.09h121.8c23.93,0,46.89-9.51,63.81-26.43l15.6-15.6c4.48-4.48.14-12-5.98-10.36l-104.05,27.91c-4.41,1.53-9.23,1.38-13.55-.4l-27.16-11.23c-5.5-2.27-11.75-1.76-16.81,1.36l-37.03,22.91c-5.48,3.39-3.08,11.84,3.37,11.84Z"/>
  <path class="cls-1" d="M798.61,249.75l-2.72-1.61c-17.43-10.22-37.67-14.61-57.78-12.51l-4.05.44c-6.51-1.45-7.58-10.3-1.58-13.26l14.74-7.21c5.99-4.28,10.04-10.77,11.26-18.03l.75-4.59c1.76-3.22,5.94-4.2,8.95-2.1l23.74,16.58c1.32.91,3.14-.13,2.96-1.74-1.5-14.43-11.68-63.23-80.43-63.23-83.67,0-121.89,82.48-134.52,118.2-3.61,10.17-12.12,17.77-22.62,20.13-10.72,2.39-20.99,6.33-30.49,11.62-9.5,5.32-18.21,12.01-25.84,19.9l-194.46,172.74c-12.32,10.95-9.76,31.13,5.11,38.27.26.1.42.18.47.18l-140.65,97.5c2.28.83,4.49,1.89,6.64,3.17,1.61.93,3.14,1.97,4.59,3.11,1.48-1.17,3.04-2.23,4.67-3.19,6.69-3.94,14.19-5.97,22.26-5.97,11.88,0,21.87,3.17,29.73,9.44,11.86-3.63,24.18-5.55,36.61-5.71,12.71-.13,24.41-6.9,31.19-17.67l12.12-19.25c8.8-13.96,21.98-24.62,37.49-30.28l131.59-56.38c10.2-3.74,18.21-11.73,21.98-21.87,9.78-26.41,59.8-73.97,113.22-73.97,23.3,0,43.35,21.04,40.81,45.58-2.67,25.74-28.51,72.41-28.49,85.44.03,4.62,4.25,7.99,8.8,7.16,27.92-5.19,133.02-54.95,133.02-114.21,0-77.68-7.37-90.44-4.23-124.17,0-.08.03-.23.05-.34l7.81-28.77c3.06-7.52,8.61-13.75,15.75-17.62,1.92,0,3.11-1.56,3.11-3.14,0-1.01-.49-2.05-1.56-2.67ZM665.57,202.77c2.93-4.07,15.59-8.9,24.15-3.35,8.56,5.53,11.62,16.01,6.85,23.4-4.8,7.39-15.62,8.9-24.18,3.37-8.54-5.55-9.29-19.9-6.82-23.43ZM715.3,355.06c-4.25,10.97-17.36,19.95-29.14,19.95l-4.02.39c-25.22,2.52-50.59-.7-74.25-9.31-11.55-4.23-21.43-12.12-28.44-22.23-5.66-8.25-.93-19.59,8.92-21.33l12.51-2.21c10.59-1.87,15.41-14.3,8.87-22.83-7.26-9.47-6.85-18.68,4.85-29.76l10.04-8.95c12.19-10.87,30.15-12.3,43.9-3.45,5.45,3.53,12.04,4.8,18.42,3.58l3.92-.75c16.84-4.98,23.82,17.59,23.82,17.59,10.27,25.4,10.48,53.76.6,79.31ZM219.35,632.18c-.6-.13-1.19-.26-1.82-.36-.52-.1-1.01-.18-1.53-.26-.88-.1-1.74-.21-2.65-.29-1.19-.08-2.44-.13-3.74-.13-5.76,0-10.97,1.4-15.67,4.18-4.72,2.78-8.43,6.64-11.16,11.65-2.72-4.9-6.49-8.77-11.29-11.57-1.69-.99-3.45-1.82-5.24-2.46-.39-.16-.78-.29-1.19-.39-.86-.29-1.76-.52-2.67-.7-.54-.13-1.12-.23-1.69-.31-.62-.1-1.27-.18-1.92-.23-.52-.08-1.04-.1-1.56-.1-.13-.03-.26-.03-.42-.03l-32.53,22.57c-.31,1.27-.57,2.59-.75,3.97-.1.65-.18,1.32-.23,2-.05.57-.1,1.17-.13,1.79-.05.93-.08,1.87-.08,2.83v19.25l13.28-6.51v-12.74c0-7.34,1.53-12.87,4.64-16.6,3.11-3.71,8.17-5.55,15.26-5.55,6.1,0,10.97,2,14.58,5.99.39.44.78.91,1.12,1.38.13.13.21.26.29.39.34.44.62.91.91,1.38.08.1.13.23.18.34.26.44.49.88.7,1.35.13.26.23.52.34.78.18.42.36.83.49,1.27.1.34.21.65.31.99.18.57.34,1.17.44,1.76l18.29-9c.21-.26.42-.52.65-.78.39-.44.8-.83,1.22-1.22.29-.26.54-.49.83-.67.23-.23.47-.42.73-.57.16-.1.31-.23.49-.31.34-.23.65-.44,1.01-.62.23-.16.47-.29.73-.36.29-.18.6-.34.91-.44.26-.13.52-.23.8-.31.36-.16.73-.29,1.09-.36.23-.1.49-.16.73-.21.29-.1.57-.16.88-.21.36-.1.73-.16,1.12-.23.42-.08.86-.13,1.3-.16.26-.05.54-.08.83-.08l17.23-8.46c-1.61-.67-3.32-1.19-5.11-1.61ZM34.72,715.82c-4.72,3.48-.73,10.87,4.77,8.82l70.62-34.69v-25.63c0-.26,0-.52.03-.78l-75.42,52.28ZM161.26,656.88c-.54-.62-1.58-1.74-4.98-1.74-.53,0-1.01.02-1.44.04-2.61.16-4.77,2.15-5.18,4.73-.19,1.2-.3,2.66-.3,4.41v6.38l13.96-6.88c-.08-4.77-1.56-6.43-2.05-6.95Z"/>
  <g>
    <g>
      <path class="cls-1" d="M124.86,730.99c-1.18-1.18-1.76-2.8-1.76-4.87v-61.81c0-10.35,2.89-18.46,8.68-24.34,5.78-5.88,13.8-8.82,24.06-8.82,5.65,0,10.87,1.41,15.67,4.23,4.8,2.82,8.56,6.68,11.29,11.57,2.73-4.99,6.44-8.87,11.15-11.64,4.7-2.77,9.93-4.16,15.67-4.16,10.26,0,18.3,2.94,24.13,8.82,5.83,5.88,8.75,14,8.75,24.34v61.81c0,2.07-.62,3.69-1.84,4.87-1.22,1.18-2.87,1.76-4.94,1.76s-3.67-.59-4.8-1.76c-1.13-1.18-1.7-2.8-1.7-4.87v-61.81c0-7.43-1.55-12.98-4.66-16.65-3.1-3.67-8.23-5.5-15.38-5.5-6.21,0-11.08,1.95-14.61,5.86-3.53,3.9-5.29,9.34-5.29,16.3v61.81c0,2.07-.59,3.69-1.76,4.87-1.18,1.18-2.75,1.76-4.73,1.76s-3.67-.59-4.8-1.76-1.7-2.8-1.7-4.87v-61.81c0-6.77-1.81-12.16-5.43-16.16-3.62-4-8.49-6-14.6-6-7.06,0-12.14,1.86-15.24,5.57-3.1,3.72-4.66,9.24-4.66,16.58v61.81c0,2.07-.61,3.69-1.83,4.87-1.23,1.18-2.87,1.76-4.94,1.76s-3.55-.59-4.73-1.76Z"/>
      <path class="cls-1" d="M257.41,730.99c-1.18-1.18-1.76-2.8-1.76-4.87v-88.34c0-2.07.59-3.69,1.76-4.87,1.18-1.18,2.75-1.76,4.73-1.76s3.71.59,4.94,1.76c1.22,1.18,1.83,2.8,1.83,4.87v88.34c0,2.07-.61,3.69-1.83,4.87-1.23,1.18-2.87,1.76-4.94,1.76s-3.55-.59-4.73-1.76Z"/>
      <path class="cls-1" d="M356.59,730.99c-1.18-1.18-1.76-2.8-1.76-4.87v-88.34c0-2.07.59-3.69,1.76-4.87,1.18-1.18,2.75-1.76,4.73-1.76s3.71.59,4.94,1.76c1.22,1.18,1.83,2.8,1.83,4.87v88.34c0,2.07-.61,3.69-1.83,4.87-1.23,1.18-2.87,1.76-4.94,1.76s-3.55-.59-4.73-1.76Z"/>
      <path class="cls-1" d="M383.01,730.99c-1.18-1.18-1.76-2.8-1.76-4.87v-53.2c0-13.08,3.71-23.31,11.15-30.69,7.43-7.38,17.69-11.08,30.76-11.08,8.66,0,16.16,1.67,22.51,5.01,6.35,3.34,11.2,8.16,14.54,14.47,3.34,6.3,5.01,13.74,5.01,22.3v53.2c0,2.07-.61,3.69-1.83,4.87-1.23,1.18-2.87,1.76-4.94,1.76s-3.58-.59-4.8-1.76c-1.23-1.18-1.83-2.8-1.83-4.87v-28.79h-57.3v28.79c0,2.07-.59,3.69-1.76,4.87s-2.8,1.76-4.87,1.76-3.69-.59-4.87-1.76ZM451.81,686.61v-14.11c0-9.78-2.45-17.29-7.34-22.51s-11.99-7.83-21.31-7.83-16.42,2.56-21.31,7.69c-4.89,5.13-7.34,12.68-7.34,22.65v14.11h57.3Z"/>
      <path class="cls-1" d="M480.13,730.99c-1.18-1.18-1.76-2.8-1.76-4.87v-56.03c0-8,1.69-14.91,5.08-20.75,3.39-5.83,8.26-10.32,14.61-13.48,6.35-3.15,13.85-4.73,22.51-4.73s16.16,1.58,22.51,4.73c6.35,3.15,11.22,7.65,14.61,13.48,3.38,5.83,5.08,12.75,5.08,20.75v56.03c0,2.07-.59,3.69-1.76,4.87-1.18,1.18-2.8,1.76-4.87,1.76s-3.72-.59-4.94-1.76c-1.23-1.18-1.83-2.8-1.83-4.87v-56.45c0-8.75-2.52-15.52-7.55-20.32-5.03-4.8-12.11-7.2-21.24-7.2s-16.09,2.42-21.17,7.27c-5.08,4.85-7.62,11.6-7.62,20.25v56.45c0,2.07-.61,3.69-1.83,4.87-1.23,1.18-2.87,1.76-4.94,1.76s-3.69-.59-4.87-1.76Z"/>
      <path class="cls-1" d="M600.4,726.41c-7.76-4.23-13.79-10.18-18.07-17.85-4.28-7.67-6.42-16.53-6.42-26.6s2.14-18.93,6.42-26.6c4.28-7.67,10.3-13.62,18.07-17.85,7.76-4.23,16.63-6.35,26.6-6.35s18.84,2.12,26.6,6.35c7.76,4.23,13.78,10.19,18.06,17.85,4.28,7.67,6.42,16.54,6.42,26.6s-2.14,18.93-6.42,26.6c-4.28,7.67-10.3,13.62-18.06,17.85-7.76,4.23-16.63,6.35-26.6,6.35s-18.84-2.12-26.6-6.35ZM646.69,717.02c5.69-3.15,10.14-7.74,13.34-13.76,3.2-6.02,4.8-13.13,4.8-21.31s-1.65-15.54-4.94-21.52c-3.29-5.97-7.86-10.51-13.69-13.62-5.83-3.1-12.51-4.66-20.04-4.66s-13.67,1.6-19.26,4.8c-5.6,3.2-9.93,7.78-12.99,13.76-3.06,5.98-4.59,13.05-4.59,21.24s1.57,15.29,4.73,21.31c3.15,6.02,7.57,10.61,13.26,13.76,5.69,3.15,12.25,4.73,19.69,4.73s13.99-1.57,19.68-4.73Z"/>
      <path class="cls-1" d="M688.46,665.58c0-1.22.66-2.35,1.98-3.39,2.16-1.69,3.97-3.62,5.44-5.79,1.45-2.16,2.42-4.14,2.89-5.93-.38.1-.99.14-1.83.14-2.35,0-4.38-.87-6.07-2.61-1.69-1.74-2.54-3.97-2.54-6.7,0-3.01,1.04-5.46,3.1-7.34,2.07-1.88,4.75-2.82,8.05-2.82s6.09,1.11,8.11,3.32c2.03,2.21,3.04,5.25,3.04,9.1s-1.25,8.04-3.74,12.28c-2.49,4.23-5.77,8.05-9.81,11.43-1.79,1.51-3.34,2.26-4.66,2.26-1.04,0-2.03-.52-2.97-1.55-.66-.85-.99-1.65-.99-2.4Z"/>
      <path class="cls-1" d="M737.44,728.17c-7.76-3.06-14.04-7.31-18.84-12.77-.94-1.22-1.41-2.4-1.41-3.53,0-1.79.8-3.34,2.4-4.66,1.03-.85,2.12-1.27,3.24-1.27,1.7,0,3.43.9,5.22,2.68,4.05,4.14,9.06,7.36,15.03,9.67,5.98,2.31,12.54,3.46,19.69,3.46,7.53,0,13.38-1.39,17.57-4.16,4.18-2.78,6.28-6.66,6.28-11.64,0-4.61-2.07-8.35-6.21-11.22-4.14-2.87-11.24-5.39-21.31-7.55-13.83-3.1-23.8-7.01-29.92-11.71-6.11-4.7-9.17-10.91-9.17-18.63,0-5.17,1.55-9.69,4.66-13.55,3.1-3.86,7.53-6.84,13.26-8.96,5.74-2.12,12.42-3.18,20.04-3.18,8.65,0,16.42,1.48,23.28,4.45,6.87,2.96,11.86,6.98,14.96,12.06.75,1.13,1.13,2.31,1.13,3.53,0,1.88-.9,3.44-2.68,4.66-.85.56-1.83.85-2.96.85-1.04,0-2.07-.26-3.1-.78-1.04-.51-1.88-1.2-2.54-2.05-2.73-3.76-6.52-6.65-11.36-8.68-4.85-2.02-10.42-3.03-16.72-3.03-8,0-14.09,1.25-18.28,3.74-4.19,2.49-6.28,6.14-6.28,10.94,0,2.92.85,5.43,2.54,7.55,1.69,2.12,4.47,4,8.33,5.64,3.86,1.65,9.17,3.27,15.94,4.87,14.21,3.29,24.42,7.36,30.63,12.21,6.21,4.85,9.31,11.13,9.31,18.84,0,5.46-1.53,10.19-4.59,14.18-3.06,4-7.41,7.1-13.05,9.31-5.65,2.21-12.23,3.32-19.76,3.32-9.13,0-17.57-1.53-25.33-4.59Z"/>
    </g>
    <path class="cls-1" d="M287.22,727.82c-3.44-3.29-5.15-7.86-5.15-13.69v-76.35c0-2.07.59-3.69,1.76-4.87,1.18-1.18,2.8-1.76,4.87-1.76s3.71.59,4.94,1.76c1.22,1.18,1.83,2.8,1.83,4.87v73.88c0,2.35.61,4.23,1.83,5.64,1.22,1.41,2.92,2.12,5.08,2.12h32.66c4.42,0,6.63,3.36,6.63,6.93,0,4.09-2.42,6.4-6.63,6.4h-33.22c-6.31,0-11.17-1.64-14.6-4.94Z"/>
  </g>
</svg>