<?xml version="1.0" encoding="UTF-8"?>
<svg id="Layer_2" data-name="Layer 2" xmlns="http://www.w3.org/2000/svg" viewBox="0 0 162.58 204.61">
  <defs>
    <style>
      .cls-1, .cls-2 {
        fill: #4b4849;
      }

      .cls-3 {
        fill: #e09e3f;
      }

      .cls-2 {
        font-family: TimeBurner, TimeBurner;
        font-size: 30.2px;
      }
    </style>
  </defs>
  <g id="DUPLICATES_WITH_JUST_TEXT_DIFFERENCE" data-name="DUPLICATES WITH JUST TEXT DIFFERENCE">
    <polygon class="cls-1" points="110.37 141.29 81.62 152.22 81.62 28.34 110.37 17.88 110.37 141.29"/>
    <polygon class="cls-1" points="73.32 26.25 73.32 46.86 67.07 38.34 62.33 36.61 56.08 40.58 56.08 19.97 50.33 17.88 50.33 46.62 56.08 48.71 56.08 48.71 56.08 48.71 64.7 43.23 73.31 54.98 73.32 54.98 73.32 54.99 79.07 57.08 79.07 28.34 73.32 26.25"/>
    <polygon class="cls-1" points="79.07 66 79.07 59.96 56.08 51.59 56.08 51.58 50.33 49.49 50.33 49.5 50.33 55.54 50.33 72.18 50.33 78.22 50.33 78.23 56.08 80.32 56.08 80.31 79.07 88.68 79.07 82.64 56.08 74.28 56.08 68.6 73.32 74.88 73.32 68.84 56.08 62.56 56.08 57.63 79.07 66"/>
    <polygon class="cls-1" points="79.07 97.6 79.07 91.56 56.08 83.2 50.33 81.1 50.33 87.14 50.33 92.45 50.33 92.85 50.33 98.49 73.32 106.86 73.32 112.17 50.33 103.81 50.33 109.84 73.32 118.21 73.32 118.21 79.07 120.3 79.07 114.27 79.07 108.95 79.07 108.56 79.07 102.91 56.08 94.55 56.08 89.23 79.07 97.6"/>
    <polygon class="cls-1" points="67.57 119.1 61.83 117.01 61.83 117.04 50.33 112.85 50.33 118.89 61.83 123.07 61.83 145.75 67.57 147.84 67.57 125.17 79.07 129.35 79.07 123.31 67.57 119.13 67.57 119.1"/>
    <path class="cls-3" d="M91.16,27.9h0s-5.75,2.09-5.75,2.09v21.79l5.75-2.09v-5.05l15.47-5.63v-16.74l-15.47,5.63ZM100.88,35.06l-9.73,3.54v-4.67l9.73-3.54v4.67Z"/>
    <path class="cls-3" d="M85.41,54.52v21.93l21.22-7.72v-21.93l-21.22,7.72ZM100.88,64.77l-9.73,3.54v-9.85l9.73-3.54v9.85Z"/>
    <polygon class="cls-3" points="92.68 76.39 98.43 74.29 98.43 93.59 92.68 95.69 92.68 76.39"/>
    <polygon class="cls-3" points="106.63 118.45 99.04 121.21 99.04 121.21 93 123.41 93 123.41 85.41 126.18 85.41 131.87 93 129.11 93 145 99.04 142.81 99.04 126.91 106.63 124.15 106.63 118.45"/>
    <polygon class="cls-3" points="100.88 95.45 100.88 108.08 91.16 99 85.41 101.1 85.41 122.87 91.16 120.78 91.16 108.15 100.88 117.23 106.63 115.14 106.63 93.36 100.88 95.45"/>
    <polygon class="cls-1" points="50.33 14.92 62.33 8 98.43 8 110.37 14.92 80.35 25.29 50.33 14.92"/>
    <text class="cls-2" transform="translate(0 193.95)"><tspan x="0" y="0">BREWING CO.</tspan></text>
    <path class="cls-1" d="M99.5,4l.93.54,11.94,6.92,1.99,1.16v131.43l-2.58.98-30.02,11.41-1.42.54-1.42-.54-30.02-11.41-2.58-.98V12.61l1.99-1.16,11.94-6.92.93-.54h38.31M100.58,0h-40.46l-.93.54-.93.54-11.94,6.92-1.99,1.16-1.99,1.16v136.5l2.58.98,2.58.98,30.02,11.41,1.42.54,1.42.54,1.42-.54,1.42-.54,30.02-11.41,2.58-.98,2.58-.98V10.31l-1.99-1.16-1.99-1.16-11.94-6.92-.93-.54-.93-.54h0Z"/>
  </g>
</svg>