<?xml version="1.0" encoding="UTF-8"?>
<svg id="Layer_2" data-name="Layer 2" xmlns="http://www.w3.org/2000/svg" viewBox="0 0 334.2 295.53">
  <defs>
    <style>
      .cls-1 {
        fill: #5d513b;
      }

      .cls-2 {
        fill: #f37a71;
      }
    </style>
  </defs>
  <g id="Layer_1-2" data-name="Layer 1">
    <g id="Layer_1-3" data-name="Layer 1">
      <g id="Layer_1-2" data-name="Layer 1-2">
        <g>
          <path class="cls-2" d="M81.72,107.18c-.93.4-1.78.85-2.75,1.29-1.52.71-2.79,1.38-3.68,1.87-.08.04-.21.09-.3.18-.38.22-.68.4-.93.58h0c-5.67,3.35-10.8,7.5-15.33,12.37l-.21-.22V.13C26.21.13,0,27.68,0,61.65v149.36h0c0,9.06,3.26,18.12,9.82,25.04,11.69,12.28,29.72,13.57,42.85,4.11-8.98,13.79-7.75,32.77,3.94,45,13.17,13.84,34.51,13.84,47.63,0l55.09-65.4h0c10.12-12.54,16.3-28.7,16.3-46.42s-5.17-66.2,14.61-85.17C234.15,50.84,337.16,14.73,334.11,10.13c-2.75-4.24-206.71,75.62-252.44,97h0l.04.04ZM86.84,203.82c-4.95-.54-8.98-4.33-9.99-9.46-2.5-12.63-5.12-36.74,6.69-50.44,4.95-5.8,12.02-9.02,19.35-10.76-5.93,5.18-9.74,12.86-9.7,21.52,0,15.49,12.02,28.08,26.8,28.08s17.44-5.04,22.27-12.59c-.89,7.95-3.22,15.76-8.3,21.65-11.81,13.75-34.89,13.35-47.13,12.05h0v-.04Z"/>
          <g>
            <path class="cls-1" d="M246.51,24.95V0h-12.28c-25.53,0-46.28,16.42-46.28,43.3v5.31l58.56-23.7v.04Z"/>
            <path class="cls-1" d="M334.2,161.42c0-34.15-29.94-61.83-58.85-61.83-24.35.22-28.92,6.56-28.92,6.56v-6.56h0s.04-.18.04-.18v-28.57h-.04c-24.68,0-58.52,28.75-58.52,42.99s-.34,133.29-.34,133.29h58.85v-70.53h0v-.67c0-.18.08-.36.08-.54.04-.89.21-1.74.38-2.59,0-.18.04-.27.08-.4,1.48-5.4,5.67-9.6,10.92-10.76.93-.22,1.95-.31,2.92-.31,1.99,0,3.9.4,5.63,1.21,4.95,2.19,8.47,7.32,8.76,13.3h.08v71.2h58.85v-85.75h0l.04.13Z"/>
          </g>
        </g>
      </g>
    </g>
  </g>
</svg>