<svg width="1170" height="220" viewBox="0 0 1170 220" fill="none" xmlns="http://www.w3.org/2000/svg">
<path d="M169.544 216.204V218.837C169.544 218.983 168.324 219.188 165.913 219.451C163.503 219.686 160.569 219.861 157.084 219.92C153.599 220.007 149.91 220.007 145.96 219.92C142.039 219.832 138.641 219.568 135.795 219.071V203.215C135.795 189.904 135.62 176.622 135.272 163.34C134.923 150.029 134.604 136.951 134.343 124.05C134.081 111.148 133.907 98.51 133.82 86.0765C133.733 73.6722 133.849 61.6775 134.226 50.1509C139.745 50.1509 145.844 50.0339 152.437 49.7999C159.03 49.5658 165.013 49.7706 170.386 50.4142C170.561 50.736 170.648 51.2919 170.648 52.111C170.648 53.7201 170.677 55.0073 170.793 55.9435C170.88 56.9089 170.938 58.2547 170.938 60.0392C171.287 60.8291 171.693 61.4435 172.129 61.8531C172.565 62.2626 173.058 61.9701 173.61 61.0047C176.282 56.2068 179.855 53.1057 184.327 51.76C188.8 50.4142 193.534 50.0339 198.53 50.6775C208.695 51.3211 216.741 53.6908 222.637 57.7573C228.533 61.8238 232.947 67.0605 235.881 73.3797C238.814 79.6988 240.731 86.8078 241.631 94.6483C242.532 102.489 243.142 110.417 243.49 118.433C243.49 124.05 243.084 129.491 242.299 134.757C241.486 140.053 240.237 144.88 238.553 149.297C236.868 153.715 234.632 157.459 231.873 160.59C229.113 163.72 225.744 165.914 221.823 167.201C217.002 168.811 211.687 169.805 205.878 170.215C200.069 170.624 194.58 170.624 189.41 170.215C184.24 169.805 179.855 169.045 176.282 167.933C172.71 166.821 170.735 165.534 170.386 164.1C170.561 171.619 170.648 177.704 170.648 182.356V193.531C170.648 196.34 170.59 198.505 170.502 200.026C170.415 201.547 170.328 202.981 170.241 204.356C170.154 205.701 170.067 207.252 169.98 208.92C169.893 210.616 169.747 213.045 169.573 216.263L169.544 216.204ZM211.048 125.6C211.948 123.348 212.471 121.037 212.645 118.638C212.82 116.239 212.907 113.928 212.907 111.675C212.907 107.667 212.384 103.776 211.309 100.031C210.235 96.2573 208.637 92.893 206.488 89.9382C204.339 86.9834 201.754 84.6137 198.733 82.8584C195.684 81.1031 192.315 80.2254 188.568 80.2254C183.921 80.2254 180.348 81.1031 177.851 82.8584C175.353 84.6137 173.436 87.0126 172.1 90.0552C170.764 93.0978 169.951 96.7839 169.689 101.114C169.428 105.443 169.283 110.095 169.283 115.039C169.283 121.3 169.428 126.215 169.689 129.813C169.951 133.412 170.619 136.191 171.693 138.092C172.768 139.994 174.423 141.252 176.66 141.808C178.896 142.364 181.888 142.656 185.634 142.656C192.954 142.656 198.791 141.223 203.177 138.326C207.563 135.43 210.177 131.188 211.077 125.6H211.048ZM324.32 157.079C323.42 157.547 322.316 158.132 320.98 158.776C319.644 159.42 318.511 160.063 317.64 160.707C313.893 163.106 309.682 165.037 305.064 166.47C300.417 167.904 295.653 168.723 290.745 168.869C285.837 169.015 281.073 168.547 276.426 167.436C271.779 166.324 267.597 164.305 263.85 161.438C262.049 160.005 260.684 156.991 259.697 152.428C258.709 147.864 258.099 142.364 257.809 135.957C257.548 129.55 257.46 122.529 257.548 114.922C257.635 107.316 257.78 99.6217 257.954 91.8398C258.128 84.0579 258.303 76.5685 258.477 69.3717C258.651 62.1749 258.564 55.8265 258.216 50.385C264.46 49.5951 270.037 49.2148 274.945 49.3025C279.853 49.3903 285.43 49.4196 291.674 49.4196C292.023 53.1057 292.197 57.26 292.197 61.9116C292.197 66.5632 292.139 71.361 292.052 76.3344C291.965 81.3079 291.965 86.2813 292.052 91.2254C292.139 96.1988 292.371 100.85 292.72 105.151C292.894 107.082 293.068 109.188 293.243 111.529C293.417 113.84 293.737 116.122 294.172 118.374C294.608 120.627 295.247 122.616 296.06 124.372C296.873 126.127 297.977 127.502 299.4 128.467C299.574 128.614 299.749 128.701 299.923 128.701C300.097 128.701 300.271 128.789 300.446 128.936C301.869 129.579 303.96 130.106 306.748 130.486C309.507 130.896 312.238 130.72 314.91 130.018C317.582 129.287 319.992 127.853 322.142 125.688C324.291 123.523 325.54 120.276 325.888 115.946C326.237 110.505 326.324 105.063 326.15 99.5924C325.975 94.1509 325.743 88.7387 325.482 83.385C325.22 78.0313 325.046 72.6775 324.959 67.4116C324.872 62.1164 325.278 56.8504 326.179 51.5552V50.5898C329.199 49.7999 331.842 49.3025 334.079 49.1563C336.315 49.01 338.581 48.9515 340.904 49.0392C343.228 49.127 345.813 49.244 348.659 49.3903C351.505 49.5366 355.078 49.4781 359.376 49.1563C359.376 68.8743 359.609 88.5632 360.044 108.281C360.48 127.999 360.364 148.42 359.638 169.571C357.488 169.425 355.717 169.308 354.293 169.22C352.87 169.132 351.534 169.103 350.285 169.103C349.036 169.103 347.7 169.132 346.277 169.22C344.854 169.308 343.053 169.425 340.933 169.571C340.207 169.571 338.958 169.688 337.186 169.922C335.386 170.156 333.614 170.361 331.842 170.537C330.042 170.683 328.444 170.741 327.021 170.654C325.598 170.566 324.872 170.303 324.872 169.805C324.523 167.084 324.378 164.832 324.465 163.076C324.552 161.321 324.494 159.303 324.32 157.079ZM449.093 3.78125V1.14827C449.093 1.00199 450.313 0.797207 452.724 0.53391C455.135 0.299867 458.068 0.124335 461.553 0.0658245C465.039 -0.0219415 468.727 -0.0219415 472.677 0.0658245C476.598 0.15359 479.996 0.416888 482.843 0.914229V16.7706C482.843 43.5392 483.278 69.9568 484.179 96.0818C485.079 122.207 485.166 146.781 484.44 169.864C478.893 169.864 472.822 169.981 466.229 170.215C459.636 170.449 453.653 170.244 448.28 169.6C448.106 169.279 448.019 168.723 448.019 167.904C448.019 166.295 447.961 165.007 447.874 164.071C447.786 163.106 447.728 161.76 447.728 159.975C447.38 159.186 446.973 158.571 446.508 158.162C446.073 157.752 445.579 158.045 445.027 159.01C442.355 163.808 438.783 166.909 434.31 168.255C429.837 169.63 425.103 169.981 420.107 169.337C409.942 168.693 401.897 166.324 396.001 162.257C390.105 158.191 385.69 152.954 382.757 146.635C379.823 140.316 377.848 133.207 376.861 125.366C375.873 117.526 375.292 109.598 375.118 101.582C375.118 95.9648 375.525 90.5233 376.309 85.2281C377.122 79.9329 378.371 75.1057 380.056 70.6882C381.74 66.2706 383.977 62.5259 386.736 59.3956C389.495 56.2653 392.835 54.0712 396.785 52.7839C401.606 51.1749 406.921 50.1802 412.73 49.7706C418.539 49.361 424.028 49.361 429.198 49.7706C434.368 50.1802 438.754 50.9408 442.326 52.0525C445.898 53.1642 447.845 54.4515 448.222 55.885C448.048 48.3664 447.961 42.2812 447.961 37.6297V26.4541C447.961 23.6456 447.99 21.4807 448.106 19.9594C448.193 18.4382 448.28 17.0047 448.367 15.6297C448.454 14.2839 448.542 12.7334 448.629 11.0658C448.716 9.36902 448.861 6.94083 449.035 3.752L449.093 3.78125ZM407.589 94.385C406.689 96.6376 406.166 98.9488 405.992 101.348C405.818 103.747 405.731 106.087 405.731 108.311C405.731 112.318 406.253 116.209 407.328 119.954C408.403 123.728 410 127.092 412.149 130.047C414.299 133.002 416.884 135.372 419.904 137.127C422.925 138.882 426.323 139.76 430.07 139.76C434.542 139.76 438.057 138.882 440.642 137.127C443.226 135.372 445.201 132.973 446.538 129.93C447.874 126.888 448.687 123.231 448.948 118.989C449.21 114.747 449.355 110.066 449.355 104.917C449.355 98.6562 449.21 93.7414 448.948 90.143C448.687 86.5446 448.019 83.7653 446.944 81.8637C445.87 79.9328 444.214 78.7041 441.978 78.1483C439.741 77.5924 436.75 77.2999 433.003 77.2999C425.684 77.2999 419.846 78.7334 415.46 81.6297C411.075 84.5259 408.461 88.768 407.56 94.3557L407.589 94.385ZM538.259 1.14827V3.78125C538.433 6.99934 538.578 9.42753 538.665 11.0951C538.753 12.7919 538.84 14.3132 538.927 15.6589C539.014 17.0339 539.101 18.4674 539.188 19.9887C539.275 21.51 539.333 23.6749 539.333 26.4834V37.6589C539.333 42.3105 539.246 48.3956 539.072 55.9142C539.421 54.4807 541.396 53.1935 544.968 52.0818C548.54 50.9701 552.897 50.2094 558.096 49.7999C563.266 49.3903 568.755 49.3903 574.564 49.7999C580.373 50.2094 585.688 51.2041 590.509 52.8132C594.43 54.1004 597.77 56.2945 600.558 59.4249C603.318 62.5552 605.554 66.3291 607.238 70.7174C608.923 75.135 610.172 79.9621 610.985 85.2573C611.798 90.5525 612.176 95.994 612.176 101.611C611.827 109.627 611.188 117.555 610.317 125.396C609.417 133.236 607.5 140.345 604.566 146.664C601.633 152.983 597.189 158.191 591.322 162.287C584.294 167.143 575.755 168.576 567.216 169.366C552.519 170.741 544.939 169.513 528.761 169.279C520.919 169.162 512.293 169.279 502.941 169.834C502.593 158.308 502.447 146.313 502.535 133.909C502.622 121.505 502.796 108.837 503.057 95.9355C503.319 83.0339 503.638 69.9568 503.987 56.6456C504.335 43.3637 504.509 30.0525 504.509 16.7706V0.914229C507.356 0.446144 510.754 0.15359 514.675 0.0658245C518.596 -0.0219415 522.313 -0.0219415 525.799 0.0658245C529.284 0.15359 532.218 0.299867 534.628 0.53391C537.039 0.767952 538.259 0.972739 538.259 1.14827ZM579.763 94.385C578.862 88.768 576.248 84.5259 571.863 81.6589C567.477 78.7919 561.639 77.3291 554.32 77.3291C550.573 77.3291 547.582 77.6217 545.345 78.1775C543.109 78.7334 541.454 79.9914 540.379 81.893C539.304 83.8238 538.636 86.5738 538.375 90.1722C538.114 93.7706 537.968 98.7148 537.968 104.946C537.968 110.066 538.114 114.747 538.375 119.018C538.636 123.26 539.45 126.917 540.786 129.959C542.122 133.002 544.039 135.401 546.536 137.156C549.034 138.912 552.607 139.789 557.254 139.789C561 139.789 564.398 138.912 567.419 137.156C570.44 135.401 573.054 133.031 575.174 130.076C577.323 127.122 578.92 123.757 579.995 119.983C581.07 116.209 581.592 112.348 581.592 108.34C581.592 106.087 581.505 103.776 581.331 101.377C581.157 98.9781 580.605 96.6669 579.734 94.4142L579.763 94.385ZM693.035 157.108C692.134 157.576 691.031 158.162 689.695 158.805C688.359 159.449 687.226 160.092 686.354 160.736C682.608 163.135 678.396 165.066 673.778 166.499C669.131 167.933 664.368 168.752 659.46 168.898C654.551 169.045 649.788 168.576 645.141 167.465C640.494 166.353 636.312 164.334 632.565 161.467C630.764 160.034 629.399 157.021 628.412 152.457C627.424 147.893 626.814 142.393 626.524 135.986C626.262 129.579 626.175 122.558 626.262 114.951C626.349 107.345 626.495 99.6509 626.669 91.869C626.843 84.0871 627.017 76.5977 627.192 69.4009C627.366 62.2041 627.279 55.8557 626.93 50.4142C633.175 49.6243 638.751 49.244 643.66 49.3318C648.568 49.4196 654.145 49.4488 660.389 49.4488C660.738 53.135 660.912 57.2892 660.912 61.9408C660.912 66.5924 660.854 71.3903 660.767 76.3637C660.68 81.3371 660.68 86.3105 660.767 91.2547C660.854 96.2281 661.086 100.88 661.435 105.18C661.609 107.111 661.783 109.217 661.958 111.558C662.132 113.869 662.451 116.151 662.887 118.404C663.323 120.656 663.962 122.646 664.775 124.401C665.588 126.156 666.692 127.531 668.115 128.497C668.289 128.643 668.463 128.731 668.638 128.731C668.812 128.731 668.986 128.818 669.16 128.965C670.584 129.608 672.675 130.135 675.463 130.515C678.222 130.925 680.952 130.749 683.624 130.047C686.296 129.316 688.707 127.882 690.856 125.717C693.006 123.553 694.255 120.305 694.603 115.975C694.952 110.534 695.039 105.092 694.864 99.6217C694.69 94.1802 694.458 88.768 694.196 83.4142C693.935 78.0605 693.761 72.7068 693.674 67.4408C693.587 62.1456 693.993 56.8797 694.893 51.5844V50.619C697.914 49.8291 700.557 49.3318 702.793 49.1855C705.03 49.0392 707.295 48.9807 709.619 49.0685C711.942 49.1563 714.527 49.2733 717.374 49.4196C720.22 49.5658 723.792 49.5073 728.091 49.1855C728.091 68.9036 728.323 88.5924 728.759 108.311C729.195 128.029 729.078 148.449 728.352 169.6C726.203 169.454 724.431 169.337 723.008 169.249C721.585 169.162 720.249 169.132 719 169.132C717.751 169.132 716.415 169.162 714.992 169.249C713.569 169.337 711.768 169.454 709.648 169.6C708.922 169.6 707.673 169.717 705.901 169.951C704.1 170.186 702.329 170.39 700.557 170.566C698.756 170.712 697.159 170.771 695.736 170.683C694.313 170.595 693.586 170.332 693.586 169.834C693.238 167.114 693.093 164.861 693.18 163.106C693.267 161.35 693.209 159.332 693.035 157.108ZM817.808 3.78125V1.14827C817.808 1.00199 819.028 0.797207 821.439 0.53391C823.849 0.299867 826.783 0.124335 830.268 0.0658245C833.753 -0.0219415 837.442 -0.0219415 841.392 0.0658245C845.313 0.15359 848.711 0.416888 851.557 0.914229V16.7706C851.557 43.5392 851.993 69.9568 852.893 96.0818C853.794 122.207 853.881 146.781 853.155 169.864C847.607 169.864 841.537 169.981 834.944 170.215C828.351 170.449 822.368 170.244 816.995 169.6C816.821 169.279 816.733 168.723 816.733 167.904C816.733 166.295 816.675 165.007 816.588 164.071C816.501 163.106 816.443 161.76 816.443 159.975C816.095 159.186 815.688 158.571 815.223 158.162C814.787 157.752 814.294 158.045 813.742 159.01C811.07 163.808 807.497 166.909 803.025 168.255C798.552 169.63 793.818 169.981 788.822 169.337C778.657 168.693 770.611 166.324 764.716 162.257C758.82 158.191 754.405 152.954 751.471 146.635C748.538 140.316 746.563 133.207 745.575 125.366C744.588 117.526 744.007 109.598 743.833 101.582C743.833 95.9648 744.239 90.5233 745.024 85.2281C745.837 79.9329 747.086 75.1057 748.77 70.6882C750.455 66.2706 752.691 62.5259 755.45 59.3956C758.21 56.2653 761.55 54.0712 765.5 52.7839C770.321 51.1749 775.636 50.1802 781.445 49.7706C787.254 49.361 792.743 49.361 797.913 49.7706C803.083 50.1802 807.468 50.9408 811.041 52.0525C814.613 53.1642 816.559 54.4515 816.937 55.885C816.762 48.3664 816.675 42.2812 816.675 37.6297V26.4541C816.675 23.6456 816.704 21.4807 816.821 19.9594C816.908 18.4382 816.995 17.0047 817.082 15.6297C817.169 14.2839 817.256 12.7334 817.343 11.0658C817.431 9.36902 817.576 6.94083 817.75 3.752L817.808 3.78125ZM776.304 94.385C775.404 96.6376 774.881 98.9488 774.707 101.348C774.532 103.747 774.445 106.087 774.445 108.311C774.445 112.318 774.968 116.209 776.043 119.954C777.117 123.728 778.715 127.092 780.864 130.047C783.013 133.002 785.598 135.372 788.619 137.127C791.639 138.882 795.037 139.76 798.784 139.76C803.257 139.76 806.771 138.882 809.356 137.127C811.941 135.372 813.916 132.973 815.252 129.93C816.588 126.888 817.401 123.231 817.663 118.989C817.924 114.747 818.069 110.066 818.069 104.917C818.069 98.6562 817.924 93.7414 817.663 90.143C817.401 86.5446 816.733 83.7653 815.659 81.8637C814.584 79.9328 812.929 78.7041 810.692 78.1483C808.456 77.5924 805.464 77.2999 801.718 77.2999C794.399 77.2999 788.561 78.7334 784.175 81.6297C779.789 84.5259 777.175 88.768 776.275 94.3557L776.304 94.385ZM979.003 86.9249C973.281 87.7148 967.008 88.2121 960.124 88.3584C953.241 88.5339 946.793 88.0366 940.723 86.9249C941.246 84.994 941.042 83.0924 940.055 81.1616C939.067 79.2307 937.644 77.5632 935.756 76.1297C933.868 74.6962 931.748 73.6137 929.337 72.8823C926.927 72.1509 924.574 71.8876 922.251 72.0339C918.126 72.6775 915.077 74.0818 913.015 76.2467C910.953 78.4116 909.936 80.7813 909.936 83.3265C909.936 85.8717 911.011 88.4462 913.16 91.0206C915.309 93.5951 918.417 95.4967 922.541 96.7839C932.532 98.0712 941.914 99.7972 950.656 101.962C959.398 104.127 965.817 107.608 969.941 112.406C973.862 118.17 976.273 124.05 977.173 130.076C978.073 136.074 976.824 143.505 973.426 152.311C969.331 160.151 962.883 165.768 954.141 169.132C945.399 172.497 935.843 174.106 925.504 173.93C916.413 174.252 908.193 173.521 900.874 171.765C893.555 170.01 887.253 167.348 881.996 163.837C876.739 160.326 872.614 155.997 869.681 150.877C866.747 145.757 865.266 139.994 865.266 133.587V132.388C871.162 131.744 877.842 131.539 885.365 131.773C892.858 132.007 899.364 132.124 904.911 132.124C905.086 135.811 907.003 138.824 910.662 141.135C914.322 143.446 918.214 144.821 922.309 145.231C926.404 145.64 930.151 144.967 933.549 143.183C936.947 141.428 938.544 138.209 938.37 133.558C938.893 129.725 937.934 126.829 935.437 124.898C932.939 122.967 929.628 121.505 925.533 120.451C921.408 119.428 916.79 118.491 911.62 117.701C906.451 116.912 901.339 115.537 896.343 113.606C886.352 110.563 879.062 105.795 874.531 99.2999C869.971 92.8052 867.851 86.0765 868.112 79.1137C868.374 72.1509 870.872 65.6855 875.606 59.7759C880.34 53.8371 887.078 49.8584 895.82 47.752C899.219 46.9621 903.372 46.3185 908.28 45.8211C913.189 45.3531 918.417 45.0898 923.935 45.0898C929.453 45.0898 935.001 45.3823 940.548 45.9382C946.067 46.494 951.179 47.2547 955.797 48.2201C964.19 51.4382 970.173 56.4993 973.746 63.4914C977.318 70.4541 979.09 78.2653 979.09 86.9249H979.003ZM120.866 63.9594H120.605C114.36 64.8664 107.651 65.4222 100.535 65.627C93.3904 65.861 86.7102 65.2174 80.4367 63.7254C81.5113 59.7174 80.5239 56.3531 77.5033 53.6616C74.4536 50.9701 70.8231 49.2733 66.5246 48.5126C62.2261 47.7813 58.1018 48.1323 54.0647 49.6243C50.0566 51.1164 47.675 53.9541 46.9779 58.1084C46.6294 59.1616 46.4842 60.1562 46.5713 61.1217C46.6584 62.0871 46.8037 63.111 46.9779 64.135C48.4011 67.7041 50.7246 70.1031 53.9485 71.2733C57.1724 72.4727 60.6287 73.2919 64.4044 73.7307C73.8728 74.6084 82.6441 77.1536 90.7764 81.3371C98.8797 85.4914 105.531 90.7866 110.73 97.1935C113.954 100.616 116.364 104.303 117.962 108.252C119.559 112.201 120.518 116.268 120.779 120.422C121.04 124.606 120.692 128.789 119.704 133.031C118.717 137.273 117.148 141.34 115.028 145.201C112.879 149.824 110.033 153.773 106.46 157.05C102.888 160.326 98.8216 163.018 94.2617 165.095C89.7018 167.172 84.7933 168.693 79.5363 169.688C74.2794 170.654 68.8772 171.063 63.3297 170.917C55.4588 170.771 47.675 169.63 39.8912 167.465C32.1364 165.3 25.1949 162.287 19.1246 158.425C13.0544 154.563 8.23311 149.824 4.66068 144.236C1.08826 138.648 -0.422031 132.3 0.100763 125.132V123.787C6.34524 123.055 13.2287 122.85 20.7221 123.231C28.2154 123.611 35.0118 123.728 41.082 123.553C41.4305 128.321 43.725 131.89 47.9073 134.26C52.0897 136.63 56.5625 137.8 61.2967 137.712C66.0309 137.624 70.1261 136.337 73.6114 133.792C77.0966 131.247 78.2875 127.385 77.2128 122.178C76.69 118.608 75.0636 115.741 72.3915 113.576C69.7195 111.412 66.5536 109.656 62.8941 108.34C59.2345 106.994 55.2555 105.999 50.986 105.326C46.7165 104.654 42.6794 104.039 38.9327 103.425C35.3603 102.84 32.0493 101.874 29.0287 100.529C25.979 99.1829 23.2199 97.6323 20.7221 95.8477C12.5026 89.2945 7.18752 82.0685 4.77686 74.1988C2.3662 66.3291 2.22098 58.635 4.37024 51.2041C6.51951 43.7733 10.5566 36.986 16.5397 30.8717C22.5228 24.7573 29.7838 20.2227 38.3518 17.2387C42.6504 15.7467 47.3555 14.752 52.5544 14.2254C57.7242 13.6988 62.9522 13.5525 68.2092 13.7866C73.4661 14.0206 78.665 14.635 83.7477 15.6882C88.8305 16.7414 93.5065 18.0578 97.8051 19.6961C106.373 23.4116 112.966 28.9408 117.613 36.2254C122.26 43.51 123.306 52.7547 120.837 63.9009L120.866 63.9594Z" fill="#F1F0EC"/>
<path d="M1169.29 79.4945C1168.57 54.452 1151.78 53.4865 1134.79 62.2339C1126.74 66.3881 1119.45 71.9759 1112.74 78.2073C1111.09 79.7578 1108.97 80.8403 1106.09 82.8004C1107.31 71.8589 1110.36 62.5849 1111.03 52.8429C1112.16 36.8988 1109.17 23.0903 1095.55 13.2605C1092.18 12.4998 1088.78 11.7685 1085.41 11.0078C1078.7 11.0663 1075.13 15.1621 1073.56 21.0716C1071.21 29.9068 1068.92 38.7711 1068.13 47.9573C1067.9 50.6488 1068.25 53.5451 1066.27 56.178C1059.13 51.702 1051.69 48.6887 1043.68 47.8695C1033.19 46.8163 1027.44 51.3216 1024.59 61.2977C1021.92 70.7179 1022.85 79.319 1028.54 87.3642C1031.68 91.7818 1034.09 96.7552 1037.9 100.675C1041.18 104.04 1040.51 106.76 1037.9 110.33C1028.17 123.553 1020.62 137.976 1015.45 153.628C1013.62 159.186 1013.5 164.657 1015.33 170.303C1021.28 188.909 1047.98 194.965 1060.09 185.984C1068.1 180.045 1076.15 174.135 1081.58 165.388C1084.72 160.356 1085.09 160.327 1087.88 165.973C1091.16 172.585 1095.75 177.968 1101.94 181.859C1111.12 187.593 1119.98 187.096 1127.79 180.718C1134.99 174.867 1137.52 165.564 1134.06 155.822C1130.63 146.167 1124.77 138.181 1116.69 131.862C1115.13 130.633 1112.92 129.931 1112.02 127.444C1122.79 124.811 1133.31 122.324 1143.41 118.404C1153.87 114.367 1162.64 108.662 1166.27 97.194C1167.49 91.6647 1168.68 86.1062 1169.9 80.577C1169.7 80.1967 1169.32 79.8163 1169.29 79.436V79.4945ZM1044.49 69.7818C1045.97 68.4653 1048.12 69.8988 1049.86 70.8642C1059.39 76.2764 1063.43 86.077 1070.14 95.9068C1061.71 94.5025 1056.66 91.0211 1052.85 85.7844C1050.3 82.2738 1048.06 78.5291 1045.86 74.7844C1044.95 73.2631 1042.54 71.5078 1044.52 69.7818H1044.49ZM1069.15 140.755C1067.43 152.282 1060.06 160.854 1049.92 167.582C1045.59 170.449 1041.82 169.572 1037.9 167.202C1033.89 164.745 1035.31 161.117 1036.27 157.87C1039.64 146.518 1045.48 136.367 1051.93 126.625C1055.47 121.271 1060.35 124.811 1064.27 125.923C1067.96 126.976 1070.75 130.135 1070.4 134.67C1070.28 136.396 1069.7 138.064 1069.12 140.755H1069.15ZM1095.29 52.6381C1094.79 57.4653 1093.46 64.6913 1089.48 73.1169C1088.67 71.7419 1087.56 69.7818 1086.57 67.2658C1083.84 60.4786 1083.73 54.7738 1083.67 49.7126C1083.58 41.7259 1083.53 36.928 1086.57 35.0849C1088.26 34.061 1090.67 34.0903 1092.38 35.0849C1096.83 37.6887 1095.9 46.6701 1095.29 52.6381ZM1115.62 157.957C1117.39 160.415 1119.71 163.633 1118.58 166.061C1117.97 167.348 1116.46 168.314 1114.98 168.372C1111.18 168.518 1108.21 162.58 1106.27 158.63C1104.67 155.441 1102.67 150.409 1101.82 143.593C1102.87 144.851 1104.61 146.87 1106.93 149.181C1111.06 153.276 1113.06 154.388 1115.65 157.957H1115.62ZM1149.54 82.7711C1148.87 90.8456 1144.61 95.6435 1137 98.335C1127.27 101.787 1117.65 105.444 1106.88 105.941C1120.82 98.8908 1130.26 85.5211 1144.49 78.8802C1146 78.178 1147.45 76.5983 1149.19 77.9147C1150.97 79.2605 1149.66 81.1036 1149.54 82.7711Z" fill="#F1F0EC"/>
</svg>
