<?xml version="1.0" encoding="UTF-8"?>
<svg id="Layer_1" data-name="Layer 1" xmlns="http://www.w3.org/2000/svg" viewBox="0 0 1169.9 219.99">
  <defs>
    <style>
      .cls-1 {
        fill: #bd7fdf;
      }
    </style>
  </defs>
  <path class="cls-1" d="M169.54,216.2v2.63c0,.15-1.22.35-3.63.61-2.41.24-5.34.41-8.83.47-3.49.09-7.17.09-11.12,0-3.92-.09-7.32-.35-10.17-.85v-15.86c0-13.31-.18-26.59-.52-39.88-.35-13.31-.67-26.39-.93-39.29-.26-12.9-.44-25.54-.52-37.97-.09-12.4.03-24.4.41-35.93,5.52,0,11.62-.12,18.21-.35,6.59-.23,12.58-.03,17.95.61.18.32.26.88.26,1.7,0,1.61.03,2.9.15,3.83.09.97.15,2.31.15,4.1.35.79.75,1.4,1.19,1.81.44.41.93.12,1.48-.85,2.67-4.8,6.24-7.9,10.72-9.24,4.47-1.35,9.21-1.73,14.2-1.08,10.17.64,18.21,3.01,24.11,7.08,5.9,4.07,10.31,9.3,13.24,15.62,2.93,6.32,4.85,13.43,5.75,21.27.9,7.84,1.51,15.77,1.86,23.78,0,5.62-.41,11.06-1.19,16.32-.81,5.3-2.06,10.12-3.75,14.54-1.68,4.42-3.92,8.16-6.68,11.29-2.76,3.13-6.13,5.32-10.05,6.61-4.82,1.61-10.14,2.6-15.94,3.01-5.81.41-11.3.41-16.47,0-5.17-.41-9.56-1.17-13.13-2.28-3.57-1.11-5.55-2.4-5.9-3.83.18,7.52.26,13.6.26,18.26v11.18c0,2.81-.06,4.97-.15,6.49-.09,1.52-.17,2.96-.26,4.33-.09,1.35-.17,2.9-.26,4.56-.09,1.7-.23,4.12-.41,7.34l-.03-.06ZM211.05,125.6c.9-2.25,1.42-4.56,1.6-6.96.18-2.4.26-4.71.26-6.96,0-4.01-.52-7.9-1.6-11.64-1.07-3.77-2.67-7.14-4.82-10.09-2.15-2.95-4.73-5.32-7.76-7.08-3.05-1.76-6.42-2.63-10.17-2.63-4.65,0-8.22.88-10.72,2.63-2.5,1.76-4.41,4.15-5.75,7.2-1.34,3.04-2.15,6.73-2.41,11.06-.26,4.33-.41,8.98-.41,13.93,0,6.26.14,11.18.41,14.77.26,3.6.93,6.38,2,8.28,1.08,1.9,2.73,3.16,4.97,3.72,2.24.56,5.23.85,8.97.85,7.32,0,13.16-1.43,17.54-4.33,4.39-2.9,7-7.14,7.9-12.73h-.03ZM324.32,157.08c-.9.47-2,1.05-3.34,1.7s-2.47,1.29-3.34,1.93c-3.75,2.4-7.96,4.33-12.58,5.76-4.65,1.43-9.41,2.25-14.32,2.4-4.91.15-9.67-.32-14.32-1.43-4.65-1.11-8.83-3.13-12.58-6-1.8-1.43-3.17-4.45-4.15-9.01-.99-4.56-1.6-10.06-1.89-16.47-.26-6.41-.35-13.43-.26-21.04.09-7.61.23-15.3.41-23.08.17-7.78.35-15.27.52-22.47.17-7.2.09-13.55-.26-18.99,6.24-.79,11.82-1.17,16.73-1.08,4.91.09,10.48.12,16.73.12.35,3.69.52,7.84.52,12.49s-.06,9.45-.14,14.42c-.09,4.97-.09,9.95,0,14.89.09,4.97.32,9.62.67,13.93.17,1.93.35,4.04.52,6.38.17,2.31.49,4.59.93,6.85.44,2.25,1.08,4.24,1.89,6,.81,1.75,1.92,3.13,3.34,4.09.17.15.35.23.52.23s.35.09.52.24c1.42.64,3.51,1.17,6.3,1.55,2.76.41,5.49.23,8.16-.47,2.67-.73,5.08-2.17,7.23-4.33,2.15-2.17,3.4-5.41,3.75-9.74.35-5.44.44-10.88.26-16.35-.17-5.44-.41-10.85-.67-16.21-.26-5.35-.44-10.71-.52-15.97-.09-5.3.32-10.56,1.22-15.86v-.97c3.02-.79,5.66-1.29,7.9-1.43,2.24-.15,4.5-.2,6.82-.12,2.32.09,4.91.2,7.76.35,2.85.15,6.42.09,10.72-.23,0,19.72.23,39.41.67,59.12.44,19.72.32,40.14-.41,61.29-2.15-.15-3.92-.26-5.35-.35-1.42-.09-2.76-.12-4.01-.12s-2.58.03-4.01.12-3.22.21-5.34.35c-.73,0-1.98.12-3.75.35-1.8.23-3.57.44-5.34.62-1.8.15-3.4.2-4.82.12-1.42-.09-2.15-.35-2.15-.85-.35-2.72-.49-4.97-.41-6.73.09-1.76.03-3.77-.14-6ZM449.09,3.78V1.15c0-.15,1.22-.35,3.63-.61,2.41-.23,5.34-.41,8.83-.47,3.49-.09,7.17-.09,11.12,0,3.92.09,7.32.35,10.17.85v15.86c0,26.77.44,53.19,1.34,79.31.9,26.13.99,50.7.26,73.78-5.55,0-11.62.12-18.21.35-6.59.23-12.58.03-17.95-.61-.17-.32-.26-.88-.26-1.7,0-1.61-.06-2.9-.15-3.83-.09-.96-.15-2.31-.15-4.1-.35-.79-.76-1.4-1.22-1.81-.43-.41-.93-.12-1.48.85-2.67,4.8-6.24,7.9-10.72,9.25-4.47,1.38-9.21,1.73-14.2,1.08-10.17-.64-18.21-3.01-24.11-7.08-5.9-4.07-10.31-9.3-13.24-15.62-2.93-6.32-4.91-13.43-5.9-21.27-.99-7.84-1.57-15.77-1.74-23.78,0-5.62.41-11.06,1.19-16.35.81-5.3,2.06-10.12,3.75-14.54,1.68-4.42,3.92-8.16,6.68-11.29,2.76-3.13,6.1-5.32,10.05-6.61,4.82-1.61,10.14-2.6,15.95-3.01,5.81-.41,11.3-.41,16.47,0,5.17.41,9.56,1.17,13.13,2.28,3.57,1.11,5.52,2.4,5.9,3.83-.17-7.52-.26-13.6-.26-18.26v-11.18c0-2.81.03-4.97.14-6.49.09-1.52.17-2.95.26-4.33.09-1.35.17-2.9.26-4.56.09-1.7.23-4.12.41-7.31l.06.03ZM407.59,94.39c-.9,2.25-1.42,4.56-1.6,6.96-.17,2.4-.26,4.74-.26,6.96,0,4.01.52,7.9,1.6,11.64,1.08,3.77,2.67,7.14,4.82,10.09,2.15,2.96,4.74,5.32,7.76,7.08,3.02,1.76,6.42,2.63,10.17,2.63,4.47,0,7.99-.88,10.57-2.63,2.58-1.76,4.56-4.15,5.9-7.2,1.34-3.04,2.15-6.7,2.41-10.94.26-4.24.41-8.92.41-14.07,0-6.26-.15-11.18-.41-14.77-.26-3.6-.93-6.38-2-8.28-1.07-1.93-2.73-3.16-4.97-3.72-2.24-.56-5.23-.85-8.98-.85-7.32,0-13.16,1.43-17.54,4.33-4.38,2.9-7,7.14-7.9,12.73l.03.03ZM538.26,1.15v2.63c.17,3.22.32,5.65.41,7.31.09,1.7.18,3.22.26,4.56.09,1.37.17,2.81.26,4.33.09,1.52.15,3.69.15,6.49v11.18c0,4.65-.09,10.74-.26,18.26.35-1.43,2.32-2.72,5.9-3.83,3.57-1.11,7.93-1.87,13.13-2.28,5.17-.41,10.66-.41,16.47,0,5.81.41,11.12,1.4,15.94,3.01,3.92,1.29,7.26,3.48,10.05,6.61,2.76,3.13,5,6.9,6.68,11.29,1.68,4.42,2.93,9.24,3.75,14.54.81,5.3,1.19,10.74,1.19,16.35-.35,8.02-.99,15.94-1.86,23.79-.9,7.84-2.82,14.95-5.75,21.27-2.93,6.32-7.38,11.53-13.24,15.62-7.03,4.86-15.57,6.29-24.11,7.08-14.7,1.38-22.28.15-38.46-.09-7.84-.12-16.47,0-25.82.55-.35-11.53-.49-23.52-.41-35.93.09-12.4.26-25.07.52-37.97.26-12.9.58-25.98.93-39.29.35-13.28.52-26.59.52-39.88V.91c2.85-.47,6.24-.76,10.17-.85,3.92-.09,7.64-.09,11.12,0,3.48.09,6.42.23,8.83.47,2.41.23,3.63.44,3.63.61ZM579.76,94.39c-.9-5.62-3.52-9.86-7.9-12.73-4.39-2.87-10.22-4.33-17.54-4.33-3.75,0-6.74.29-8.98.85-2.24.56-3.89,1.81-4.97,3.72-1.08,1.93-1.74,4.68-2,8.28-.26,3.6-.41,8.54-.41,14.77,0,5.12.15,9.8.41,14.07.26,4.24,1.08,7.9,2.41,10.94,1.34,3.04,3.25,5.44,5.75,7.2,2.5,1.76,6.07,2.63,10.72,2.63,3.75,0,7.14-.88,10.16-2.63,3.02-1.76,5.64-4.12,7.76-7.08,2.15-2.95,3.75-6.32,4.82-10.09s1.6-7.64,1.6-11.64c0-2.25-.09-4.56-.26-6.96-.17-2.4-.73-4.71-1.6-6.96l.03-.03ZM693.03,157.11c-.9.47-2,1.05-3.34,1.7-1.34.64-2.47,1.29-3.34,1.93-3.75,2.4-7.96,4.33-12.58,5.76-4.65,1.43-9.41,2.25-14.32,2.4-4.91.15-9.67-.32-14.32-1.43-4.65-1.11-8.83-3.13-12.58-6-1.8-1.43-3.17-4.45-4.15-9.01-.99-4.56-1.6-10.06-1.89-16.47-.26-6.41-.35-13.43-.26-21.03.09-7.61.23-15.3.41-23.08.17-7.78.35-15.27.52-22.47.17-7.2.09-13.55-.26-18.99,6.24-.79,11.82-1.17,16.73-1.08,4.91.09,10.49.12,16.73.12.35,3.69.52,7.84.52,12.49s-.06,9.45-.14,14.42c-.09,4.97-.09,9.95,0,14.89.09,4.97.32,9.63.67,13.93.17,1.93.35,4.04.52,6.38.17,2.31.49,4.59.93,6.85.44,2.25,1.07,4.24,1.89,6,.81,1.75,1.92,3.13,3.34,4.1.17.15.35.23.52.23s.35.09.52.23c1.42.64,3.52,1.17,6.3,1.55,2.76.41,5.49.23,8.16-.47,2.67-.73,5.08-2.16,7.23-4.33,2.15-2.16,3.4-5.41,3.75-9.74.35-5.44.44-10.88.26-16.35-.17-5.44-.41-10.85-.67-16.21-.26-5.35-.43-10.71-.52-15.97-.09-5.3.32-10.56,1.22-15.86v-.97c3.02-.79,5.66-1.29,7.9-1.43,2.24-.15,4.5-.2,6.83-.12,2.32.09,4.91.2,7.76.35,2.85.15,6.42.09,10.72-.23,0,19.72.23,39.41.67,59.13.44,19.72.32,40.14-.41,61.29-2.15-.15-3.92-.26-5.34-.35-1.42-.09-2.76-.12-4.01-.12s-2.59.03-4.01.12c-1.42.09-3.22.21-5.34.35-.73,0-1.98.12-3.75.35-1.8.24-3.57.44-5.34.61-1.8.15-3.4.21-4.82.12-1.42-.09-2.15-.35-2.15-.85-.35-2.72-.49-4.97-.41-6.73.09-1.76.03-3.77-.15-6ZM817.81,3.78V1.15c0-.15,1.22-.35,3.63-.61,2.41-.23,5.34-.41,8.83-.47,3.48-.09,7.17-.09,11.12,0,3.92.09,7.32.35,10.16.85v15.86c0,26.77.44,53.19,1.34,79.31.9,26.13.99,50.7.26,73.78-5.55,0-11.62.12-18.21.35-6.59.23-12.58.03-17.95-.61-.17-.32-.26-.88-.26-1.7,0-1.61-.06-2.9-.14-3.83-.09-.96-.15-2.31-.15-4.1-.35-.79-.76-1.4-1.22-1.81-.44-.41-.93-.12-1.48.85-2.67,4.8-6.24,7.9-10.72,9.25-4.47,1.38-9.21,1.73-14.2,1.08-10.17-.64-18.21-3.01-24.11-7.08-5.9-4.07-10.31-9.3-13.24-15.62-2.93-6.32-4.91-13.43-5.9-21.27-.99-7.84-1.57-15.77-1.74-23.78,0-5.62.41-11.06,1.19-16.35.81-5.3,2.06-10.12,3.75-14.54,1.68-4.42,3.92-8.16,6.68-11.29,2.76-3.13,6.1-5.32,10.05-6.61,4.82-1.61,10.14-2.6,15.95-3.01s11.3-.41,16.47,0c5.17.41,9.55,1.17,13.13,2.28,3.57,1.11,5.52,2.4,5.9,3.83-.17-7.52-.26-13.6-.26-18.26v-11.18c0-2.81.03-4.97.15-6.49.09-1.52.17-2.95.26-4.33.09-1.35.17-2.9.26-4.56.09-1.7.23-4.12.41-7.31l.06.03ZM776.3,94.39c-.9,2.25-1.42,4.56-1.6,6.96-.17,2.4-.26,4.74-.26,6.96,0,4.01.52,7.9,1.6,11.64,1.07,3.77,2.67,7.14,4.82,10.09,2.15,2.96,4.73,5.32,7.76,7.08,3.02,1.76,6.42,2.63,10.16,2.63,4.47,0,7.99-.88,10.57-2.63,2.58-1.76,4.56-4.15,5.9-7.2,1.34-3.04,2.15-6.7,2.41-10.94.26-4.24.41-8.92.41-14.07,0-6.26-.14-11.18-.41-14.77-.26-3.6-.93-6.38-2-8.28-1.08-1.93-2.73-3.16-4.97-3.72-2.24-.56-5.23-.85-8.97-.85-7.32,0-13.16,1.43-17.54,4.33-4.39,2.9-7,7.14-7.9,12.73l.03.03ZM979,86.92c-5.72.79-11.99,1.29-18.88,1.43-6.88.18-13.33-.32-19.4-1.43.52-1.93.32-3.83-.67-5.76-.99-1.93-2.41-3.6-4.3-5.03s-4.01-2.52-6.42-3.25c-2.41-.73-4.76-.99-7.09-.85-4.12.64-7.17,2.05-9.24,4.21-2.06,2.16-3.08,4.53-3.08,7.08s1.08,5.12,3.22,7.69c2.15,2.57,5.26,4.48,9.38,5.76,9.99,1.29,19.37,3.01,28.11,5.18,8.74,2.17,15.16,5.65,19.28,10.44,3.92,5.76,6.33,11.64,7.23,17.67.9,6-.35,13.43-3.75,22.24-4.1,7.84-10.54,13.46-19.29,16.82-8.74,3.36-18.3,4.97-28.64,4.8-9.09.32-17.31-.41-24.63-2.16-7.32-1.76-13.62-4.42-18.88-7.93-5.26-3.51-9.38-7.84-12.31-12.96-2.93-5.12-4.42-10.88-4.42-17.29v-1.2c5.9-.64,12.58-.85,20.1-.62,7.49.23,14,.35,19.55.35.17,3.69,2.09,6.7,5.75,9.01,3.66,2.31,7.55,3.69,11.65,4.1,4.09.41,7.84-.26,11.24-2.05,3.4-1.76,4.99-4.97,4.82-9.62.52-3.83-.44-6.73-2.93-8.66-2.5-1.93-5.81-3.39-9.9-4.45-4.12-1.02-8.74-1.96-13.91-2.75-5.17-.79-10.28-2.16-15.28-4.09-9.99-3.04-17.28-7.81-21.81-14.31-4.56-6.49-6.68-13.22-6.42-20.19.26-6.96,2.76-13.43,7.49-19.34,4.73-5.94,11.47-9.92,20.21-12.02,3.4-.79,7.55-1.43,12.46-1.93,4.91-.47,10.14-.73,15.65-.73s11.07.29,16.61.85c5.52.56,10.63,1.32,15.25,2.28,8.39,3.22,14.38,8.28,17.95,15.27,3.57,6.96,5.34,14.77,5.34,23.43h-.09ZM120.87,63.96h-.26c-6.25.91-12.95,1.46-20.07,1.67-7.14.23-13.82-.41-20.1-1.9,1.07-4.01.09-7.37-2.93-10.06-3.05-2.69-6.68-4.39-10.98-5.15-4.3-.73-8.42-.38-12.46,1.11-4.01,1.49-6.39,4.33-7.09,8.48-.35,1.05-.49,2.05-.41,3.01.09.97.23,1.99.41,3.01,1.42,3.57,3.75,5.97,6.97,7.14,3.22,1.2,6.68,2.02,10.46,2.46,9.47.88,18.24,3.42,26.37,7.61,8.1,4.15,14.75,9.45,19.95,15.86,3.22,3.42,5.63,7.11,7.23,11.06,1.6,3.95,2.56,8.02,2.82,12.17.26,4.18-.09,8.37-1.07,12.61-.99,4.24-2.56,8.31-4.68,12.17-2.15,4.62-5,8.57-8.57,11.85-3.57,3.28-7.64,5.97-12.2,8.04-4.56,2.08-9.47,3.6-14.73,4.59-5.26.97-10.66,1.38-16.21,1.23-7.87-.15-15.65-1.29-23.44-3.45-7.75-2.16-14.7-5.18-20.77-9.04-6.07-3.86-10.89-8.6-14.46-14.19-3.57-5.59-5.08-11.94-4.56-19.1v-1.35c6.24-.73,13.13-.94,20.62-.56,7.49.38,14.29.5,20.36.32.35,4.77,2.64,8.34,6.83,10.71,4.18,2.37,8.66,3.54,13.39,3.45,4.73-.09,8.83-1.38,12.31-3.92,3.49-2.55,4.68-6.41,3.6-11.61-.52-3.57-2.15-6.44-4.82-8.6-2.67-2.16-5.84-3.92-9.5-5.24-3.66-1.35-7.64-2.34-11.91-3.01-4.27-.67-8.31-1.29-12.05-1.9-3.57-.59-6.88-1.55-9.9-2.9-3.05-1.35-5.81-2.9-8.31-4.68-8.22-6.55-13.53-13.78-15.95-21.65-2.41-7.87-2.56-15.56-.41-22.99,2.15-7.43,6.19-14.22,12.17-20.33,5.98-6.11,13.24-10.65,21.81-13.63,4.3-1.49,9-2.49,14.2-3.01,5.17-.53,10.4-.67,15.65-.44,5.26.23,10.46.85,15.54,1.9,5.08,1.05,9.76,2.37,14.06,4.01,8.57,3.72,15.16,9.24,19.81,16.53,4.65,7.28,5.69,16.53,3.22,27.68l.03.06Z"/>
  <path class="cls-1" d="M1169.29,79.49c-.72-25.04-17.51-26.01-34.5-17.26-8.05,4.15-15.34,9.74-22.05,15.97-1.65,1.55-3.77,2.63-6.65,4.59,1.22-10.94,4.27-20.22,4.94-29.96,1.13-15.94-1.86-29.75-15.48-39.58-3.37-.76-6.77-1.49-10.14-2.25-6.71.06-10.28,4.15-11.85,10.06-2.35,8.84-4.64,17.7-5.43,26.89-.23,2.69.12,5.59-1.86,8.22-7.14-4.48-14.58-7.49-22.59-8.31-10.49-1.05-16.24,3.45-19.09,13.43-2.67,9.42-1.74,18.02,3.95,26.07,3.14,4.42,5.55,9.39,9.36,13.31,3.28,3.36,2.61,6.08,0,9.65-9.73,13.22-17.28,27.65-22.45,43.3-1.83,5.56-1.95,11.03-.12,16.67,5.95,18.61,32.65,24.66,44.76,15.68,8.01-5.94,16.06-11.85,21.49-20.6,3.14-5.03,3.51-5.06,6.3.59,3.28,6.61,7.87,11.99,14.06,15.89,9.18,5.73,18.04,5.24,25.85-1.14,7.2-5.85,9.73-15.15,6.27-24.9-3.43-9.65-9.29-17.64-17.37-23.96-1.56-1.23-3.77-1.93-4.67-4.42,10.77-2.63,21.29-5.12,31.39-9.04,10.46-4.04,19.23-9.74,22.86-21.21,1.22-5.53,2.41-11.09,3.63-16.62-.2-.38-.58-.76-.61-1.14v.06ZM1044.49,69.78c1.48-1.32,3.63.12,5.37,1.08,9.53,5.41,13.57,15.21,20.28,25.04-8.43-1.4-13.48-4.89-17.29-10.12-2.55-3.51-4.79-7.26-6.99-11-.91-1.52-3.32-3.28-1.34-5h-.03ZM1069.15,140.76c-1.72,11.53-9.09,20.1-19.23,26.83-4.33,2.87-8.1,1.99-12.02-.38-4.01-2.46-2.59-6.08-1.63-9.33,3.37-11.35,9.21-21.5,15.66-31.24,3.54-5.35,8.42-1.81,12.34-.7,3.69,1.05,6.48,4.21,6.13,8.75-.12,1.73-.7,3.39-1.28,6.09h.03ZM1095.29,52.64c-.5,4.83-1.83,12.05-5.81,20.48-.81-1.38-1.92-3.34-2.91-5.85-2.73-6.79-2.84-12.49-2.9-17.55-.09-7.99-.14-12.78,2.9-14.63,1.69-1.02,4.1-.99,5.81,0,4.45,2.6,3.52,11.59,2.91,17.55ZM1115.62,157.96c1.77,2.46,4.09,5.68,2.96,8.1-.61,1.29-2.12,2.25-3.6,2.31-3.8.15-6.77-5.79-8.71-9.74-1.6-3.19-3.6-8.22-4.45-15.04,1.05,1.26,2.79,3.28,5.11,5.59,4.13,4.1,6.13,5.21,8.72,8.78h-.03ZM1149.54,82.77c-.67,8.07-4.93,12.87-12.54,15.56-9.73,3.45-19.35,7.11-30.12,7.61,13.94-7.05,23.38-20.42,37.61-27.06,1.51-.7,2.96-2.28,4.7-.97,1.78,1.35.47,3.19.35,4.86Z"/>
</svg>