<?xml version="1.0" encoding="UTF-8"?>
<svg id="Layer_2" data-name="Layer 2" xmlns="http://www.w3.org/2000/svg" viewBox="0 0 168.1 86.84">
  <defs>
    <style>
      .cls-1 {
        fill: #ffefcd;
      }

      .cls-2 {
        fill: #dc332b;
      }
    </style>
  </defs>
  <g id="Layer_1-2" data-name="Layer 1">
    <g>
      <g>
        <path class="cls-1" d="M77.06,81.11c-7.22,0-11.89-5.89-11.89-15.01,0-10.28,6.24-17.45,15.18-17.45.63,0,1.25.05,1.86.15v-5.63s-2.02-.73-2.02-.73c-.82-.3-1.37-1.08-1.37-1.95v-2.15c0-1.15.93-2.07,2.07-2.07h14.85c1.15,0,2.07.93,2.07,2.07v2.15c0,.86-.53,1.62-1.32,1.93l-1.83.71v12.92h7.33v-12.92l-1.83-.71c-.8-.31-1.32-1.08-1.32-1.93v-2.15c0-1.15.93-2.07,2.07-2.07h14.85c1.15,0,2.07.93,2.07,2.07v2.15c0,.87-.55,1.65-1.37,1.95l-2.01.73v31.08l2.01.73c.82.3,1.37,1.08,1.37,1.95v2.1c0,1.15-.93,2.07-2.07,2.07h-14.85c-1.15,0-2.07-.93-2.07-2.07v-2.1c0-.86.52-1.62,1.32-1.93l1.83-.71v-10.4h-7.33v10.4l1.83.71c.8.31,1.32,1.08,1.32,1.93v2.1c0,1.15-.93,2.07-2.07,2.07h-11.4c-.8,0-1.5-.46-1.85-1.13-1.41.62-3.24,1.13-5.44,1.13ZM80.26,56.04c-1.03,0-2.57,2.27-2.57,8.53,0,8.18,2.03,8.18,2.7,8.18.02,0,1.83-.15,1.83-1.39v-11.21c0-4.1-1.37-4.1-1.96-4.1Z"/>
        <path class="cls-1" d="M27.68,86.79c-1.15,0-2.07-.93-2.07-2.07v-2.62c0-.87.55-1.65,1.37-1.95l2.05-.74-7.17-13.42h-2.81v13.05l2.93,1.07c.82.3,1.37,1.08,1.37,1.95v2.62c0,1.15-.93,2.07-2.07,2.07H2.07c-1.15,0-2.07-.93-2.07-2.07v-2.62c0-.87.55-1.65,1.37-1.95l2.93-1.07v-34.93l-2.93-1.07c-.82-.3-1.37-1.08-1.37-1.95v-2.73c0-1.15.93-2.07,2.07-2.07h20.08c17.88,0,20.55,8.82,20.55,14.07,0,5.52-2.73,9.97-7.76,12.74l9.06,15.76,3.59,1.3c.82.3,1.37,1.08,1.37,1.95v2.62c0,1.15-.93,2.07-2.07,2.07h-19.2ZM19.1,57.58c1.99,0,6.63-.63,6.63-6.46,0-4.6-3.34-6.24-6.46-6.24h-.21v12.71h.05Z"/>
        <path class="cls-1" d="M51.25,81.12c-7.07,0-14.69-5.7-14.69-14.92,0-11.33,5.58-17.58,15.7-17.58,7.95,0,13.97,5.07,14.98,12.61.11.91.21,1.73.27,2.84.03.57-.17,1.13-.57,1.54s-.94.65-1.51.65h-16.47c.87,3.85,3.44,5.27,5.61,5.27,2.35,0,5.91-1.59,6.86-2.77.41-.51,1.01-.78,1.62-.78.44,0,.88.14,1.25.42l1.36,1.03c.74.56,1.02,1.55.68,2.42-2.43,6.16-7.51,9.28-15.1,9.28ZM54.47,59.2c-.55-2.39-1.62-3.26-2.44-3.26-1.08,0-1.95,1.18-2.44,3.26h4.87Z"/>
        <path class="cls-1" d="M154.97,86.84c-7.49,0-11.12-3.83-11.12-11.72v-19.41h-3.85c-1.15,0-2.07-.93-2.07-2.07v-2.91c0-.86.53-1.63,1.34-1.94l5.22-1.98,5.29-9.43c.37-.65,1.06-1.06,1.81-1.06h4.47c1.13,0,2.06.91,2.07,2.05l.13,8.92h7.79c1.15,0,2.07.93,2.07,2.07v4.28c0,1.15-.93,2.07-2.07,2.07h-7.76v16.4c0,5.33.69,5.33,1.95,5.33,1.03,0,2.76-.25,3.61-.6.26-.11.53-.16.8-.16.65,0,1.28.3,1.68.85l1.4,1.92c.64.88.49,2.11-.35,2.81-3.76,3.13-7.69,4.59-12.39,4.59Z"/>
        <path class="cls-1" d="M128.35,81.09c-9.55,0-15.48-6.22-15.48-16.23v-.5c-.06-9.4,1.77-15.5,5.45-18.13.36-.26.78-.39,1.21-.39.34,0,.69.09,1,.26.7.39,1.12,1.14,1.07,1.94-.06,1.17.28,2.59.67,2.75.08.03.16.07.24.12.47-1.59-.06-6.69-2.99-11.51-.47-.78-.38-1.78.23-2.46.4-.45.97-.69,1.55-.69.29,0,.59.06.87.19,1.8.84,9.1,4.44,11.39,9.08,1.77-2.13,5.09-2.39,5.53-2.41.04,0,.08,0,.12,0,.78,0,1.5.44,1.85,1.14.37.74.27,1.63-.26,2.26-.18.23-1.87,2.53.18,5.38.05.06.09.13.13.2,3,5.37,2.8,10.87,2.73,12.69,0,.03,0,.05,0,.08,0,10.01-5.93,16.23-15.48,16.23ZM128.35,55.94c-1.83,0-2.96,3.42-2.96,8.92s1.16,8.83,2.96,8.83,2.96-3.47,2.96-8.83-1.14-8.92-2.96-8.92Z"/>
        <path class="cls-2" d="M100.2,39.76l3.15,1.23v16.41h-11.48v-16.41l3.15-1.23v-2.15h-14.85v2.15l3.37,1.23.02,9.88c-1.23-.57-2.54-.87-3.94-.87-7.62,0-13.1,6-13.1,15.38,0,8.46,4.08,12.93,9.81,12.93,4.67,0,7.28-2.67,7.28-2.67v2.67h11.41v-2.1l-3.15-1.23v-13.89h11.48v13.89l-3.15,1.23v2.1h14.85v-2.1l-3.37-1.23v-33.99l3.37-1.23v-2.15h-14.85v2.15ZM83.57,70.63c0,2.54-2.59,3.47-3.9,3.47-3.33,0-4.78-3.24-4.78-10.25,0-7.36,2.02-10.6,4.64-10.6,3.15,0,4.03,2.85,4.03,6.18v11.21Z"/>
        <path class="cls-2" d="M31.32,61.45c5.86-2.4,8.59-6.75,8.59-11.83,0-7.98-6.75-12-18.47-12H1.35v2.73l4.3,1.56v37.84l-4.3,1.56v2.62h19.2v-2.62l-4.3-1.56v-16.57h6.13l8.88,16.63-4.3,1.56v2.62h19.2v-2.62l-4.3-1.56-10.55-18.36ZM18.38,58.93h-2.12v-16.85h2.29c4.74,0,8.54,2.96,8.54,8.32,0,5.8-3.96,8.54-8.71,8.54Z"/>
        <path class="cls-2" d="M64.45,60.79c-.91-6.8-6.44-10.81-12.92-10.81-9.42,0-13.63,5.83-13.63,15.5,0,6.44,5.16,12.85,12.62,12.85,8.02,0,11.47-3.67,13.17-7.96l-1.36-1.03c-1.4,1.76-5.59,3.55-8.48,3.55-3.46,0-7.62-2.57-7.97-9.42h18.83c-.06-1.04-.15-1.81-.26-2.68ZM46.45,60.56c.5-5.41,2.57-7.41,4.86-7.41,1.71,0,3.96,1.36,4.65,5.91.07.66.21,1.06.21,1.5h-9.72Z"/>
        <path class="cls-2" d="M165.31,52.91v-4.28h-9.83l-.15-10.96h-4.47l-5.66,10.09-5.13,2.25v2.91h5.13v21.49c0,7.02,3.07,9.65,9.05,9.65,4.19,0,7.71-1.32,11.06-4.11l-1.4-1.92c-1.17.49-3.18.77-4.41.77-3.24,0-4.02-1.92-4.02-7.4v-18.47h9.83Z"/>
        <path class="cls-2" d="M138.48,44.45s-3.72.22-4.5,2.47c-.56,2.53-3.43,3.77-2.67,1.59,1.6-5.19-10.74-10.91-10.74-10.91,4.48,7.37,4.62,16.99.18,14.38-2.18-.92-1.94-4.79-1.94-4.79-4.9,3.51-4.58,14.73-4.58,16.79h0c0,.05,0,.1,0,.15,0,8.77,5,14.16,13.41,14.16s13.41-5.39,13.41-14.16c0-.05,0-.1,0-.15h0c.07-1.91.22-6.81-2.46-11.61-3.1-4.31-.09-7.92-.09-7.92ZM127.63,75.04c-3.33,0-5.04-4.06-5.04-10.91s1.71-10.99,5.04-10.99,5.04,4.02,5.04,10.99-1.71,10.91-5.04,10.91Z"/>
      </g>
      <g>
        <g>
          <path class="cls-1" d="M26.2,33.71c-3.04,0-5.1-.88-6.13-2.61-.57-.98-.59-1.84-.51-2.39.08-.52.25-1.06.54-1.66.2-.43.48-.96.82-1.58l3.13-5.6c-.23-.2-.43-.42-.61-.67-.45-.64-.7-1.38-.7-2.12,0-1.29.47-2.14.96-2.69-.23.05-.45.08-.68.08-.55,0-1.05-.09-1.5-.28-.38-.16-.74-.38-1.07-.65-1.04-.93-1.25-1.92-1.25-2.59,0-.76.21-1.48.62-2.12,2.63-4.07,5.68-6.61,9.07-7.56,1.21-.33,2.53-.5,3.93-.5,5.02,0,9.07-.06,12.02-.18,3.83-.16,4.57-.21,4.72-.23l1.67-.25c.35-.06.75-.1,1.12-.1,2.29,0,3.31,1.47,3.31,2.92,0,1.26-.66,2.7-2.13,4.68-.4.53-.85,1.01-1.36,1.42.31.2.55.42.74.65l1.66-.12c.34-.03.64-.05.87-.05.53,0,1.07.15,1.6.44.44.24.83.56,1.17.95.72.86,1.09,1.84,1.09,2.88,0,.03,0,.05,0,.08,0,0,.24-.17.27-.19,1.93-1.25,5.11-2.53,6.83-3.19,3.15-1.18,5.66-1.75,7.71-1.75,1.75,0,2.97,1.22,2.97,2.96,0,.48-.07.92-.2,1.31,1.18.34,2.09,1.15,2.59,2.34.03-.02.06-.05.1-.07l1.64-1.32c.61-.51,1.18-.93,1.71-1.27.93-1.32,2.05-2.29,3.34-2.88.85-.41,1.81-.62,2.8-.62,2.81,0,3.88,1.65,3.96,3.13l.13-.09c1.93-1.26,3.28-1.81,4.42-1.81.91,0,1.76.35,2.45,1.03.99.94,1.47,1.89,1.47,2.89,0,.2-.01.44-.05.73l-.03.23c.49-.29,1.1-.72,1.87-1.37l.37-.31c.06-.05.13-.1.19-.15.19-.13.37-.24.55-.34.17-.44.36-.86.55-1.26.87-1.83,2.22-3.83,4-5.96,1.1-1.57,2.47-2.88,4.06-3.89,1.54-.97,2.87-1.44,4.07-1.44.84,0,1.58.21,2.22.62.89.58,1.4,1.5,1.4,2.53,0,.74-.24,1.49-.72,2.23-.63.92-1.19,1.74-1.68,2.46.58-.17,1.13-.26,1.66-.26,4.07,0,4.38,2.44,4.38,3.19,0,1.22-.62,2.51-2.02,4.17-.14.17-.35.39-.62.66-.02.02-1.49,1.38-1.49,1.38,0,0,.01,0,.02.01.23-.12.5-.27.78-.45.41-.25.84-.54,1.3-.86l5.55-3.92c.22-.16.5-.32.85-.47.32-.87.97-1.84,2.22-2.74,1.39-1,2.83-1.5,4.28-1.5s2.64.77,3.29,2.11c.23.45.35,1.01.35,1.63,0,.17-.01.33-.04.5.36.33.71.68,1.06,1.06.58.65,1.02,1.31,1.32,1.97l.21-.17c1.38-1.15,1.99-1.51,2.47-1.69.55-.21,1.09-.31,1.59-.31.6,0,1.18.15,1.72.43.92.49,1.47,1.41,1.47,2.46,0,.52-.08,1.03-.25,1.51-.13.39-.3.76-.49,1.1-.28.5-.65.99-1.15,1.48-1.03.98-2.01,1.85-2.95,2.63-1.01.84-2.06,1.57-3.13,2.18-2.35,1.31-4.98,1.98-7.82,1.98-1.82,0-3.43-.48-4.81-1.43-.62-.43-1.12-.91-1.48-1.43-.12-.17-.26-.38-.38-.62-1.95,1.59-3.76,2.69-5.49,3.34-.83.33-1.65.5-2.42.5-2.06,0-4.04-.97-5.91-2.88l-.05.04c-2.6,1.86-3.73,2.23-4.64,2.23-1.14,0-2.22-.43-3.14-1.24-.28-.25-.51-.52-.69-.82-.24-.31-.42-.68-.56-1.13-2.26,1.35-4.38,2.04-6.31,2.04-2.06,0-3.6-1.25-4.15-3.36-.13.08-.26.16-.39.25-2.6,1.73-4.15,2.75-4.57,3.02-1.39.87-2.24,1.2-3.03,1.2-.62,0-1.23-.13-1.8-.38-.51-.22-.98-.52-1.38-.87-.43-.41-.74-.81-.96-1.2-1.04.67-2.05,1.2-3.04,1.57-.87.32-1.64.48-2.35.48-1.3,0-2.14-.53-2.62-.98-.48-.46-.88-1.04-1.2-1.75l-.69.42-1.76,1c-2.43,1.32-4.19,1.93-5.59,1.93-1.9,0-3.56-.77-4.82-2.23-.07-.08-.13-.16-.2-.24-.71.47-1.46.9-2.25,1.28-1.92.93-3.76,1.41-5.45,1.41-3.64,0-5.06-1.54-5.6-2.83-.24-.55-.37-1.18-.37-1.86,0-.18,0-.36.03-.55-.23.09-.45.15-.67.18-.79.23-1.7.33-2.78.33-.36,0-.71-.01-1.04-.05l-4.13-.32c-.04.1-.09.2-.13.3-1.01,2.35-2.71,6.29-3.11,7.85-.47,1.83-2.03,4.01-6.76,4.01ZM29.08,11.63c-.91.29-1.76.65-2.55,1.07-.26.14-.48.28-.69.41.14-.03.29-.06.44-.08.47-.06.97-.09,1.5-.11h.46c.29-.46.57-.89.84-1.3ZM41.52,10.76c-.37.66-.71,1.27-1.02,1.84.37,0,.8-.04,1.29-.09l.96-.09c.49-.53,1.01-1.02,1.56-1.48-.8-.08-1.73-.15-2.78-.19Z"/>
          <circle class="cls-1" cx="10.97" cy="16.84" r="5.73"/>
          <circle class="cls-1" cx="157.13" cy="16.86" r="5.73"/>
          <circle class="cls-2" cx="156.41" cy="16.14" r="3.66"/>
          <circle class="cls-2" cx="10.25" cy="16.12" r="3.66"/>
        </g>
        <path class="cls-2" d="M145.53,14.25c-.24-.13-.5-.19-.75-.19s-.55.06-.86.18c-.32.12-.95.57-1.89,1.36l-1.62,1.33c-1.35,1.1-2.5,1.83-3.46,2.2.29-.22.55-.46.79-.72.78-.82,1.18-1.52,1.18-2.09,0-.87-.42-1.77-1.27-2.72-.35-.39-.71-.74-1.09-1.07-.37-.33-.68-.62-.92-.86.3-.38.46-.72.46-1.02s-.05-.54-.14-.73c-.3-.63-.78-.94-1.42-.94-1.01,0-2.04.37-3.07,1.11-1.09.78-1.63,1.65-1.63,2.59,0,0-1.1.36-1.43.62l-5.58,3.95c-.49.34-.95.65-1.39.92-.44.27-.83.49-1.18.66-.35.17-.59.26-.73.26s-.3-.05-.49-.14c-.84-.41-1.69-1.13-2.56-2.14l1.23-1.09,1.85-1.72c.22-.22.39-.4.5-.53,1.02-1.22,1.54-2.16,1.54-2.84,0-.75-.77-1.12-2.31-1.12-.54,0-1.18.16-1.92.48-.73.32-1.44.91-2.12,1.77l-1.85,2.3c-1.36,1.67-2.21,2.5-2.53,2.5-.35,0-.53-.12-.53-.35s.1-.6.29-1.12c.08-.22.17-.44.26-.64.09-.21.24-.51.43-.91.19-.4.53-.96,1-1.7.47-.74,2.22-3.32,5.26-7.75.26-.4.39-.76.39-1.09s-.15-.59-.45-.79c-.3-.19-.67-.29-1.1-.29-.79,0-1.78.37-2.96,1.12-1.39.89-2.57,2.02-3.53,3.4-1.71,2.03-2.96,3.89-3.78,5.59-.28.59-.53,1.21-.76,1.86-.31.12-.67.32-1.06.58l-.37.32c-1.92,1.62-3.48,2.43-4.68,2.43-.49,0-.73-.42-.73-1.26,0-.2.01-.42.04-.64l.06-.65c.03-.21.05-.41.08-.59.02-.18.03-.34.03-.47,0-.4-.28-.86-.84-1.4-.3-.29-.64-.44-1.01-.44-.69,0-1.77.48-3.24,1.44l-1.27.89-2.55,1.89c-.41.31-.73.47-.94.47-.19,0-.32-.14-.37-.42,0-.07.13-.39.43-.95l.41-.82c.6-1.15.9-1.98.9-2.49,0-.83-.63-1.24-1.9-1.24-.69,0-1.34.14-1.94.43-1.07.49-1.98,1.34-2.75,2.54-.54.31-1.17.76-1.88,1.35l-1.67,1.34c-.32.25-.63.48-.93.68-.3.21-.57.38-.82.51-.25.13-.44.2-.57.2s-.28-.23-.45-.68c-.07-.19-.15-.41-.22-.66-.07-.24-.15-.49-.24-.73-.33-.89-1.01-1.34-2.02-1.34-1.2,0-2.69.53-4.47,1.6l-1.15.68c-1.75,1.03-2.87,1.55-3.35,1.55s-.73-.15-.73-.46.17-.62.51-.94c1.2-1.16,3.09-2.28,5.67-3.36l1.74-.75c.49-.21.81-.42.97-.62.16-.2.24-.51.24-.91,0-.59-.3-.89-.9-.89-1.77,0-4.09.54-6.97,1.62-1.8.68-4.74,1.89-6.44,2.99l-1.15.82c-.42.31-1.27.89-2.53,1.72-.46.3-.87.55-1.23.75-.36.21-.66.36-.91.47-.24.11-.46.16-.66.16s-.37-.07-.54-.2c-.17-.13-.25-.29-.25-.46s.33-.6.98-1.27l.91-.91c1.26-1.23,1.9-2.13,1.9-2.7s-.19-1.06-.58-1.52c-.18-.2-.38-.37-.6-.49-.23-.12-.43-.19-.6-.19s-.41.01-.72.04l-1.96.14c-.31.03-.54.04-.69.04s-.3-.12-.44-.35l-.19-.3c-.28-.44-.81-.66-1.59-.66-.89,0-1.95.42-3.18,1.27-1.1.75-2.07,1.64-2.91,2.65l-1.76.16c-.84.09-1.55.12-2.13.09l-2.87.07c.71-1.41,1.82-3.44,3.33-6.1,1.91.05,3.5.15,4.77.31.49.06.95.09,1.38.09s.9-.07,1.41-.2c1.73-.42,3.05-1.24,3.98-2.48,1.15-1.54,1.72-2.69,1.72-3.44,0-.57-.41-.85-1.24-.85-.26,0-.53.02-.81.07l-1.72.26c-.27.04-1.9.12-4.89.24-2.99.12-7.02.18-12.1.18-1.22,0-2.34.14-3.37.43-2.9.81-5.52,3.04-7.88,6.68-.2.31-.3.64-.3,1.01s.17.7.52,1.01c.16.14.34.24.53.32.19.08.42.12.69.12s.6-.17.99-.5c.39-.33.9-.67,1.53-1.02,2.26-1.22,4.91-1.94,7.97-2.16-.85,1.22-2.23,3.3-4.12,6.25l-1.55.04c-.47.01-.9.04-1.3.09-.4.05-.79.23-1.16.55-.37.32-.55.79-.55,1.42,0,.32.1.63.31.92.21.3.48.5.81.61.14.04.34.07.62.09.28.02.44.04.49.04l-4.32,7.72c-.32.59-.58,1.09-.77,1.49-.19.4-.31.76-.36,1.08-.05.32.03.66.24,1.02.63,1.06,2.08,1.59,4.35,1.59,2.75,0,4.33-.81,4.75-2.44.54-2.15,2.98-7.58,3.93-9.83l5.64.44c.27.02.55.04.85.04.97,0,1.77-.1,2.39-.31,0,0,.01,0,.02,0,.44,0,1.38-.65,2.82-1.96l1.36-1.24c.54-.48.9-.72,1.07-.72.39,0,.68.02.88.07.2.05.3.16.3.33,0,.11-.28.46-.83,1.04-.65.67-1.22,1.45-1.7,2.32-.24.44-.43.89-.58,1.33-.15.45-.22.86-.22,1.25s.07.74.21,1.05c.44,1.04,1.67,1.56,3.69,1.56,1.38,0,2.9-.4,4.55-1.2.73-.35,1.42-.74,2.07-1.18.65-.43,1.24-.86,1.78-1.29.2.71.55,1.36,1.07,1.95.87,1.01,1.95,1.51,3.25,1.51,1.01,0,2.54-.55,4.56-1.66l1.7-.97,2.95-1.81.33,1.2c.28,1.01.65,1.73,1.12,2.19.57.54,1.51.56,2.82.07,1.74-.65,3.57-1.85,5.49-3.58-.09.7-.13,1.41-.13,2.16,0,.49.25.97.75,1.44.24.21.52.39.84.53.32.14.64.21.98.21s.97-.29,1.92-.89c.4-.25,1.91-1.25,4.55-3,.5-.32.95-.6,1.36-.82.41-.23.77-.39,1.06-.48.3-.1.5-.1.6-.02.1.08.2.49.29,1.23.04.3.1.62.18.95.3,1.28,1.02,1.92,2.17,1.92,1.65,0,3.52-.65,5.6-1.96.94-.59,1.77-1.19,2.5-1.82-.02.36-.03.72-.03,1.09,0,1.44.17,2.34.51,2.68.07.16.19.3.35.44.54.48,1.13.72,1.77.72.56,0,1.7-.61,3.4-1.83l1.6-1.19c1.83,2.42,3.7,3.62,5.59,3.62.52,0,1.08-.12,1.69-.36,2.01-.77,4.25-2.3,6.72-4.59,0,0,2.39-1.73,3.01-2.25l1.34-1.13c.44-.36.81-.71,1.11-1.05.15.26.33.52.55.79.22.27.43.54.64.82.51.67.76,1.25.76,1.73,0,.52-.19.77-.57.77-.16,0-.42-.13-.8-.39-.14-.09-.29-.18-.46-.26s-.41-.12-.73-.12-.8.19-1.45.57c-.28.17-.55.36-.81.57-.26.21-.5.42-.7.64-.2.21-.36.42-.48.62-.12.2-.18.39-.18.57s.11.43.34.75c.23.32.55.62.98.92,1.02.71,2.23,1.07,3.62,1.07,2.49,0,4.76-.57,6.81-1.72.97-.54,1.91-1.2,2.82-1.96.91-.76,1.85-1.6,2.81-2.51.35-.35.62-.69.8-1.02.13-.23.24-.48.33-.75.09-.27.14-.55.14-.84s-.12-.5-.37-.63Z"/>
      </g>
      <polygon class="cls-1" points="115.29 75.16 113.61 73.86 114.33 72.59 115.61 72.98 115.61 74.45 115.29 75.16"/>
      <polygon class="cls-1" points="142.89 63.41 142.11 59.02 140.6 54.38 144.65 54.38 144.65 64.83 142.89 63.41"/>
      <polygon class="cls-1" points="37.28 68.45 33.58 63.01 37.13 60.33 37.51 65.82 37.28 68.45"/>
      <polygon class="cls-1" points="28.12 13.69 24.98 13.69 24.98 12.05 29.31 10.96 29.58 11.68 28.12 13.69"/>
      <polygon class="cls-1" points="42.4 13.32 38.33 13.32 40.92 10.28 44.3 10.01 45.28 10.76 42.4 13.32"/>
    </g>
  </g>
</svg>