<?xml version="1.0" encoding="UTF-8"?>
<svg id="Layer_2" data-name="Layer 2" xmlns="http://www.w3.org/2000/svg" viewBox="0 0 56.51 38.62">
  <defs>
    <style>
      .cls-1 {
        fill: #a34d37;
      }
    </style>
  </defs>
  <g id="Layer_13" data-name="Layer 13">
    <g id="Outlines">
      <g>
        <path class="cls-1" d="M26.8.08c-.15.09-.47.07-.66.06-.1,0-.18-.06-.19-.06h.86Z"/>
        <path class="cls-1" d="M28.4.08c-.04.09-.25.09-.29,0,.1,0,.19,0,.29,0Z"/>
        <path class="cls-1" d="M27.71.08c-.04.09-.25.09-.29,0,.1,0,.19,0,.29,0Z"/>
        <path class="cls-1" d="M27.94.08c0,.09-.16.09-.17,0,.06,0,.11,0,.17,0Z"/>
        <g>
          <circle class="cls-1" cx="51.95" cy="10.87" r=".88"/>
          <path class="cls-1" d="M33.19,22.57c.02.15-.08.16-.2.17-.44.05-1.03-.01-1.49,0-1.65.03-3.33.09-4.97.11-.45,0-1.27.09-1.65-.07-.06-.03-.15,0-.14-.12l8.45-.09Z"/>
          <path class="cls-1" d="M24.49,24.85c.16.05.13.46,0,.46-.07,0-.08-.22-.14-.26-.11-.07-.38.03-.52-.08-.04.8.19.25.26.23.24-.06.15.92-.09.69-.05-.05.11-.3-.17-.23v.46c.1-.02.55.02.57,0,.03-.03,0-.78.28.05-.28.2-.52.1-.81.08-.11,0-.36.12-.44-.05-.06-.14.16-.04.17-.12.01-.05.01-.97,0-1.02-.02-.08-.25.06-.17-.2.26.05.84-.07,1.06,0Z"/>
          <path class="cls-1" d="M30.12,25.58s.08.01.1.06c.06.15.08.42-.09.52-.29.17-.56.13-.82-.08-.36-.29.15-.57.16-.63,0-.06-.23-.32-.05-.46.01-.01.35-.09.37-.09.57,0,.29.59.33.68ZM29.54,25.37c.63.09.62-.37,0-.29v.29ZM30.04,25.99c.24-.39-.46-.62-.56-.24-.07.27.46.39.56.24Z"/>
          <path class="cls-1" d="M32.34,25.02h-.68c-.02.44.27.21.56.33.81.32-.16,1.46-.73.67.17-.25.2-.02.38.02.48.1.56-.66,0-.56-.11.02-.26.21-.35.06-.01-.02.04-.53.06-.57.1-.2.35-.08.52-.06.1.01.26-.13.25.11Z"/>
          <path class="cls-1" d="M31.14,24.85c-.06.3-.52.08-.46.51.15.02.39-.05.51.03.4.24.11.94-.3.87-.05,0-.37-.22-.41-.27-.28-.38.09-1.28.66-1.14ZM31.19,25.55c-.06-.1-.58-.1-.56.19.03.54.77.14.56-.19Z"/>
          <path class="cls-1" d="M26.97,25.19c-.23.14-.15-.21-.17-.23,0,0-.22,0-.23,0-.04.04-.02.99,0,1.05.02.07.24-.02.17.12-.04.08-.11.03-.16.05-.01,0,0,.08-.05.09-.02,0-.35-.01-.37-.02-.16-.09.04-.27.17-.14.07-.44,0-.83.03-1.26.06-.08.53-.08.61-.03.1.07.03.35,0,.37Z"/>
          <path class="cls-1" d="M25.6,25.6c-.18-.15-.92.09-.8-.54.08-.44.63-.15.91-.26v.4c-.24-.04-.44-.33-.68-.08-.07.21.37.27.51.35.06.03.05.13.06.14.04.03.22-.07.23.2,0,.22-.28.49-.48.48-.11,0-.16-.14-.23-.16-.15-.03-.36.18-.31-.27s.28.01.38.08c.22.14.33,0,.54-.05.01-.01-.1-.27-.11-.28Z"/>
          <path class="cls-1" d="M29.08,26.19s-.11.1-.17.09c-.06-.17.04-1.09,0-1.14,0-.01-.23.14-.23-.09s.4-.34.4-.17c0,.28.06,1.12,0,1.31Z"/>
          <path class="cls-1" d="M24.29,22.63c-.19.52-1.11.01-1.54.17-.05-.17.27-.17.37-.17h1.17Z"/>
          <path class="cls-1" d="M27.6,26.22c-.27.07-.52-.37-.28-.48.31-.15.42.24.28.48Z"/>
          <path class="cls-1" d="M26.17,24.8c0,.21.07.5-.23.46-.05-.24-.13-.52.23-.46Z"/>
          <g>
            <path class="cls-1" d="M27.88,5.22s-.12-.01-.17,0c.04.15,0,.42.02.54.01.08.15.15.18.25.04.12-.13.27.08.23-.04-.14.2-.92.17-.96,0-.01-.28-.11-.17-.23.03-.03.68-.13.74.03.09.2-.13.12-.23.17s-.29.76-.33.93.06.5-.22.53c-.18.02-.21-.12-.26-.26-.1-.3-.07-.86-.19-1.11-.05-.09-.46-.24-.15-.31.04,0,.4-.04.42-.03.09.02.13.19.09.22Z"/>
            <path class="cls-1" d="M29.77,6.48c.08,0,.08-.18.2-.16.22.03.06.37-.07.43-.33-.06-1.09.17-1.16-.31-.03-.22.15-.33.15-.4,0-.1-.17-.15-.04-.34.16-.24.67-.13.81.05.11.14.02.53.11.72ZM29.54,5.79c-.08-.09-.55-.14-.4.17.06.03.52-.04.4-.17ZM29.48,6.19c-.11-.03-.49.04-.46.2.04.19.55.08.46-.2Z"/>
            <path class="cls-1" d="M25.49,5.8c-.05.03-.02.6.05.65.03.02.46.1.34.26-.03.04-.92,0-.97-.03-.28-.18.26-.19.28-.21.05-.04.09-.65.06-.68-.02-.02-.27.01-.34,0v-.17c.46.04.28,0,.38-.27.27-.72,1.03-.2.87.24-.04.11-.55.24-.67.21ZM25.83,5.62c.19-.79-.48-.19-.34-.06l.34.06Z"/>
            <path class="cls-1" d="M31.58,6.55c.34.24-.63.31-.67.13-.03-.15.21-.11.23-.18.03-.11.02-.66-.1-.7-.35-.12-.43.47-.37.7.01.04.29.16.17.27-.02.02-.51.01-.57-.03-.19-.12.11-.2.14-.26s.05-.66.03-.69c-.03-.03-.26.08-.23-.08.14-.18.33-.03.48-.03.26,0,.55-.2.69.23.04.14-.05.46-.03.54.02.09.16.07.21.11Z"/>
            <path class="cls-1" d="M38.04,6.31h-.8c0,.22.24.27.42.22.05-.01.4-.36.33-.02-.09.41-.94.37-1.02-.23-.11-.82,1.29-.92,1.08.03ZM37.76,6.02c-.06-.31-.36-.24-.51-.03l.51.03Z"/>
            <path class="cls-1" d="M36.2,5.78s-.1,0-.1.1c0,.15.11.34.15.49l.2-.54s-.31.02-.15-.2c.08-.11.69-.06.72.03.07.22-.2.13-.29.24s-.37,1.36-.69.69c-.06-.12-.19-.75-.22-.78-.02-.02-.28,0-.28-.09,0,0,.06-.14.09-.15.16-.04.71-.04.57.22Z"/>
            <path class="cls-1" d="M24.67,6.16c0,.33-.27.59-.59.59s-.59-.27-.59-.59.27-.59.59-.59.59.27.59.59ZM23.9,6.52c.37.39.82-.89.08-.66-.25.08-.23.51-.08.66Z"/>
            <path class="cls-1" d="M33.04,5.76c.38-.36,1-.17.99.4,0,.28-.13.54-.42.59-.56.12-.99-.59-.57-.99ZM33.51,5.82c-.39-.02-.48.67-.11.72.46.07.45-.71.11-.72Z"/>
            <path class="cls-1" d="M35.13,5.74c-.2,0-.26.05-.23-.17.66-.12.37.54.46.87.02.07.24.08.17.27-.44-.1-1.09.24-1.19-.39-.02-.15.07-.49.04-.52-.02-.02-.56-.21-.08-.24.56-.03-.04.99.52.97.3,0,.24-.6.31-.8Z"/>
            <path class="cls-1" d="M32.68,6.31c.07.07-.07.32-.17.37-.11.05-.47.05-.59.02-.31-.09-.49-1.13.27-1.13.68,0,.6.74.2.55-.16-.08-.04-.25-.11-.29-.36-.22-.51.62-.09.66.15.02.41-.25.48-.17Z"/>
            <path class="cls-1" d="M38.3,6.76c-.09-.02-.09-.12,0-.17.1-.06.25-.05.26-.06.03-.03-.01-.61.06-.74-.08-.04-.42.09-.4-.09.18-.24.49,0,.6,0,.08,0,.2-.13.4-.09.53.09-.05.75-.05.17-.34-.06-.38.67-.31.74.04.04.36-.06.28.23-.24-.04-.61.05-.83,0Z"/>
            <g>
              <path class="cls-1" d="M18.35,5.34v-.17c.29-.05.3.64.14.68-.26.08-.29-.63-.71-.43-.47.23,0,2.03.57.77.27-.11.23.62-.27.73-.21.04-.55-.17-.65-.35-.36-.65.08-1.83.92-1.24Z"/>
              <path class="cls-1" d="M21.61,5.79s-.16-.04-.17.03c.12.68.22.6.4,0-.14.03-.25-.17-.17-.26.03-.03.83-.07.69.23-.06,0-.13-.01-.19.01-.15.06-.47,1.16-.64,1.36-.12.15-.37.14-.53.07-.2-.09-.12-.51.16-.33.05.03.03.19.14.14.05-.02.19-.25.2-.31,0-.05-.3-.85-.33-.9-.07-.09-.29-.07-.23-.18.1-.2.9-.08.68.14Z"/>
              <path class="cls-1" d="M20.18,5.33s-.01.18,0,.23c.09.03.29-.11.34.03.09.25-.24.1-.29.14-.03.03-.06.9.29.72.02-.01.33-.49.39-.17s-.43.57-.74.34c-.36-.26,0-.77-.18-.88-.05-.03-.39.03-.39-.09,0-.27.36-.04.4-.09-.06-.15.07-.33.17-.23Z"/>
              <path class="cls-1" d="M19.03,6.58c.06-.05.09-.71.07-.73-.02-.01-.32.04-.34-.09-.04-.2.45-.18.54-.03.1.17-.04.67.05.8.06.09.35.02.37.14.04.22-1.02.21-.97,0,.02-.1.24-.06.27-.1Z"/>
              <path class="cls-1" d="M19.26,5.11s-.02.09.02.15c.02.03.14.01.09.1-.09.18-.42.05-.39-.11.01-.09.23-.2.28-.15Z"/>
            </g>
          </g>
          <g>
            <g>
              <path class="cls-1" d="M22.46,27.48c.19.13.39.44.53.64.26.39.39.62.67.95l-.04.05h-.25c-.03.21.28.25.4.13,1.02,1.34,2.1,2.77,3.11,4.17.07.09-.1.17-.09.25.04.2.27-.04.28-.03.03.02.37.58.43.68.08.12.26.23.32.37.04.09-.02.19,0,.2.02.02.14-.01.2.06.04.05.03.18.08.26.1.17.25.36.32.5.13.24.15.24.02.49.21-.16.46.15.4.36-.02.06-.14.02-.11.06.04.08.17.15.11.31.28-.07-.01-.37.23-.34v-.06c-.22.05-.05-.43-.18-.51-.08-.05-.24.07-.22-.09.01-.11.1-.19.2-.2.08-.01.15.22.26.12.08-.09-.13-.34-.16-.44-.03-.08,0-.19-.01-.26-.01-.04-.33-.1.06-.18-.11-.32-.19.1-.4.17-.03.13.2.18.22.21.01.02-.02.37-.08.39-.21.08-.26-.36-.32-.47-.03-.06-.15-.02-.11-.13.22-.16.51-.81.68-.92.07-.05.35.08.34-.05,0-.03-.17-.14-.17-.17,0-.02.27-.24.23-.37l.11.11v-.17s.17,0,.17,0c-.07.3.23.27.36.46.05.07.03.17.09.25.02.03.22.17.17-.03.02.02.46.29.49.29.03,0,.4-.13.42-.15.22-.15-.21-.25-.34-.2-.06-.12.11-.26.11-.29l.03.06c.33-.12.13-.31-.08-.46,0-.06-.04-.19.06-.17-.05.39.36.03.47.06.05.01.43.34.38.39,0,.01-.08,0-.11,0v.06s.11,0,.11,0v.08c-.18.16-.87,1.25-1.01,1.27-.05,0-.12-.06-.13-.04-.02.02.19.52-.17.23-.01.27-.01.45-.26.63-.13-.3-.11-.05-.16.04-.02.03-.09.02-.09.02-.02.03.09.09.1.14.01.12-.17.18-.21.24-.13.2-.2.27-.32.43-.06.08-.12.3-.22.38-.11.09-.24.04-.35.11-.07.05-.03.15-.04.16-.03.04-.15.05-.19.13-.04.08.05.2.03.23,0,.01-.24.05-.28.15-.02.04.17.06.17.11.01.16-.27.02-.28.03s.02.1-.01.15c-.02.03-.11.06-.16.1-.08.07-.04.28-.22.06l-3.2-4.31c1.1.29.15-.12,0-.38-.1-.19,0-.23,0-.25l.17-.11c.06.16-.1.1-.11.12-.08.12.08.11.09.13.06.09-.06.2.19.15-.22-.26-.07-.18.04-.3.03-.03.01-.08.02-.09,0,0,.09-.02.11-.06.02-.04.07-.22.06-.25,0-.02-.35-.14.05-.15,0,.02.07.04.1.1.04.08.06.29.08.3.05.04.27-.02.36,0,.07.02.02.27.21.23.06-.29-.29-.35-.36-.53-.04-.1.02-.42-.04-.56l-.14.17c-.06-.11-.24-.18-.3-.25-.07-.08.08-.16-.24-.15-.03.04.13.39.17.46-.15.06-.3.06-.46.06-.51,0-.25,0-.43-.28s-.39-.43-.54-.8h.23c-.01-.31-.1-.24-.29-.23-.32.03-.05-.17-.29-.17s-.53.05-.8,0c-.13-.18-.74-.95-.74-1.08,0,0,.08-.06.06-.11h-.17s-.04-.04-.06-.06l-.06-.11c-.34-.46-.69-.91-1.03-1.37.26-.28.33.13.57.2.16.05.26-.02.41,0,.21.02.51.29.57,0-.02-.09-.23-.06-.23-.12,0-.15.15-.38.11-.55-.02-.09-.15-.2-.2-.32-.09-.22-.3-.8.1-.61.02.01.36.23.4.26ZM22.52,28.85v.17s.29,0,.29,0v-.17s-.29,0-.29,0ZM24.97,31.36c.08-.14-.12-.6-.28-.46-.03.03.2.43.28.46ZM24.23,31.99c-.03.19.3.32.34.14.04-.15-.26-.16-.34-.14ZM24.97,32.04c-.33.05-.11.28.06.4l-.06-.4ZM25.46,33.47v.06s.04-.04,0-.06ZM25.57,33.53v.06s.04-.04,0-.06ZM28.01,36.31s-.18-.39-.24-.47c-.09-.12-.26-.22-.34-.34-.09-.13-.03-.33-.28-.37-.11.16.24.53.34.66.07.08.22.12.26.2.01.03.15.56.15.6,0,.11,0,.16-.12.14v.06c.25-.12.75.56.63.69-.22-.02-.35.18-.37-.11-.04.05-.2.09-.2.14,0,.03.26.48.31.48.08,0,.14-.24.17-.28.06-.06.15-.03.2-.1.02-.03.17-.45.18-.5,0-.08-.3-.25-.23-.43l-.28.17c-.02-.23-.24-.25,0-.51-.05,0-.12.02-.16-.01ZM30.05,35.24c-.27,0-.3.24-.23.46.1-.03.27-.41.23-.46ZM26.67,35.78s-.14-.05-.16,0c.16.38.23.39.63.49.08-.18-.1-.41-.26-.44-.14-.03-.04.04-.21-.05ZM27.77,36.84c-.07-.04-.2.09-.17.11l.17.06v-.17Z"/>
              <path class="cls-1" d="M25.26,33.47c-.06,0-.05-.02-.06-.06h.06v.06Z"/>
              <path class="cls-1" d="M14.7,20.4l.4.11c-.02-.08-.1-.47-.13-.5-.03-.04-.26,0-.22-.18.14-.03.52.24.59.22.1-.02.13-.19.16-.21.04-.02.26-.02.27-.01.12.11-.17.24-.17.26-.11.46.33.1.44.08.46-.08.67.62,0,.57-.16-.01-.23-.11-.37-.12.04.11.04.32.09.4.06.09.27.09.31.21s-.14.34.03.42c.09.04.18-.24.21-.3.04-.08.13-.47.16-.49.05-.04.2.01.22.08.07.18-.21.12-.09.26s.37.08.42.12c.06.05-.04.24.26.28.34.04.15-.12.2-.37.02-.11.1-.23.17-.32,1.51,2.05,3.09,4.07,4.56,6.15.09.12.19.27.23.41-.04-.03-.38-.25-.4-.26-.39-.19-.18.39-.1.61.05.12.18.23.2.32.04.17-.11.41-.11.55,0,.05.21.02.23.12-.06.29-.36.02-.57,0-.14-.02-.24.06-.41,0-.23-.07-.31-.48-.57-.2-2.03-2.73-4.03-5.47-6.05-8.22ZM15.23,20.63s-.03-.07-.07-.07-.07.03-.07.07.03.07.07.07.07-.03.07-.07Z"/>
              <path class="cls-1" d="M14.7,20.4c-1.3-1.77-2.63-3.51-3.94-5.28-.02-.13.06-.08.14-.08.8-.06,1.6.11,2.4.06.16.03.66.73.8.92,1.2,1.61,2.41,3.33,3.57,4.9-.06.09-.15.21-.17.32-.05.25.13.41-.2.37-.31-.03-.21-.23-.26-.28-.05-.04-.29.03-.42-.12s.15-.08.09-.26c-.03-.07-.17-.12-.22-.08-.03.02-.13.41-.16.49-.03.07-.12.34-.21.3-.17-.08,0-.3-.03-.42s-.25-.12-.31-.21c-.05-.08-.05-.29-.09-.4.14,0,.21.11.37.12.67.05.46-.65,0-.57-.1.02-.54.38-.44-.08,0-.03.29-.16.17-.26-.01,0-.23-.01-.27.01-.04.02-.07.19-.16.21-.07.01-.45-.26-.59-.22-.04.18.18.14.22.18.02.03.11.42.13.5l-.4-.11Z"/>
              <path class="cls-1" d="M23.55,31.36c-.07.18.07.35.23.23-.13.28.06.22.1.3.03.06,0,.16.03.23.06.14.42.78.49.87.04.06.15.03.2.09.02.02.25.49.26.51,0,.02-.1.06,0,.25.14.26,1.1.67,0,.38-.04-.05-.04-.11-.06-.17-.03-.13.09-.2-.17-.17-.63-.71-1.31-1.72-1.88-2.51.27.05.55,0,.8,0Z"/>
              <path class="cls-1" d="M23.77,29.25c-.12.12-.43.08-.4-.11h.25s.04-.06.04-.06c.07.08.08.13.11.17Z"/>
              <path class="cls-1" d="M24.63,33.87c.26-.03.14.04.17.17-.09-.03-.12-.11-.17-.17Z"/>
              <path class="cls-1" d="M21.89,30.16h.17c.02.05-.06.11-.06.11-.06-.02-.08-.08-.11-.11Z"/>
              <path class="cls-1" d="M21.83,30.1c-.04-.05-.05-.1-.06-.11l.06.11Z"/>
              <path class="cls-1" d="M25.32,32.79c.03.05.1.11.17.23-.41.01-.06.13-.05.15,0,.03-.04.21-.06.25h-.17c-.02-.08.02-.2-.11-.23l-.11.23c0-.23-.28-.27-.11-.57.16,0,.31,0,.46-.06Z"/>
              <path class="cls-1" d="M23.83,31.53c.19-.01.27-.09.29.23h-.23c-.03-.07-.09-.12-.06-.23Z"/>
              <path class="cls-1" d="M24.23,31.99c.08-.02.38-.01.34.14-.04.18-.38.05-.34-.14Z"/>
              <rect class="cls-1" x="22.58" y="28.79" width=".17" height=".29" transform="translate(-6.34 51.51) rotate(-89.84)"/>
              <path class="cls-1" d="M25.46,33.47s.04.04,0,.06v-.06Z"/>
              <path class="cls-1" d="M25.57,33.53s.04.04,0,.06v-.06Z"/>
              <circle class="cls-1" cx="15.16" cy="20.63" r=".07"/>
            </g>
            <g>
              <path class="cls-1" d="M38.04,22.06c.57-.77,1.08-1.59,1.68-2.34.06-.03.25.25.25.26.02.08-.14.17-.11.19.17-.04.13.07.23.11-.01-.13-.08-.28.03-.4.09.1.16.24.21.36.02.05.04.39.16.27.09-.1-.02-.43-.04-.55,0-.05.05-.12.04-.13-.03-.02-.12.09-.23-.02-.46-.5-.06-.67.23-1.09.41-.6.86-1.19,1.3-1.77.36-.48.67-1,1.07-1.45h2.6c-.18.28-.38.6-.57.87-1.16,1.59-2.42,3.42-3.65,4.92-.25.3-.23.02-.26.03-.03.05-.12.1-.14.14-.08.17.25-.06.17.11-.1.21-.4.02-.23.37-.21-.04-.23-.07-.34.11-.22.07-.31-.12-.4-.17.16-.23-.15-.24-.06-.51l-.17.03.17.43s-.21-.1-.23-.11c.07-.14-.38-.71-.46-.63.15.12-.07.54-.05.56.02.03.27.07.22.23h-.28s0-.23,0-.23c-.2-.06-.08.19-.11.23-.01.01-.11-.02-.16.01-.03.02-.03.14-.1.16-.08.02-.2-.08-.24-.05-.03.02-.04.19-.16.22-.11.03-.31-.05-.36-.16ZM40.38,21.26h-.23c.03.16,0,.37.23.26v-.26Z"/>
              <path class="cls-1" d="M35.99,27.48s.1-.03.11-.09c.03-.16-.37-.42.21-.42.2,0,0,.3.02.42.01.07.18.07.23.09-.03.04-.1.36-.23.43-.05.03-.17-.06-.23,0-.08.06-.03.39-.28.38l.17.08c-.16.19-.3.44-.46.63-.09.1-.22.04-.11.2-.35-.15-.25.12-.38.28-.06.08-.27.12-.24.25,0,.04.08.09.09.13,0,.16-1.42,1.79-1.53,2.13h-.22s.11.1.11.1c-.34.4-.62.93-.97,1.31-.07.08-.09-.23-.14-.03-.05.18.08.17-.14.4l-.06.06h-.06c.05-.05-.33-.38-.38-.39-.12-.03-.52.33-.47-.06-.09-.02-.06.11-.06.17,0,.12.06.36.06.4,0,.03-.18.16-.11.29.13-.05.57.05.34.2-.02.02-.4.15-.42.15-.03,0-.47-.27-.49-.29-.05-.04-.18-.31-.23-.4.09,0,.55-.15.57-.18,0,0-.07-.15,0-.22-.37.2-.51-.36-.86-.11,0-.01-.06-.02-.06-.08,0-.13.37-.48.46-.6.16.12.61.25.68,0,.17-.06.15.25.2.23.2-.09.19-.41,0-.51-.09.1-.04.18-.2.17-.02,0-.08-.06-.14-.05-.13.01-.25.21-.43.05.17-.22.08-.58.57-.4-.22-.43.24-.77.49-1.08.04-.02.23.18.25.2.04.06.08.4.24.25.01-.01-.02-.3-.02-.32-.03-.07-.11-.06-.15-.13-.16-.35.23-.92.49-1.16.06-.05.13,0,.14,0,.02-.03,0-.16.06-.26.21-.36.56-.67.75-1.05.12.09.32.14.42.23.14.13.18.56.37.31l-.17-.06c.2-.25-.36-.66-.33-.85,0-.05.36-.46.42-.55.2-.04.12.57.31.66-.15.03-.18.04-.23.2h.46c-.13.25.09.44.26.63.21-.29-.16-.37-.09-.68.3-.07.28.15.29.4.31-.11.15-.19.23-.46-.25.12-.13.03-.2-.11-.14-.24-.08-.22-.15-.43-.02-.07-.3-.2-.27-.38.03.02.09,0,.14.06.06.06.07.21.09.22.08.06.24-.06.3-.05.06,0,.06.18.15.17-.02-.15-.09-.23-.02-.39.06-.12.16-.05.19-.07l.34.2-.23.03c-.05.13.03.32.19.28.03,0,.26-.39.38-.51ZM30.92,33.3s-.03-.07-.07-.07-.07.03-.07.07.03.07.07.07.07-.03.07-.07Z"/>
              <path class="cls-1" d="M39.76,21.71s.21.1.23.11c.02,0,.03.04.06.06.09.05.18.24.4.17-.05.08-.05.19-.11.26l.11.08c-.31.04-.36.1-.29.4l-.17-.17c-.15.24.06.24.06.26s-.17.26-.2.31c-1.01,1.47-2.24,2.87-3.28,4.28-.06-.02-.22-.03-.23-.09-.02-.12.18-.42-.02-.42-.58,0-.18.27-.21.42-.01.06-.09.07-.11.09-.14,0,0-.24-.14-.17-.03.02-.13.29-.26.17-.05-.05.1-.16.1-.24,0-.43-.25-.25-.25-.07,0,.05.14.15.09.26-.32-.11-.2.04-.23.06s-.13-.05-.19.07c-.07.15,0,.24.02.39-.09,0-.09-.17-.15-.17-.06,0-.23.11-.3.05-.02-.02-.03-.16-.09-.22-.05-.05-.11-.04-.14-.06-.02,0-.13-.21-.17-.03-.04.16.18.6.06.68-.25.16-.14-.17-.18-.33s-.25-.23-.1-.47c.01-.02.2-.03.21-.3l2.24-3.01c.15-.12.14.19.29.2.09-.16-.17-.35-.17-.37,0-.06.62-.78.72-.91.23-.32.48-.64.71-.95.05.11.25.19.36.16.12-.03.13-.2.16-.22.04-.03.16.07.24.05.07-.02.07-.13.1-.16.05-.04.15,0,.16-.01.31.13.4.42.37.74.19-.07.15-.26.31-.37,0-.21-.23.05-.31-.08-.03-.05.02-.22.03-.23.12-.11.09.14.17.11v-.34s.11,0,.11,0Z"/>
              <path class="cls-1" d="M29.82,33.36c.35-.24.49.32.86.11-.07.07,0,.22,0,.22-.02.02-.48.17-.57.18-.1-.16-.2-.35-.29-.51Z"/>
              <path class="cls-1" d="M30.91,32.56s0,.08,0,.11c-.07.25-.52.12-.68,0,.08-.11.11-.11.11-.11.18.16.3-.04.43-.05.06,0,.12.05.14.05Z"/>
              <path class="cls-1" d="M31.94,33.81l.06-.06s-.01.07-.06.06Z"/>
              <circle class="cls-1" cx="30.85" cy="33.3" r=".07"/>
            </g>
          </g>
          <g>
            <path class="cls-1" d="M45.58,8.96c-.06-.19-.7.08-.68-.34.01-.26.44-.35.65-.37.16-.02.88-.02,1.03,0,.13.02.35.12.37.26.07.49-.4.31-.59.38-.33.11-.11.5-.09.7.05.74-.04,1.51-.12,2.23-.04.3.08,1.15.02,1.32-.33.85-.85-.11-1.02-.49-.35-.74-.6-1.57-.92-2.33-.14-.33-.3-.66-.44-.99-.27.18-.04.4-.05.54-.04.45-.03.53.03,1.03.05.43-.1,1.44,0,1.76.09.28.69.01.78.31.21.72-.83.41-1.22.47-.15.02-.23.14-.39.12-.31-.04-.52-.34-.44-.65.03-.12.71,0,.73-.36,0-.09-.09-.17-.09-.27.01-.26.13-.5.1-.87-.01-.16-.18-.76-.18-.85,0-.11.15-.2.17-.35.03-.18.02-1.39-.06-1.44-.1-.07-.66.09-.68-.15-.01-.14,0-.31.16-.36.1-.03.83-.03.95,0,.29.05.37.2.47.44.15.37.24.91.39,1.26.17.38.43.83.63,1.25.04.09.41.93.53.81.02-.07-.06-.13-.06-.14v-2.91Z"/>
            <path class="cls-1" d="M30.54,11.16c-.22.06-.24.52-.19.7.02.07.11.11.13.16.15.35-.12.6-.09.76.04.17.66.24.68.27.04.06.01.36-.02.45-.14.32-.66.12-.91.12-.35,0-1.18.22-1.12-.43.03-.36.28-.2.48-.26.16-.05.07-.33.1-.47.06-.33.18-.76.23-1.08.1-.68-.08-1.57,0-2.28-.05-.2-.88,0-.66-.44.05-.09.14-.1.23-.12.28-.04,1.16-.04,1.43,0,.45.06.22.44-.12.46-.12,0-.3-.14-.36.04-.12.36.11,1.1-.07,1.5.32-.1.68.12.94.12.24,0,.47-.24.69-.07.06.04.11.32.25.08.07-.12.09-1.35.05-1.53-.08-.39-.33-.14-.42-.15-.28-.05-.1-.3.13-.36.07-.02.52-.14.54-.14.07,0,.14.1.23.11.12.02,1.13-.07.68.28-.23.18-.6-.02-.75.33.05.64-.1,1.48-.01,2.1.02.13.1.2.12.34.04.29-.08.88.03,1.11s.85.2.81.59c-.02.28-.29.18-.46.22-.08.02-.15.09-.24.1-.24.03-1.03.04-1.25,0s-.33-.38-.23-.57.5-.06.59-.32c.06-.2-.02-.6.01-.84.02-.11.09-.33.13-.5,0-.03.19-.27.01-.27-.34,0-1.35-.07-1.6,0Z"/>
            <path class="cls-1" d="M10.35,8.6c.12.22-.07.49-.1.65-.02.13.06.55-.09.6-.16.05-.49-.41-.63-.51-.37-.28-.44-.19-.85-.23-.27-.03-.21-.19-.57.06-.25.18-.42.39-.37.72.05.35.39.2.52.51.45.18,1.56.32,1.85.66.2.23.23.22.41.39.1.1.26.46.26.6,0,.2-.43,1-.58,1.14-.26.22-1.22.55-1.55.47-.16-.04-.66-.38-.76-.38-.14,0-.23.24-.35.28-.18.05-.38-.06-.41-.25-.03-.15-.02-1.36.03-1.45.08-.16.42-.22.56-.12.05.03.37.77.59.97.86.8,2.37-.1,1.76-1.02-.04-.06-.44-.47-.48-.49-.16-.07-.37,0-.54-.03-.28-.04-.56-.08-.85-.12-.26-.04-.79-.37-.99-.56-.29-.27-.27-1.14-.07-1.45.41-.66,1.49-.82,2.16-.52.07.03.1.13.18.17.49.25.47-.16.6-.19.06-.02.27.09.29.12Z"/>
            <path class="cls-1" d="M22.4,8.59s0,.3.12.39c.17-.04-.02-.39,0-.4.24-.03.42.58.34.68l-.17-.06s.04.33.06.36c.03.08.19-.05.22.24s.02.12.06.24c.24.74.45,1.54.63,2.33.03.15-.04.35.06.5.14.22.8-.07.91.31.07.22-.07.34-.27.39-.24.06-1.36.07-1.63.03s-.4-.3-.22-.52.36-.06.49-.14c.14-.09-.08-.79-.23-.86-.14-.06-.87-.06-1,.02-.2.12-.17.64-.2.86.15.03.52-.05.63.02.08.05.09.41.02.49-.19.22-1.07.07-1.36.05-.11,0-.46.13-.53-.09-.18-.51.6-.51.67-.74.03-.09,0-.19.01-.27.23-.86.39-1.77.64-2.62.03-.1.17-.16.2-.31.04-.19.02-.92.28-.98.04,0,.29.04.3.05ZM22.92,11.44c.12-.12-.19-.26-.23-.31-.22-.27-.12-.57-.17-.85,0-.05-.13-.47-.14-.49-.1-.19-.15.25-.23.29l-.14-.23c-.12.23.1.45.1.67s-.21.49-.07.82c.08.18.34-.03.57,0,.06,0,.2.23.31.12Z"/>
            <path class="cls-1" d="M37.19,9.44c-.02-.21-.03-.48.21-.56.22-.08.17.06.24.13.06.06.16.08.19.16.09.2,0,.48.04.7.01.1.12.16.11.28,0,.13-.19.54-.31.61-.49.28-.72-.64-.92-.91-.11-.14-.58-.44-.74-.44-.03,0-.46.09-.5.1-.06.02-.52.48-.54.54-.03.09,0,.19-.02.27-.03.1-.1.16-.11.29-.06.45.11,1.79.35,2.17.13.21.64.46.88.49.2.03.26-.08.37-.09s.4.12.45.09c.03-.19-.17-.2-.17-.3,0-.03.23-.56.26-.61.14-.25.62-.67.71-.14.06.42-.12,1.14-.48,1.4-.09.07-.2.07-.27.11-.11.07-.13.23-.37.27-.06.01-.62.04-.64.01-.02-.02.01-.17,0-.23-.11,0-.06.21-.15.23-.07.02-.5-.06-.58-.1-.11-.05-.12-.16-.19-.21-.09-.07-.23-.05-.31-.15-.05-.07-.46-.83-.47-.9-.04-.22-.1-.71-.13-.96-.06-.6.22-1.88.63-2.34.2-.22.5-.31.76-.43.03-.02.04-.1.08-.11.09-.02.36-.02.44,0,.12.02.16.14.24.16.2.06.49-.04.7.16.09.08.08.27.23.31Z"/>
            <path class="cls-1" d="M48.31,8.54c.04.18.19.26.28.38.1.15-.04.22.31.27.07.33.15.74.24,1.06.17.6.36,1.12.49,1.73.06.29.11.59.15.88.1.2.49.07.67.13.3.09.39.5-.01.59-.28.06-1.39.07-1.69.03-.39-.05-.3-.54-.04-.62.18-.05.43.08.42-.21,0-.16-.12-.19-.16-.3-.04-.09-.01-.23-.07-.32-.09-.15-.93-.12-1.06-.04-.19.11-.12.3-.15.48-.03.14-.24.33.04.38.3.05.68-.17.59.36-.08.47-1.05.23-1.39.21-.17,0-.48.17-.58-.17-.1-.37.6-.47.68-.64.06-.13.03-.27.06-.4.16-.7.34-1.45.54-2.14.06-.2.23-.55.24-.61.06-.31-.05-1.09.45-1.05ZM48.53,9.52c-.26-.16-.49.27-.5.47,0,.13.1.18.11.28.02.19-.18,1.13.03,1.17.06.01.38-.2.54-.11.04-.36-.17-.55-.11-.94.03-.18.2-.29.11-.49.05-.04.25.12.17-.26-.06-.29-.2-.03-.31-.03-.04,0-.02-.09-.04-.1Z"/>
            <path class="cls-1" d="M28,9.16c-.05-.07-.83-.09-.92-.03-.12.09-.02,1.39-.05,1.66-.02.17-.12.27-.12.45,0,.42.2.94.12,1.49-.02.15-.15.26-.11.39.04.15.35,0,.53.05.08.02.27.26.27.3-.01.2-.51.07-.59.08-.31.04-.61.12-.97.12-.12,0-.66.02-.71-.01-.11-.07-.07-.37.05-.47.33-.28.51-.03.85-.03.04-.04-.03-.94,0-1.12.11-.8.11-.85,0-1.65-.03-.24.04-.55,0-.8-.06-.39-.72-.7-.84-.28-.11.39.22.75-.41.91-.39.1-.24-.36-.3-.56-.03-.11-.19-.15-.22-.3-.04-.24.2-.79.48-.83.47-.06,2.69-.06,3.11.03.05.01.25.09.28.12.35.28-.06,1.82-.46,1.31-.16-.2.04-.34.04-.4,0-.04-.08-.09-.09-.17s.08-.21.05-.26Z"/>
            <path class="cls-1" d="M14.76,9.67c.05-.32-.22-.21-.23-.23-.03-.05.08-.2.06-.28-.05-.07-.83-.09-.92-.03-.12.09-.02,1.39-.05,1.66-.02.17-.12.27-.12.45,0,.42.2.94.12,1.49-.02.15-.15.26-.11.39.04.15.26.02.37.03.22.01.42.16.37.4-.18.1-.39-.02-.53,0-.17.02-.2.15-.52.11-.3-.04-.17,0-.4,0-.14,0-.71.02-.78-.03-.27-.19.13-.61.43-.61.15,0,.29.18.48.12.04-.04-.03-.94,0-1.12.11-.8.11-.85,0-1.65-.03-.24.04-.55,0-.8-.06-.39-.71-.68-.86-.3-.16.42.2.78-.39.92-.36.09-.25-.32-.32-.55-.04-.13-.19-.16-.2-.26-.03-.3.15-.84.49-.89.45-.06,2.66-.07,3.07.02.24.05.41.22.44.47s-.07.98-.33,1.05c-.37.1-.49-.55-.07-.39Z"/>
            <circle class="cls-1" cx="4.69" cy="10.87" r=".88"/>
            <g>
              <path class="cls-1" d="M16.3,8.93c-.35.09-1.15-.14-.66-.55.34-.29.54-.02.81-.01.19,0,.31-.13.46-.13.25,0,.55.15.97.12.1,0,.19-.11.28-.1.23.02.62.52.9.59.05.08.12.15.15.24.11.32.07.79.01,1.12-.1.54-.36.39-.57.63-.16.19.17.57.21.76.03.14,0,.26.02.38.02.09.11.16.11.24.01.14-.15.2-.09.31.01.03.35.36.38.37.18.08.57-.04.57.34,0,.63-.96.17-1.19-.11-.02-.03-.16-.46-.17-.52-.03-.26.09-.7-.04-.88-.05-.07-.16-.09-.22-.18-.07-.09-.1-.27-.16-.33-.08-.08-.23,0-.34-.03-.06-.01-.12-.09-.24-.1-.28-.04-.48.15-.73.06-.06-.02-.06-.24-.18-.29,0,.31-.26.14-.25-.07s.2-.14.22-.16c.1-.11-.23-.35-.23-.37v-1.34ZM16.98,9.07c-.04.14,0,.76,0,.97,0,.08-.31.34.05.46.31.1.42-.04.66-.09.26-.05.56,0,.79-.23.27-.27.22-.93-.13-1.07-.22-.09-1.32-.25-1.38-.04ZM18.29,10.64l-.34.23c.2.44.42.17.34-.23Z"/>
              <path class="cls-1" d="M17.38,13.05s-.06.22.18.16c.02.35-.18.16-.37.17-.11,0-.22.06-.34.06-.41.01-.82-.02-1.23,0-.08-.59.23-.32.53-.41.21-.06.12-.5.5-.33l-.06-.34c.57-.1.3.41.45.6.1.13.3.05.34.09Z"/>
              <path class="cls-1" d="M16.58,11.84c-.01.16.06.47-.11.57,0-.14-.15-.09-.12-.25.01-.05.11-.37.23-.32Z"/>
            </g>
            <path class="cls-1" d="M40.43,8.37s.02.08.08.12c.25.13.52.07.7.32.11.16.06.27.13.44.12.27.43.27.51.75.02.1-.05.2-.03.26.02.09.18.14.21.29.02.1.02.65,0,.73-.04.11-.22.1-.22.24,0,.12.19.18.22.3.11.36-.15.42-.27.68-.07.14-.08.38-.15.48s-.24.09-.34.17c-.22.17-.28.36-.63.4-.19.02-.85.03-1.03,0-.04,0-.71-.43-.74-.46-.03-.03-.34-.69-.35-.74-.03-.1.04-.19.03-.29l-.11.06c.04-.14-.07-.31-.06-.43,0-.09.12-.16.12-.29s-.1-.19-.12-.29c-.05-.34.11-.85.1-.96,0-.07-.11-.14-.1-.24,0-.07.2-.52.26-.6.2-.24.8-.77,1.09-.85.11-.03.23,0,.33-.02.12-.03.22-.17.36-.1ZM41.14,10.06c-.04-.07,0-.24-.02-.35-.05-.22-.25-.22-.41-.33-.2-.14-.23-.39-.62-.27-.03.01-.38.16-.44.19-.04.02-.47.45-.48.49-.19.4-.21,1.61-.14,2.08.05.36.45.73.57,1.09.29-.01.48.27.76.19.1-.03.16-.16.24-.22.67-.46.54-.61.81-1.3.03-.08.17-.17.17-.21,0-.03-.19-.32-.21-.46-.03-.22.04-.54-.01-.73-.04-.13-.19-.13-.21-.16Z"/>
          </g>
          <g>
            <path class="cls-1" d="M25.26.14c.06.01.21.13.33.16.14.04.74.1.82.15.06.04.14.46.11.49-.18-.08-.45-.02-.62-.09-.11-.05-.05-.2-.16-.24-.28-.09-.66,0-.94.05.01.44.58.56.95.57.16,0,.31-.07.44-.05.15.03.47.33.64.39.25.09-.09-.34-.08-.36.06-.36.4.07.45.08,0,.04,0,.08,0,.11,0,.07-.03.19.03.23.05.03.42.09.52.1.35.05.58.13.94.18-.04.09-.02.16-.14.18-.56.06-1.3-.02-1.89,0-5.99.14-12.08.06-18.06.12.08-.33.28-.18.48-.24.08-.02.08-.13.13-.16.15-.09.34-.11.47-.28.03.06.15.11.22.26.04.1.05.29.07.31.1.1.73-.14.68-.22-.16-.03-.24-.22-.36-.3-.13-.1-.31-.13-.42-.21-.03-.02-.59-.67-.37-.17h-.23s0-.23,0-.23c.05,0,.13.02.11-.06-.15.01-.13-.18-.21-.27-.18-.23-.29-.28-.59-.24,0-.08,0-.15,0-.23,5.27.09,10.76-.31,16.01-.06.18,0,.49.03.65.06ZM16.64.94c.03-.21,0-.31-.2-.4-.24.31.13.15.14.17.03.04-.06.24.06.23ZM16.81.94c-.14-.03-.1.03-.15.11-.25.39.27.05.15-.11ZM12.87,1.17c-.15.05-.32-.12-.43-.11-.16,0-.35.41-.48.33,0,0,0-.09-.05-.1-.22-.06-.5.08-.48.34.09.02.04-.08.1-.11.29-.2.16.16.25.22.05.04.44-.02.56.06,0-.37.01-.37.32-.44.14-.03.1.14.19-.19Z"/>
            <path class="cls-1" d="M30.4.08c1.38-.03,2.72-.02,4.08,0,.34,0,2.22-.07,2.37.03.05.03.08.13.15.19.28.21.42.11.36-.22.06-.03.63,0,.48.11-.02.01-.21.02-.08.11,0,0,.17.01.2,0,.04-.01,0-.26.35-.29.64-.04,1.46.05,2.11.06,1.58,0,3.2.04,4.8,0,.1,0,.25-.07.25-.06.11.16-.2.21-.17.31l.31.2c.12-.33.35-.51.71-.46.03.02-.1.22-.11.23-.02.01-.1-.01-.13.01-.22.18-.43.68.07.56-.13-.21.12-.33.06-.57.17-.09.38.26.26.29-.15.03-.03-.13-.14-.11v.37c.28-.02.33,0,.57.08.19.06.33.08.51-.06.05.05.04.23.09.23.14,0,.23-.19.2.11-.31-.21-.45.15-.55.17-.06,0-.12-.09-.17-.09-.18-.01-.59.07-.72.04-.07-.02-.07-.16-.13-.17-.12-.03-.13.22-.28.23-.12.01-.61-.17-.66-.12-.16.4.62.26.63.43,0,.13-1,.04-1.11.14l.02.23c-.21,0-.42,0-.63,0,.18-.6-.34-.7-.11,0-3.92,0-7.84.01-11.76,0l-.11-.28c.23.01.4-.11.26-.34-.11-.19-.36-.05-.51-.06-.13-.01-.49-.13-.57-.1-.1.03-.12.24-.25.27s-.32-.09-.47-.05l.24-.33c.26-.21.49.04.7.04.15,0,.27-.11.41-.12.11,0,.39.14.37-.03-.05-.32-.33-.1-.48-.2-.1-.08-.09-.22-.21-.31s-.69-.34-.8-.2l.06.28c-.35.02-.32-.34-.46-.57ZM39.72.52s-.11-.18-.22-.21c-.07-.02.09.47.12.51.05.09.17.09.19.13.07.11-.1.27.18.22,0-.18-.03-.37.2-.34.3.03.14.49.29.52.41-.11-.06-.45-.08-.72-.09-.07-.2.09-.31.08-.05,0-.3-.14-.36-.18ZM43,1.33c.05-.08-.09-.36,0-.5-.11.02-.11.19-.21.22-.28.1-.42-.19-.36.35.18-.12.44.13.56-.07ZM41.75,1.74c0-.1.03-.26-.01-.33-.01-.02-.42-.33-.44-.3l.11.57c.21-.13.15.04.21.06.05.02.11,0,.13,0,.01.11.08.35.23.23.1-.09-.2-.22-.23-.23ZM44.21,1.23s-.28-.07-.34-.06c.02.06.24.28.26.28.06,0,.12-.18.09-.23Z"/>
            <path class="cls-1" d="M46.89.94c-.22-.26-.24-.53-.29-.86,1.45.04,2.92-.04,4.37-.03.79,0,1.7-.04,2.51.03.61.05.2.27-.11.4-.12.05-.23.04-.37.11-.02,0-.04.05-.06.06-.23.13-.22.14-.34.34-.12,0-.32.18-.4.29-.08,0-.16-.02-.23-.06.02-.01.17-.19.09-.23-.26.12-.58.03-.86.05-.18.01-.28.16-.48.06.03.1.25.15.34.17-.23.39-.39.15-.6.11-.23-.04-.87.09-1.11-.06-.01,0-.03-.23-.17-.11-.15.13.16.1.17.11.01.01,0,.17,0,.23-.16.03-.33-.19-.48-.16-.09.02-.15.19-.25.21s-.18-.06-.27-.05c-.25.02-.32.05-.63.05-.23,0-.38.16-.6.06-.08-.39.78-.21.86-.29l-.06-.51c.14.06.57.03.74.06-.06-.11-.15-.13-.09-.28.1-.23.3.17.43-.17-.33-.25-.37.03-.6.06-.16.02-.97-.24-.59.23-.12.02-.18-.01-.23-.11.03-.06.07-.09.06-.17-.27-.1-.57.58-.74.46ZM50.54.71c-.56.2-.85-.13-1.37-.17.11.27.28.18.47.23.04.01.01.09.13.11.21.05.64.02.77-.17Z"/>
            <path class="cls-1" d="M7.74.08c.14.24-.08.28-.23.46-.03-.02-.08-.04-.11-.06-.37-.15-.17.05-.23.11-.04.04-.22-.03-.28.01-.04.02-.03.19-.07.21-.07.05-.38-.07-.45.09-.04.1.11.09.16.18.04.07.11.35.13.36.02.01.35-.06.39-.08.1-.05.1-.2.14-.2.08,0,.13.09.18.1.09.02.21-.05.33-.05.16,0,.3.12.46.12s.37-.12.45-.11c.09.02.19.22.35.21.07,0,.36-.22.48-.05.08.11-.29.24-.36.29-.07.05-.15.21-.18.22-.08.01-.34-.45-.6-.26l-.05.38-.37-.06.03.23c-1.33.01-2.66,0-4,0-.03.23.11.23.17.33.18.26.35.52.52.78.08.11.23.14.22.38,0,0-.03.08-.09.1-.28.08-.48-.13-.61-.09-.11.03-.41.37-.48.39-.1.02-.27-.3-.61-.1-.11.06-.11.22-.27.22-.28-.39-.75-.88-.91-1.31-.04-.12.04-.26-.23-.23-.15-.18-.26-.38-.4-.57.04-.11.38-.21.39-.24.07-.12-.13-.34.28-.32.33.02.42.38.45.39.07.02.51-.02.54-.06.03-.35-.61-.43-.55-.8s.51-.29.78-.37c.12-.04.17-.2.34-.12.21.1.18.29.45-.06.24-.3-.26-.18-.28-.42,1.37,0,2.79.05,4.11,0ZM3.17,1.57c.17-.18-.39-.56-.57-.51-.06.24.14.18.21.25.05.05.24.39.36.27ZM2.03,1.91h-.26c-.16.13.21.34.26.29v-.29ZM2.76,2.32c-.11-.08-.28.11-.36.1-.19-.02-.32-.29-.38.24l.8-.06s-.04-.26-.06-.28ZM4.08,3.57c-.03-.17.02-.56-.09-.68-.21-.06-.4-.35-.56-.42-.47-.2-.33.02-.39.21-.03.1-.13.2-.11.29.05.2.29-.02.36-.02.35.01.35.67.78.62ZM2.88,3.51c.02-.11-.08-.17-.1-.26-.01-.07.07-.18.02-.25-.05-.07-.43-.08-.55-.11,0,.4.45.46.34.86.38.06-.09-.28.29-.23Z"/>
            <path class="cls-1" d="M53,.6c.24.15.86.34.97-.06-.06.01-.13.22-.23.11,0,0,0-.16,0-.17.04-.04.31.11.32-.35.23.02.47-.09.57.18l.03-.17c.1-.02.04.09.06.11.01,0,.13-.1.25-.12.45-.06.97.06,1.42.07.13.04.1.32.12.45l-.82,1.02c-.26-.16-1.29.29-1.42.16-.02-.02.01-.15,0-.16,0,0-.17,0-.17,0-.03.03.11.31-.25.27-.18-.02-.22-.34-.55-.21-.05.19.32.05.17.28-.06.1-.71-.02-.74,0-.02.01.01.09,0,.11-2.67,0-5.32-.03-7.99-.06l-.02-.23c.1-.1,1.11-.01,1.11-.14,0-.17-.79-.02-.63-.43.05-.05.54.13.66.12.16-.01.16-.26.28-.23.05.02.06.16.13.17.13.03.54-.06.72-.04.05,0,.11.1.17.09.1-.01.24-.37.55-.17.03-.3-.06-.12-.2-.11-.05,0-.04-.18-.09-.23.01,0,.16-.2.17-.23.05.1.11.14.23.11.02.03.09.11.11.11l.06.51c-.08.07-.94-.1-.86.29.22.1.37-.06.6-.06.31,0,.38-.03.63-.05.09,0,.18.07.27.05s.16-.19.25-.21c.14-.03.32.19.48.16,0-.05.01-.21,0-.23,0-.01-.32.02-.17-.11.14-.12.16.11.17.11.24.14.88.02,1.11.06.22.03.38.27.6-.11.01,0,.08-.06.13-.04.07.02.11.12.18.14.08.01.53-.1.6-.15.07.04.15.06.23.06.31-.02.27-.08.4-.29.06,0,.15.08.23.03.09-.06.12-.27.11-.38.02-.01.04-.05.06-.06ZM54.35,1.15c.07-.23-.04-.42-.21-.55-.04.25-.23.3-.1.59.09.19.29.04.31-.03ZM52.03,1.46c-.08-.04-.15.04-.11.06.08.04.15-.04.11-.06ZM46.83,1.57c-.07-.05-.73.03-.88,0-.25.34.24.16.4.17s.35.08.52.12c.06-.02-.02-.28-.03-.29ZM48.89,1.68h-.17v.11h.17v-.11Z"/>
            <path class="cls-1" d="M25.94.08s.1.05.19.06c.19.01.51.03.66-.06h.11c.11.08.15.22.31.23l.15-.23s.04,0,.06,0c.04.09.25.09.29,0,.02,0,.04,0,.06,0,0,.09.16.09.17,0,.06,0,.11,0,.17,0,.04.09.25.09.29,0,.02,0,.04,0,.06,0l.28.28c-.03-.28.23-.15.23-.34.02,0,.04.05.06.06.09.03.27.06.28.06.02.02.08.45.32.45.2,0,.32-.41.38-.45.05-.03.32.02.16-.07.06,0,.16,0,.23,0,.13.23.11.59.46.57l-.06-.28c.1-.14.69.11.8.2s.1.23.21.31c.15.11.43-.11.48.2.03.17-.25.02-.37.03-.13.01-.26.12-.41.12-.21,0-.44-.25-.7-.04l-.24.33c.15-.04.34.09.47.05s.15-.24.25-.27c.09-.02.44.09.57.1.15.01.4-.13.51.06.14.24-.03.35-.26.34l.11.28c-1.07,0-2.15,0-3.23,0-.12,0-.1-.15-.2-.21-.07-.04-.11.03-.11.03-.35-.05-.59-.13-.94-.18-.1-.01-.46-.07-.52-.1-.06-.04-.03-.17-.03-.23.06-.02.28.1.29.03.04-.3-.19-.13-.29-.14-.06,0-.39-.44-.45-.08,0,.02.33.45.08.36-.17-.06-.49-.36-.64-.39-.13-.02-.28.06-.44.05-.37-.01-.93-.13-.95-.57.28-.05.66-.14.94-.05.11.04.05.19.16.24.16.07.43.01.62.09.03-.03-.05-.45-.11-.49-.08-.05-.68-.12-.82-.15-.11-.03-.26-.14-.33-.16.03-.08.11-.05.17-.06,0,.09.16.09.17,0,.12,0,.2,0,.34,0ZM26.97.26s-.22-.04-.17.08c.08.21.27.01.17-.08ZM27.54.66c.02-.17-.14-.19-.28-.17-.02.17.14.19.28.17ZM28.27.56s-.1-.03-.13-.07c-.22.23-.02.25.2.28.03-.03-.04-.18-.07-.21ZM29.03.54c-.08-.02-.15.03-.17.11h.17s0-.11,0-.11ZM28.68.71v.17s.17,0,.17,0v-.17s-.17,0-.17,0ZM30.68,1.17c.04-.29-.18-.2-.35-.24-.06-.02-.11-.09-.19-.1-.15-.02-.4.05-.28.23.07.1.22-.01.34,0,.16,0,.29.18.48.12ZM27.83.94v.17s.17,0,.17,0v-.17s-.17,0-.17,0ZM27.88,1.17c.01.63.94,0,.37-.11-.22-.04-.12.27-.37.11ZM28.51,1.51s-.2.02-.17.14c.05.1.13-.01.17-.03.11-.05.17-.11.29-.14-.11-.31-.19-.05-.29.03ZM30.98,1.74s-.03-.07-.07-.07-.07.03-.07.07.03.07.07.07.07-.03.07-.07ZM31.88,1.91c.07-.07-.11-.23-.23-.17-.08.11.2.2.23.17Z"/>
            <path class="cls-1" d="M55.68,1.68c-.73,1.16-1.63,2.21-2.45,3.31-.16-.14-.55.08-.68-.06-.11-.11.37-.17.28-.34-.19.04-.47.1-.65.06-.07-.01,0-.17-.06-.18-.15-.03-.38.03-.54,0v.17s.4.06.4.06c-.17.56-.23.1-.48.11-.13,0-.38.12-.32.29-.05.05-.29-.25-.4-.29.56-.76,1.54-1.92,1.94-2.68.01-.02-.02-.1,0-.11.03-.02.68.1.74,0,.15-.23-.22-.09-.17-.28.33-.13.37.19.55.21.36.04.22-.24.25-.27,0,0,.16,0,.17,0,.01.01-.02.14,0,.16.14.13,1.16-.32,1.42-.16Z"/>
            <path class="cls-1" d="M50.77,4.82c.11.03.35.33.4.29-.06-.17.19-.28.32-.29.25-.02.31.44.48-.11l-.4-.06v-.17c.16.02.39-.03.54,0,.07.01,0,.17.06.18.19.04.46-.02.65-.06.08.17-.39.23-.28.34.13.14.52-.08.68.06-.03.04-.07.11-.11.17-.3-.03-.18.16-.23.29-.17.48-.82,1.09-1.11,1.54h-2.48l.06-.31c.47-.62.96-1.23,1.42-1.86ZM51.74,5.28c-.03.34,1.08.11,1.08.03,0-.18-.94.04-1.08-.03Z"/>
            <path class="cls-1" d="M5.45,4.48c.06.08.15.23.23.34-.16-.01-.29.21-.22.34.01.02.51.26.45,0,.32.28.46.42.73.78.25.32.58.73.69,1.11h-2.48c-.3-.33-.52-.75-.78-1.11-.15-.2-.3-.41-.45-.61.19-.2.38.01.61.04.42.06.31.01.49-.25.09-.14.22-.06.1-.42.3.05.51.12.63-.23ZM5.4,5.11c-.73.03-.1.33,0,.23.01-.01,0-.17,0-.23Z"/>
            <path class="cls-1" d="M3.63.08c.02.25.52.12.28.42-.27.35-.25.16-.45.06-.17-.08-.21.08-.34.12-.27.08-.71-.02-.78.37s.58.45.55.8c-.03.04-.46.08-.54.06-.03,0-.12-.37-.45-.39-.41-.03-.21.2-.28.32-.01.02-.35.13-.39.24C.94,1.69.22.88.04.5-.17.06.48.12.81.11c.89-.04,1.91-.02,2.82-.02Z"/>
            <path class="cls-1" d="M4.82,3.68s.13,0,.16.01c.03.02.36.51.41.59.05.08.04.18.05.2-.12.35-.32.28-.63.23.12.36,0,.28-.1.42-.18.26-.07.31-.49.25-.24-.03-.43-.25-.61-.04-.28-.38-.58-.75-.86-1.14.15,0,.16-.15.27-.22.34-.2.51.12.61.1.06-.01.36-.36.48-.39.12-.03.33.18.61.09.07-.02.09-.1.09-.1Z"/>
            <path class="cls-1" d="M8.59.14c0,.08,0,.15,0,.23,0,0-.05.02-.04.03,0,.05.13.07.16.12.04.06.03.17.07.23.04.06.25.14.3.24.11.04.07-.12.12-.12s.07.06.08.06v.23s.23,0,.23,0c.05.11.11.24.17.34-.14.17-.33.2-.47.28-.06.03-.06.14-.13.16-.19.06-.4-.09-.48.24-.23,0-.46,0-.68,0l-.03-.23.37.06.05-.38c.26-.19.52.27.6.26.03,0,.11-.17.18-.22.07-.05.44-.18.36-.29-.12-.16-.42.05-.48.05-.16,0-.26-.2-.35-.21-.08-.02-.28.11-.45.11s-.3-.12-.46-.12c-.12,0-.23.07-.33.05-.06-.01-.1-.1-.18-.1-.04,0-.05.15-.14.2-.04.02-.38.1-.39.08-.02-.01-.09-.29-.13-.36-.05-.09-.2-.08-.16-.18.07-.16.38-.04.45-.09.04-.03.03-.19.07-.21.06-.04.24.02.28-.01.06-.05-.14-.26.23-.11-.06.43.09.21.22.3.02.01.01.2.13.07-.08-.13-.09-.21-.23-.31.15-.18.37-.21.23-.46.27,0,.59.01.86.06ZM8.02.54c.07.04.14.08.23.05.15-.31-.03-.43-.33-.3-.1.04-.05.09-.07.13-.03.07-.09.12-.06.23.15,0,.26.06.23-.11ZM7.97,1.06c-.03.3.61.16.57-.03-.02-.07-.24-.15-.32-.15-.12,0-.11.19-.25.18Z"/>
            <path class="cls-1" d="M30.17.08c.16.09-.11.04-.16.07-.06.04-.18.45-.38.45-.24,0-.3-.43-.32-.45-.01,0-.19-.04-.28-.06.38-.04.76,0,1.14,0Z"/>
            <path class="cls-1" d="M5.68,4.82c.04.06.21.33.23.34.06.25-.44.01-.45,0-.07-.12.06-.35.22-.34Z"/>
            <path class="cls-1" d="M28.97.03c0,.19-.26.06-.23.34l-.28-.28c.13,0,.43-.08.51-.06Z"/>
            <path class="cls-1" d="M27.37.08l-.15.23c-.16-.01-.2-.15-.31-.23.15,0,.3,0,.46,0Z"/>
            <path class="cls-1" d="M53.11,5.16c-.06.08-.07.24-.23.29.04-.12-.07-.32.23-.29Z"/>
            <path class="cls-1" d="M1.86,2.88c-.11-.04-.16-.14-.23-.23.27-.03.18.11.23.23Z"/>
            <path class="cls-1" d="M25.6.08c0,.09-.16.09-.17,0,.06,0,.11,0,.17,0Z"/>
            <path class="cls-1" d="M27.2,1.28c.09,0,.32-.16.29.14,0,.07-.22-.05-.29-.03,0-.04,0-.08,0-.11Z"/>
            <path class="cls-1" d="M4.08,3.57c-.43.06-.43-.6-.78-.62-.07,0-.31.22-.36.02-.02-.09.08-.19.11-.29.06-.19-.08-.41.39-.21.16.07.34.36.56.42.11.12.05.51.09.68Z"/>
            <path class="cls-1" d="M2.88,3.51c-.38-.06.09.29-.29.23.11-.39-.33-.46-.34-.86.11.04.49.04.55.11.06.08-.03.18-.02.25.02.1.12.15.1.26Z"/>
            <path class="cls-1" d="M2.76,2.32s.08.26.06.28l-.8.06c.06-.53.19-.25.38-.24.08,0,.24-.18.36-.1Z"/>
            <path class="cls-1" d="M3.17,1.57c-.12.12-.31-.22-.36-.27-.07-.07-.27,0-.21-.25.18-.05.74.34.57.51Z"/>
            <path class="cls-1" d="M2.03,1.91v.29c-.05.06-.41-.16-.26-.29h.26Z"/>
            <path class="cls-1" d="M7.51.54c.13.1.15.18.23.31-.11.13-.11-.06-.13-.07-.13-.09-.27.13-.22-.3.03.01.09.04.11.06Z"/>
            <path class="cls-1" d="M46.83,1.57s.09.26.03.29c-.16-.03-.35-.11-.52-.12s-.65.17-.4-.17c.15.03.81-.05.88,0Z"/>
            <rect class="cls-1" x="48.72" y="1.68" width=".17" height=".11"/>
            <path class="cls-1" d="M52.03,1.46s-.03.1-.11.06c-.04-.02.03-.1.11-.06Z"/>
            <path class="cls-1" d="M30.68,1.17c-.19.06-.33-.11-.48-.12-.12,0-.28.11-.34,0-.12-.18.13-.24.28-.23.08,0,.13.08.19.1.17.05.4-.05.35.24Z"/>
            <path class="cls-1" d="M27.88,1.17c.24.15.15-.16.37-.11.57.11-.35.75-.37.11Z"/>
            <path class="cls-1" d="M28.27.56s.1.19.07.21c-.22-.03-.42-.06-.2-.28.03.04.1.04.13.07Z"/>
            <path class="cls-1" d="M28.51,1.51c.1-.08.17-.34.29-.03-.12.03-.18.1-.29.14v-.11Z"/>
            <path class="cls-1" d="M27.54.66c-.14.01-.3,0-.28-.17.14-.01.3,0,.28.17Z"/>
            <rect class="cls-1" x="28.68" y=".71" width=".17" height=".17" transform="translate(27.87 29.56) rotate(-89.8)"/>
            <path class="cls-1" d="M31.88,1.91s-.31-.06-.23-.17c.11-.06.29.1.23.17Z"/>
            <rect class="cls-1" x="27.83" y=".94" width=".17" height=".17" transform="translate(26.79 28.94) rotate(-89.8)"/>
            <path class="cls-1" d="M26.97.26c.1.1-.09.29-.17.08-.05-.12.15-.1.17-.08Z"/>
            <path class="cls-1" d="M28.51,1.51v.11s-.12.13-.17.03c-.03-.13.14-.11.17-.14Z"/>
            <path class="cls-1" d="M29.03.54v.11s-.17,0-.17,0c.02-.08.09-.13.17-.11Z"/>
            <circle class="cls-1" cx="30.91" cy="1.74" r=".07"/>
            <path class="cls-1" d="M51.74,5.28c.14.07,1.08-.15,1.08.03,0,.08-1.11.31-1.08-.03Z"/>
            <path class="cls-1" d="M5.4,5.11c0,.06.01.21,0,.23-.1.1-.73-.2,0-.23Z"/>
            <path class="cls-1" d="M7.97,1.06c.14,0,.14-.18.25-.18.08,0,.3.08.32.15.04.19-.6.33-.57.03Z"/>
            <path class="cls-1" d="M7.85.43s-.03-.09.07-.13c.3-.13.48,0,.33.3-.09.02-.15-.02-.23-.05-.04-.02-.1-.11-.17-.11Z"/>
            <path class="cls-1" d="M8.02.54c.03.17-.08.11-.23.11-.03-.11.03-.16.06-.23.07,0,.13.09.17.11Z"/>
          </g>
          <g>
            <path class="cls-1" d="M32.2,16.2c.29.25.05.5.02.7-.02.15.07.61-.15.65-.11.02-.49-.48-.62-.57-.32-.22-.46-.14-.8-.17-.1-.01-.19-.11-.28-.1-.19.02-.6.35-.65.54-.19.72.58.68,1.01,1.02.42.05,1.07.16,1.34.48.05.05.04.16.11.23.07.06.2.06.29.16.21.22.21.58.19.86l-.23-.17c-.09.19.12.23.12.31-.01.25-.19.34-.29.47-.05.08-.07.24-.13.29-.04.03-.34.12-.43.16-.26.11-.49.25-.78.3-.48.09-.75-.39-1.08-.39-.24,0-.28.4-.6.25-.37-.16-.26-1.46-.11-1.8.1-.09.29.41.4.28.06-.06-.15-.25-.11-.34.39-.09.38.52.53.72.02.03.42.42.44.44.22.15.68.18.93.14.27-.04.6-.35.73-.58.16-.3.12-.48-.07-.75-.04-.06-.42-.44-.46-.46-.16-.07-.37,0-.54-.03-.09-.01-.16-.09-.28-.11-.32-.05-.59.02-.95-.14-.04-.02-.6-.42-.63-.45-.21-.2-.21-.86-.17-1.14.12-.83,1.52-1.14,2.18-.87.21.08.25.33.6.32.19,0,.17-.5.45-.25Z"/>
            <path class="cls-1" d="M22.89,16.06c.14,0,.73.06.81.09s.09.15.15.19c.14.1.32.07.42.26.18.32-.02.47-.05.73-.03.25.07.87-.06,1.03-.04.05-.17.09-.24.14-.17.13-.51.37-.73.43-.29.08-1.08-.13-1.23.2-.11.24-.05,1.23.14,1.46.11.14.62.23.35.57-.21.26-.43-.08-.55-.09-.16-.01-.27.2-.45.18-.12-.01-.16-.14-.24-.17-.16-.05-.23.11-.32.1-.02,0-.27-.12-.27-.14-.12-.43.38-.28.54-.54.24-.39-.09-.48-.08-.59.02-.13.34-.21.34-.35,0-.07-.12-.17-.12-.34,0-.19.13-.26.12-.43-.74,0-.13-.8-.13-.94,0-.04-.09-.1-.09-.17s.1-.14.11-.23c.01-.08.06-.59.05-.62-.04-.16-.62-.2-.72-.27-.12-.08-.04-.5-.01-.5.73,0,1.53-.04,2.25,0ZM23.89,16.92c-.31.07-.68-.32-.95-.34-.18-.02-.26.1-.35.1-.07,0-.11-.09-.19-.08-.04,0-.28.12-.32.14-.14.11,0,.25-.02.42-.01.11-.12.2-.11.29,0,.08.1.14.11.23.02.11-.02.58,0,.6.01.01.31,0,.42.01.16.03.71.23.81.22.14-.01.31-.31.54-.23.05-.16-.1-.26-.12-.37s.13-.05.12-.17c0-.16-.14-.27-.13-.46.01-.2.17-.2.18-.37Z"/>
            <path class="cls-1" d="M28.15,17.11c.16.25.1.67.14.86.02.07.11.11.13.16.04.09.06.84.03.93-.02.06-.15.03-.2.09-.1.12.13.19.17.29.15.34-.11.55-.25.83-.06.12-.06.29-.13.39-.03.04-.83.58-.89.59-.18.04-1.1.04-1.23-.04-.06-.03-.07-.14-.16-.2-.32-.21-.22-.02-.51-.4-.45-.6-.39-1.05-.4-1.77,0-.52,0-1.05.06-1.57l.17.17c-.06-.12-.09-.21-.03-.34.02-.05.67-.69.74-.74.29-.2.39-.12.68-.17.09-.02.15-.1.23-.11.05,0,.67.24.74.28.24.14.55.54.69.76ZM26.5,16.82c-.47.09-.94.57-1.01,1.04-.04.23.02.5,0,.74-.01.09-.11.16-.11.23s.1.14.11.23c.07.48-.02.68.26,1.16.03.05.29.42.31.43.06.03.58.16.66.15.17-.02.75-.46.83-.6.1-.17.2-.62.3-.85.04-.09.15-.14.16-.24,0-.11-.14-.26-.17-.4-.03-.21.03-.46-.02-.67-.03-.15-.17-.21-.2-.31-.04-.13.02-.3-.07-.44-.08-.11-.23-.1-.34-.18-.26-.21-.17-.39-.7-.3Z"/>
            <path class="cls-1" d="M35.59,16.81c-.06.06.04,1.42,0,1.68-.04.23-.25.28-.15.62.02.09.13.16.14.25.02.19.04.78.02.97-.02.15-.18.4-.17.45.03.17.36,0,.52.05.17.05.4.28.19.43-.17.12-.29,0-.45,0-.14,0-.22.13-.4.13-.15,0-.25-.1-.29-.1-.04,0-.12.09-.23.1-.18,0-.6.03-.74,0-.18-.04-.17-.71.44-.63.12.02.36.23.42.02.07-.22-.03-.74,0-1.02.09-.79.11-.84,0-1.65-.07-.48.19-1.21-.55-1.29-.57-.06-.26.72-.39.91-.02.02-.31.16-.35.17-.41.06-.26-.33-.32-.53-.02-.08-.14-.12-.16-.24-.06-.31.14-.87.49-.94.18-.03,2.04-.04,2.13.01.03.02-.01.11.04.1.05-.29.35.21.54.23l.06-.34c.83,0,.89.8.58,1.41-.13.25-.46.22-.52-.03-.03-.13.09-.21.1-.28s-.11-.13-.1-.21c0-.02.21-.27.02-.27h-.88Z"/>
          </g>
        </g>
      </g>
    </g>
  </g>
</svg>