<?xml version="1.0" encoding="UTF-8"?>
<svg id="Layer_2" data-name="Layer 2" xmlns="http://www.w3.org/2000/svg" viewBox="0 0 186.13 127.21">
  <defs>
    <style>
      .cls-1 {
        fill: #a34d37;
      }
    </style>
  </defs>
  <g id="Layer_13" data-name="Layer 13">
    <g id="Outlines">
      <path class="cls-1" d="M88.28.28c-.49.29-1.56.25-2.18.2-.32-.02-.6-.2-.64-.2h2.82Z"/>
      <path class="cls-1" d="M93.54.28c-.12.3-.82.3-.94,0,.31,0,.63,0,.94,0Z"/>
      <path class="cls-1" d="M91.29.28c-.12.3-.82.3-.94,0,.31,0,.63,0,.94,0Z"/>
      <path class="cls-1" d="M92.04.28c-.03.28-.54.28-.56,0,.19,0,.38,0,.56,0Z"/>
      <circle class="cls-1" cx="174.74" cy="35.81" r="2.9"/>
      <path class="cls-1" d="M109.33,74.35c.05.49-.26.53-.65.57-1.44.17-3.38-.04-4.91-.02-5.44.09-10.96.31-16.38.35-1.49.01-4.18.29-5.43-.22-.2-.08-.51-.02-.46-.4l27.83-.28Z"/>
      <path class="cls-1" d="M80.66,81.87c.51.17.43,1.5,0,1.5-.22,0-.28-.73-.46-.85-.36-.24-1.24.08-1.7-.27-.13,2.63.62.81.85.75.78-.21.49,3.04-.28,2.26-.15-.15.37-1-.56-.75v1.51c.31-.05,1.81.07,1.88,0,.09-.1,0-2.57.92.17-.91.66-1.7.33-2.68.28-.38-.02-1.18.4-1.44-.17-.21-.45.51-.15.57-.38.04-.17.05-3.21,0-3.37-.08-.27-.81.2-.58-.67.87.17,2.77-.23,3.48,0Z"/>
      <path class="cls-1" d="M99.23,84.27s.26.04.32.19c.18.51.25,1.37-.3,1.7-.96.57-1.85.42-2.69-.26-1.19-.97.5-1.89.52-2.06.02-.19-.74-1.04-.15-1.52.05-.04,1.15-.29,1.22-.29,1.88-.02.95,1.95,1.08,2.23ZM97.3,83.56c2.06.28,2.06-1.23,0-.94v.94ZM98.97,85.6c.79-1.27-1.51-2.04-1.83-.78-.23.9,1.52,1.3,1.83.78Z"/>
      <path class="cls-1" d="M106.51,82.43h-2.25c-.06,1.46.87.7,1.83,1.08,2.65,1.06-.52,4.81-2.39,2.21.57-.84.67-.05,1.26.07,1.58.32,1.86-2.18-.03-1.85-.35.06-.84.69-1.15.19-.05-.08.12-1.73.19-1.88.32-.66,1.16-.26,1.7-.19.34.04.84-.43.84.38Z"/>
      <path class="cls-1" d="M102.57,81.87c-.2,1-1.72.25-1.5,1.69.48.07,1.28-.15,1.69.1,1.31.79.37,3.08-1,2.87-.16-.03-1.21-.71-1.34-.9-.92-1.26.28-4.22,2.16-3.76ZM102.73,84.15c-.2-.32-1.91-.33-1.86.62.1,1.79,2.53.45,1.86-.62Z"/>
      <path class="cls-1" d="M88.83,82.98c-.76.47-.49-.68-.55-.74-.03-.03-.72-.03-.75,0-.13.12-.06,3.28-.01,3.47.06.23.78-.06.58.38-.13.28-.38.11-.51.18-.05.02-.03.27-.16.28-.07,0-1.15-.05-1.2-.08-.51-.3.12-.88.57-.47.24-1.44,0-2.75.08-4.15.18-.26,1.74-.26,1.99-.09.32.22.09,1.15-.02,1.22Z"/>
      <path class="cls-1" d="M84.33,84.31c-.59-.5-3.02.29-2.63-1.78.28-1.46,2.09-.49,3-.85v1.31c-.77-.14-1.45-1.09-2.25-.28-.22.7,1.23.88,1.68,1.14.19.11.17.44.19.46.14.1.73-.24.74.67.01.74-.92,1.6-1.6,1.58-.38-.01-.52-.47-.77-.52-.51-.09-1.18.6-1.03-.89.16-1.55.91.04,1.26.27.71.46,1.08,0,1.77-.17.03-.05-.34-.9-.38-.94Z"/>
      <path class="cls-1" d="M95.8,86.29c-.04.16-.36.34-.56.28-.2-.55.13-3.59,0-3.76-.03-.04-.76.45-.76-.28s1.32-1.14,1.32-.56c0,.93.19,3.68,0,4.32Z"/>
      <path class="cls-1" d="M80.01,74.54c-.62,1.71-3.67.04-5.08.56-.18-.56.89-.56,1.22-.56h3.85Z"/>
      <path class="cls-1" d="M90.9,86.37c-.87.24-1.72-1.21-.93-1.59,1.03-.5,1.39.8.93,1.59Z"/>
      <path class="cls-1" d="M86.21,81.68c0,.7.24,1.64-.75,1.51-.16-.81-.42-1.72.75-1.51Z"/>
      <g>
        <path class="cls-1" d="M91.85,17.2s-.41-.04-.55,0c.12.48,0,1.39.07,1.78.05.26.49.49.59.83.12.4-.43.88.26.76-.15-.47.66-3.01.54-3.17-.03-.04-.94-.35-.54-.77.09-.09,2.22-.42,2.44.09.28.65-.43.39-.75.56s-.95,2.5-1.09,3.05c-.14.56.2,1.66-.71,1.75-.58.06-.7-.4-.85-.86-.34-.98-.24-2.84-.64-3.67-.15-.31-1.53-.77-.48-1.01.14-.03,1.33-.12,1.39-.1.29.08.42.62.31.74Z"/>
        <path class="cls-1" d="M98.06,21.33c.27,0,.26-.58.66-.52.72.11.2,1.21-.22,1.43-1.08-.18-3.6.55-3.83-1.02-.11-.72.5-1.08.51-1.31.01-.34-.55-.5-.14-1.14.52-.81,2.2-.41,2.66.18.35.45.08,1.75.36,2.37ZM97.3,19.08c-.27-.3-1.81-.45-1.32.56.21.1,1.73-.12,1.32-.56ZM97.11,20.4c-.35-.1-1.62.12-1.5.65.13.61,1.81.27,1.5-.65Z"/>
        <path class="cls-1" d="M83.97,19.1c-.18.11-.06,1.98.17,2.15.09.07,1.52.31,1.13.84-.1.13-3.02.03-3.2-.09-.92-.59.86-.64.92-.69.16-.13.3-2.15.21-2.23-.06-.06-.89.05-1.13,0v-.56c1.53.12.91,0,1.26-.91.89-2.36,3.38-.67,2.86.79-.13.35-1.8.79-2.22.7ZM85.08,18.52c.64-2.59-1.59-.63-1.13-.19l1.13.19Z"/>
        <path class="cls-1" d="M104.02,21.57c1.12.79-2.08,1.01-2.2.42-.1-.48.71-.38.76-.58.1-.37.08-2.19-.32-2.32-1.15-.38-1.41,1.54-1.2,2.3.03.13.94.51.57.88-.07.07-1.69.04-1.89-.09-.61-.39.36-.66.48-.85s.18-2.18.1-2.26c-.11-.11-.87.26-.75-.28.45-.61,1.08-.09,1.6-.1.85-.01,1.83-.65,2.26.75.15.46-.15,1.52-.09,1.77.08.3.51.22.69.35Z"/>
        <path class="cls-1" d="M125.32,20.77h-2.63c.01.73.8.89,1.37.72.15-.05,1.32-1.18,1.07-.06-.31,1.36-3.1,1.22-3.37-.76-.37-2.7,4.24-3.04,3.56.11ZM124.38,19.83c-.19-1.02-1.19-.79-1.69-.09l1.69.09Z"/>
        <path class="cls-1" d="M119.24,19.03s-.34-.02-.34.31c0,.48.37,1.12.49,1.61l.66-1.78c-.01-.15-1.01.05-.48-.67.26-.35,2.26-.21,2.36.1.23.74-.65.42-.96.79s-1.2,4.49-2.28,2.26c-.2-.41-.64-2.46-.73-2.56-.07-.07-.91.02-.91-.3,0-.03.21-.45.31-.48.52-.13,2.34-.13,1.89.72Z"/>
        <path class="cls-1" d="M81.27,20.3c0,1.08-.87,1.95-1.95,1.95s-1.95-.87-1.95-1.95.87-1.95,1.95-1.95,1.95.87,1.95,1.95ZM78.73,21.48c1.2,1.3,2.69-2.92.27-2.18-.84.26-.75,1.67-.27,2.18Z"/>
        <path class="cls-1" d="M108.84,18.96c1.25-1.19,3.31-.57,3.25,1.31-.03.91-.44,1.77-1.39,1.96-1.85.38-3.28-1.94-1.86-3.27ZM110.37,19.16c-1.27-.05-1.57,2.2-.37,2.37,1.52.22,1.49-2.33.37-2.37Z"/>
        <path class="cls-1" d="M115.73,18.89c-.65,0-.86.17-.75-.56,2.19-.4,1.23,1.78,1.5,2.88.06.24.8.25.57.88-1.45-.34-3.58.78-3.91-1.27-.08-.49.23-1.61.13-1.72-.06-.07-1.86-.69-.27-.78,1.86-.11-.13,3.25,1.7,3.21,1-.02.78-1.97,1.03-2.63Z"/>
        <path class="cls-1" d="M107.64,20.77c.23.24-.22,1.06-.57,1.22-.36.16-1.55.17-1.93.06-1.03-.31-1.62-3.71.9-3.74,2.26-.02,1.98,2.45.66,1.8-.51-.25-.15-.82-.36-.95-1.19-.71-1.67,2.03-.29,2.17.51.05,1.36-.81,1.59-.57Z"/>
        <path class="cls-1" d="M126.16,22.27c-.3-.07-.3-.39,0-.57.31-.2.82-.16.85-.19.09-.08-.04-2.02.2-2.43-.27-.14-1.37.31-1.31-.28.6-.78,1.61,0,1.98.02.25.01.65-.42,1.3-.31,1.74.3-.15,2.48-.18.56-1.11-.19-1.27,2.21-1.02,2.44.12.12,1.17-.19.93.76-.78-.12-2.02.17-2.73,0Z"/>
        <g>
          <path class="cls-1" d="M60.45,17.58v-.57c.96-.17.98,2.1.47,2.26-.85.26-.95-2.09-2.35-1.41-1.55.75-.02,6.7,1.89,2.55.9-.37.75,2.05-.9,2.4-.69.15-1.82-.55-2.16-1.15-1.19-2.13.28-6.02,3.04-4.08Z"/>
          <path class="cls-1" d="M71.17,19.08c-.06.07-.53-.12-.57.1.38,2.24.74,1.98,1.32,0-.46.1-.84-.56-.57-.85.1-.1,2.75-.25,2.26.75-.19,0-.44-.03-.62.04-.49.19-1.54,3.82-2.09,4.49-.4.49-1.22.46-1.76.23-.66-.28-.41-1.68.53-1.1.16.1.1.63.46.47.15-.07.64-.82.65-1.03,0-.17-.97-2.81-1.1-2.98-.24-.3-.94-.22-.76-.6.31-.66,2.96-.28,2.25.47Z"/>
          <path class="cls-1" d="M66.47,17.57c.05.06-.04.58,0,.75.29.09.97-.35,1.13.09.28.81-.8.33-.94.47-.11.1-.18,2.98.95,2.36.08-.04,1.07-1.62,1.3-.56s-1.41,1.87-2.45,1.13c-1.19-.86.03-2.53-.58-2.9-.18-.11-1.28.11-1.29-.31,0-.89,1.18-.14,1.31-.28-.21-.51.23-1.1.56-.75Z"/>
          <path class="cls-1" d="M62.67,21.68c.2-.16.31-2.33.22-2.41-.05-.05-1.05.13-1.13-.28-.13-.67,1.5-.59,1.79-.09.33.56-.14,2.21.17,2.65.21.28,1.15.07,1.23.46.15.71-3.35.71-3.19,0,.07-.34.78-.21.91-.32Z"/>
          <path class="cls-1" d="M63.46,16.82s-.05.3.07.5c.06.1.45.03.31.35-.28.61-1.38.17-1.3-.35.05-.29.77-.66.92-.49Z"/>
        </g>
      </g>
      <g>
        <g>
          <path class="cls-1" d="M73.99,90.52c.64.43,1.29,1.45,1.73,2.12.86,1.28,1.28,2.03,2.21,3.14l-.13.15-.81.04c-.09.64.92.78,1.32.38,3.35,4.41,6.9,9.13,10.26,13.73.24.3-.35.56-.3.83.12.67.89-.12.94-.09.11.08,1.2,1.93,1.42,2.24.27.39.86.77,1.04,1.22.12.29-.05.62-.02.65.07.06.48-.03.65.2.13.17.1.59.27.86.34.55.81,1.19,1.07,1.65.44.79.48.81.07,1.63.69-.51,1.51.5,1.32,1.19-.05.19-.44.07-.38.21.12.27.55.5.38,1.04.92-.24-.04-1.21.75-1.13v-.18c-.72.15-.17-1.4-.59-1.67-.26-.16-.8.23-.73-.31.05-.36.33-.61.67-.66.26-.04.51.73.84.38.27-.29-.42-1.13-.53-1.45-.09-.27.03-.62-.04-.87-.03-.13-1.08-.33.19-.59-.37-1.07-.62.32-1.32.56-.11.43.67.58.73.69.04.05-.07,1.22-.27,1.29-.71.25-.87-1.18-1.04-1.55-.09-.19-.49-.07-.36-.41.71-.51,1.68-2.66,2.25-3.03.25-.16,1.16.26,1.12-.18,0-.1-.56-.46-.56-.56,0-.07.89-.8.75-1.22l.37.37v-.56s.57,0,.57,0c-.23.98.75.88,1.2,1.52.16.23.09.55.31.83.07.1.72.56.56-.09.07.06,1.52.94,1.61.95.09,0,1.31-.43,1.4-.49.74-.5-.71-.83-1.12-.65-.2-.4.36-.85.38-.94l.09.18c1.09-.39.42-1.01-.28-1.5,0-.2-.12-.62.19-.56-.17,1.3,1.18.11,1.56.2.16.04,1.43,1.13,1.26,1.3-.03.03-.27-.02-.37,0v.18s.37,0,.37,0v.28c-.59.53-2.86,4.12-3.31,4.19-.16.02-.39-.2-.44-.14-.06.07.62,1.7-.56.75-.05.9-.04,1.49-.85,2.07-.44-.99-.36-.16-.53.13-.06.1-.3.05-.31.07-.07.11.3.29.32.46.04.41-.55.58-.7.8-.44.66-.64.88-1.06,1.43-.21.27-.4.99-.72,1.25-.36.29-.77.12-1.15.37-.24.16-.08.48-.12.53-.1.13-.49.17-.62.41-.14.26.18.65.11.74-.03.04-.8.15-.94.48-.05.13.54.19.56.38.04.51-.9.05-.94.09s.06.34-.05.51c-.08.11-.36.18-.53.33-.25.24-.12.91-.74.19l-10.53-14.19c3.63.96.49-.39.02-1.25-.35-.63-.02-.76-.02-.82l.56-.37c.18.52-.33.32-.37.38-.25.39.25.35.31.43.2.28-.19.65.62.5-.71-.84-.23-.59.13-1,.09-.1.04-.27.06-.31.02-.03.31-.05.38-.19.07-.13.22-.72.2-.83-.01-.07-1.16-.45.17-.49.03.05.24.12.33.32.12.25.21.95.25.98.15.13.9-.07,1.18,0,.22.06.08.91.68.76.2-.95-.94-1.14-1.18-1.74-.12-.32.06-1.37-.14-1.83l-.47.56c-.19-.37-.79-.58-.99-.81-.23-.28.27-.53-.8-.5-.11.12.44,1.3.56,1.5-.5.19-.98.18-1.5.19-1.68.01-.81-.02-1.42-.93-.64-.95-1.28-1.41-1.77-2.65h.75c-.03-1.03-.33-.8-.94-.75-1.04.08-.15-.55-.94-.56s-1.73.17-2.63,0c-.44-.6-2.42-3.13-2.44-3.57,0-.02.26-.2.19-.37h-.56c-.06-.07-.14-.12-.19-.19l-.19-.38c-1.12-1.51-2.26-3-3.38-4.51.85-.91,1.1.44,1.87.67.54.17.87-.08,1.33-.03.69.07,1.68.97,1.87.01-.08-.3-.76-.21-.76-.39,0-.48.49-1.25.35-1.82-.07-.29-.51-.66-.66-1.04-.29-.73-.98-2.63.32-2.01.07.03,1.17.74,1.32.84ZM74.18,95.02v.57s.94,0,.94,0v-.57s-.94,0-.94,0ZM82.26,103.3c.25-.45-.41-1.98-.94-1.5-.1.09.66,1.43.94,1.5ZM79.82,105.37c-.11.63.98,1.05,1.13.47.13-.51-.85-.52-1.13-.47ZM82.26,105.56c-1.1.16-.36.91.19,1.31l-.19-1.31ZM83.86,110.25v.19c.12-.06.12-.13,0-.19ZM84.24,110.44v.19c.12-.06.12-.13,0-.19ZM92.27,119.62c-.07-.05-.6-1.29-.8-1.56-.3-.4-.86-.74-1.13-1.12-.31-.43-.1-1.08-.93-1.23-.37.51.77,1.76,1.13,2.16.23.26.73.4.85.66.04.09.49,1.85.49,1.98,0,.36,0,.52-.4.47v.18c.82-.38,2.46,1.86,2.07,2.26-.73-.06-1.16.61-1.22-.37-.12.15-.65.31-.65.47,0,.1.85,1.59,1.02,1.6.25.02.45-.8.57-.93.19-.21.51-.11.65-.33.08-.11.57-1.5.58-1.66,0-.25-.97-.82-.77-1.4l-.94.56c-.08-.76-.8-.82,0-1.69-.16,0-.4.05-.52-.04ZM98.99,116.08c-.9-.01-1,.79-.75,1.5.32-.09.9-1.34.75-1.5ZM87.85,117.84c-.15-.08-.47-.18-.51.02.53,1.26.77,1.28,2.07,1.6.26-.59-.34-1.35-.87-1.46-.46-.09-.12.13-.68-.16ZM91.47,121.35c-.23-.12-.65.3-.56.37l.56.19v-.56Z"/>
          <path class="cls-1" d="M83.2,110.25c-.19.02-.15-.08-.19-.19h.19v.19Z"/>
          <path class="cls-1" d="M48.42,67.2l1.32.38c-.06-.27-.34-1.56-.42-1.65-.11-.14-.84-.02-.71-.6.46-.1,1.71.78,1.95.74.32-.06.42-.63.53-.7.14-.08.87-.07.9-.04.39.36-.55.78-.57.87-.35,1.5,1.09.32,1.43.26,1.51-.25,2.2,2.05-.01,1.89-.52-.04-.75-.36-1.22-.39.13.35.12,1.04.28,1.31.19.3.9.3,1.01.69.12.4-.46,1.12.11,1.38.29.13.6-.78.69-1,.12-.27.43-1.56.54-1.62.18-.12.65.04.74.27.22.59-.69.39-.28.85s1.23.28,1.38.4c.19.16-.14.81.87.92,1.11.12.5-.38.67-1.22.07-.36.35-.75.55-1.05,4.98,6.75,10.19,13.42,15.03,20.26.29.41.63.88.76,1.36-.15-.1-1.25-.81-1.32-.84-1.29-.62-.6,1.27-.32,2.01.15.39.59.75.66,1.04.14.57-.35,1.35-.35,1.82,0,.18.68.08.76.39-.19.96-1.18.06-1.87-.01-.47-.05-.79.19-1.33.03-.77-.24-1.02-1.59-1.87-.67-6.69-9.01-13.28-18.03-19.93-27.07ZM50.16,67.95c0-.13-.1-.23-.23-.23s-.23.1-.23.23.1.23.23.23.23-.1.23-.23Z"/>
          <path class="cls-1" d="M48.42,67.2c-4.28-5.82-8.68-11.58-12.97-17.39-.08-.43.19-.26.47-.28,2.63-.19,5.26.37,7.9.19.54.1,2.17,2.41,2.62,3.02,3.97,5.29,7.93,10.96,11.76,16.16-.21.3-.48.69-.55,1.05-.17.84.43,1.34-.67,1.22-1.01-.11-.68-.75-.87-.92-.15-.13-.97.08-1.38-.4s.51-.26.28-.85c-.09-.24-.56-.39-.74-.27-.1.07-.42,1.35-.54,1.62-.09.22-.4,1.12-.69,1-.57-.25,0-.98-.11-1.38-.12-.39-.83-.39-1.01-.69-.17-.27-.16-.96-.28-1.31.47.03.7.35,1.22.39,2.21.16,1.52-2.14.01-1.89-.34.06-1.79,1.25-1.43-.26.02-.1.96-.51.57-.87-.03-.03-.76-.04-.9.04-.12.07-.21.64-.53.7-.25.04-1.49-.84-1.95-.74-.13.58.6.46.71.6.07.09.35,1.38.42,1.65l-1.32-.38Z"/>
          <path class="cls-1" d="M77.56,103.3c-.22.59.22,1.14.75.75-.44.92.18.74.33.98.11.19,0,.54.1.74.21.46,1.4,2.56,1.62,2.85.15.19.49.11.67.31.06.07.84,1.6.85,1.69,0,.06-.32.18.02.82.47.86,3.61,2.21-.02,1.25-.12-.17-.14-.37-.19-.56-.12-.44.29-.66-.56-.56-2.09-2.33-4.32-5.68-6.2-8.27.9.17,1.8-.01,2.63,0Z"/>
          <path class="cls-1" d="M78.31,96.34c-.4.41-1.4.27-1.32-.38l.81-.04.13-.15c.22.27.26.42.38.56Z"/>
          <path class="cls-1" d="M81.13,111.57c.86-.1.45.13.56.56-.31-.09-.39-.37-.56-.56Z"/>
          <path class="cls-1" d="M72.11,99.35h.56c.07.18-.19.36-.19.38-.21-.05-.26-.25-.38-.38Z"/>
          <path class="cls-1" d="M71.92,99.16c-.13-.17-.16-.33-.19-.38l.19.38Z"/>
          <path class="cls-1" d="M83.39,108c.1.17.33.36.56.75-1.34.04-.19.42-.17.49.02.11-.14.7-.2.83h-.56c-.08-.26.06-.66-.37-.75l-.38.75c-.02-.76-.92-.9-.38-1.88.52,0,1.01,0,1.5-.19Z"/>
          <path class="cls-1" d="M78.5,103.86c.61-.05.91-.28.94.75h-.75c-.09-.23-.3-.4-.19-.75Z"/>
          <path class="cls-1" d="M79.82,105.37c.28-.06,1.25-.04,1.13.47-.15.58-1.24.16-1.13-.47Z"/>
          <rect class="cls-1" x="74.36" y="94.84" width=".57" height=".94" transform="translate(-20.87 169.69) rotate(-89.84)"/>
          <path class="cls-1" d="M83.86,110.25c.12.06.12.13,0,.19v-.19Z"/>
          <path class="cls-1" d="M84.24,110.44c.12.06.12.13,0,.19v-.19Z"/>
          <circle class="cls-1" cx="49.93" cy="67.95" r=".23"/>
        </g>
        <g>
          <path class="cls-1" d="M125.32,72.66c1.86-2.55,3.57-5.23,5.55-7.71.19-.09.82.81.83.87.05.27-.46.55-.36.63.58-.15.43.23.75.38-.05-.44-.27-.94.09-1.31.3.33.52.78.7,1.18.07.16.14,1.3.52.89.3-.33-.06-1.42-.12-1.82-.03-.17.17-.39.12-.43-.1-.08-.4.3-.75-.08-1.5-1.64-.2-2.22.75-3.59,1.36-1.97,2.84-3.91,4.3-5.85,1.18-1.57,2.21-3.28,3.51-4.77h8.55c-.61.91-1.25,1.99-1.89,2.87-3.8,5.24-7.96,11.26-12.03,16.22-.82,1-.76.06-.85.09-.11.16-.4.32-.47.47-.26.57.82-.19.56.37-.33.71-1.3.06-.75,1.22-.69-.13-.76-.24-1.13.38-.72.22-1.01-.4-1.32-.56.54-.76-.51-.8-.19-1.69l-.57.1.57,1.41c-.06-.03-.68-.34-.75-.38.22-.46-1.24-2.35-1.5-2.07.49.41-.23,1.78-.17,1.86.08.11.91.23.74.77h-.94s0-.75,0-.75c-.66-.19-.26.64-.38.75-.04.04-.36-.08-.53.04-.1.07-.11.45-.34.51-.27.08-.67-.25-.8-.16-.09.06-.12.61-.53.71-.35.08-1.02-.16-1.19-.54ZM133.02,70.02h-.75c.1.52-.02,1.22.75.85v-.85Z"/>
          <path class="cls-1" d="M118.55,90.52c.07-.08.32-.1.35-.3.09-.52-1.23-1.38.68-1.4.67,0,0,.98.08,1.39.04.22.58.23.77.31-.1.14-.32,1.18-.74,1.41-.17.09-.55-.18-.77-.02-.28.2-.1,1.28-.93,1.24l.56.28c-.52.64-.97,1.46-1.5,2.08-.29.34-.74.12-.38.65-1.14-.48-.83.38-1.24.93-.21.28-.87.4-.8.82.02.13.28.28.28.41.02.54-4.67,5.9-5.05,7.01l-.71.04.37.28c-1.12,1.31-2.06,3.06-3.19,4.33-.22.25-.29-.76-.48-.1-.17.6.26.55-.46,1.32l-.19.19h-.19c.17-.17-1.1-1.26-1.26-1.3-.38-.1-1.73,1.09-1.56-.2-.31-.05-.19.36-.19.56,0,.39.21,1.2.19,1.32-.02.09-.58.54-.38.94.42-.18,1.86.15,1.12.65-.08.05-1.31.49-1.4.49-.09,0-1.54-.89-1.61-.95-.16-.15-.58-1.03-.75-1.32.29-.03,1.81-.5,1.87-.58.02-.03-.22-.49.01-.74-1.21.67-1.67-1.18-2.82-.38-.02-.05-.2-.08-.2-.27.02-.43,1.23-1.59,1.51-1.98.53.38,2.02.83,2.26,0,.56-.2.49.83.66.75.67-.3.62-1.35,0-1.69-.31.33-.14.59-.66.56-.08,0-.26-.2-.47-.18-.42.04-.82.69-1.41.18.56-.74.27-1.92,1.88-1.32-.74-1.41.8-2.55,1.61-3.56.13-.05.76.59.82.67.13.2.27,1.32.77.83.04-.04-.06-.99-.08-1.04-.08-.22-.37-.19-.48-.42-.54-1.15.77-3.03,1.6-3.81.19-.18.44.02.45,0,.06-.1,0-.53.18-.85.68-1.2,1.85-2.21,2.46-3.46.39.3,1.07.47,1.39.76.47.43.59,1.84,1.23,1.02l-.57-.19c.64-.84-1.2-2.17-1.1-2.79.02-.15,1.18-1.53,1.39-1.81.67-.14.41,1.87,1.03,2.16-.48.12-.6.14-.75.66h1.5c-.43.81.31,1.45.85,2.07.69-.97-.54-1.23-.28-2.25,1-.22.93.5.94,1.32,1.01-.37.5-.64.75-1.5-.81.4-.41.09-.67-.35-.47-.79-.27-.73-.49-1.41-.08-.24-.99-.66-.91-1.25.09.06.31.01.47.19.19.21.24.69.3.74.25.18.79-.19,1-.18.19.01.19.59.48.57-.06-.49-.3-.77-.06-1.28.19-.4.53-.16.63-.23l1.13.66-.75.09c-.16.44.1,1.04.64.93.1-.02.86-1.28,1.24-1.68ZM101.86,109.69c0-.13-.1-.23-.23-.23s-.23.1-.23.23.1.23.23.23.23-.1.23-.23Z"/>
          <path class="cls-1" d="M130.96,71.53c.07.03.69.34.75.38.05.03.1.14.19.19.31.17.59.79,1.32.56-.15.25-.17.61-.37.85l.37.27c-1.01.12-1.17.33-.94,1.32l-.56-.56c-.5.8.21.79.19.84s-.56.87-.67,1.02c-3.34,4.84-7.39,9.44-10.8,14.11-.19-.08-.72-.09-.77-.31-.08-.41.58-1.4-.08-1.39-1.91.02-.59.88-.68,1.4-.03.2-.28.23-.35.3-.45.03-.03-.78-.47-.57-.12.06-.44.94-.85.56-.17-.15.32-.52.33-.8.02-1.43-.82-.82-.83-.23,0,.17.45.5.31.85-1.05-.35-.65.12-.75.19s-.44-.18-.63.23c-.24.51,0,.79.06,1.28-.3.02-.29-.56-.48-.57-.21-.01-.75.36-1,.18-.07-.05-.11-.53-.3-.74-.16-.18-.38-.13-.47-.19-.05-.03-.42-.7-.56-.09-.12.52.59,1.99.19,2.25-.83.54-.48-.55-.61-1.09s-.82-.77-.34-1.53c.04-.06.65-.1.7-.99l7.39-9.92c.48-.39.46.61.94.66.3-.53-.56-1.15-.56-1.22,0-.19,2.06-2.57,2.36-2.99.76-1.04,1.59-2.11,2.33-3.12.16.37.84.62,1.19.54.41-.1.44-.65.53-.71.13-.09.54.24.8.16.23-.06.24-.44.34-.51.17-.12.48,0,.53-.04,1.03.43,1.31,1.39,1.22,2.44.61-.22.49-.87,1.03-1.22.03-.69-.76.18-1.04-.28-.11-.18.06-.71.1-.75.41-.37.29.47.56.37v-1.13c.11.13.36,0,.38,0Z"/>
          <path class="cls-1" d="M98.24,109.88c1.15-.8,1.61,1.05,2.82.38-.23.25.01.71-.01.74-.06.08-1.58.55-1.87.58-.32-.53-.66-1.14-.94-1.69Z"/>
          <path class="cls-1" d="M101.82,107.25c-.02.12.03.28,0,.38-.24.83-1.72.38-2.26,0,.26-.35.36-.35.38-.38.59.52.99-.14,1.41-.18.21-.02.39.17.47.18Z"/>
          <path class="cls-1" d="M105.2,111.38l.19-.19c-.06.06-.03.23-.19.19Z"/>
          <circle class="cls-1" cx="101.63" cy="109.69" r=".23"/>
        </g>
      </g>
      <path class="cls-1" d="M149.28,30.51c-.2-.63-2.3.27-2.25-1.13.03-.86,1.44-1.16,2.15-1.22.54-.05,2.91-.07,3.4,0,.44.06,1.16.4,1.23.86.24,1.62-1.33,1.04-1.96,1.25-1.08.36-.35,1.66-.3,2.31.18,2.44-.12,4.97-.39,7.34-.12,1,.28,3.79.05,4.36-1.1,2.8-2.78-.35-3.37-1.6-1.15-2.45-1.98-5.18-3.03-7.69-.45-1.09-.99-2.16-1.45-3.25-.87.6-.13,1.32-.17,1.78-.13,1.49-.11,1.76.08,3.38.17,1.43-.34,4.73.03,5.8.31.92,2.28.04,2.57,1.01.71,2.37-2.72,1.36-4.02,1.55-.5.07-.76.46-1.29.39-1.01-.14-1.73-1.12-1.44-2.14.11-.38,2.33-.02,2.42-1.18.02-.31-.31-.55-.3-.88.04-.85.44-1.64.34-2.86-.04-.51-.6-2.52-.58-2.8.03-.35.48-.65.56-1.15.1-.59.07-4.58-.21-4.76-.35-.22-2.16.31-2.25-.49-.05-.47.02-1.03.53-1.18.32-.1,2.75-.09,3.14-.03.97.15,1.21.66,1.54,1.46.51,1.21.78,3,1.3,4.15.56,1.25,1.43,2.73,2.08,4.13.14.29,1.35,3.06,1.76,2.65.08-.22-.19-.42-.19-.47v-9.59Z"/>
      <path class="cls-1" d="M98.69,36.75c-.72.2-.8,1.72-.62,2.31.07.23.36.36.43.51.49,1.17-.4,1.97-.29,2.5.12.57,2.17.79,2.24.9.12.2.05,1.2-.07,1.47-.46,1.05-2.19.4-2.98.4-1.16,0-3.9.73-3.7-1.43.11-1.19.92-.67,1.59-.87.53-.16.22-1.1.32-1.56.21-1.07.6-2.5.75-3.57.31-2.23-.26-5.18,0-7.5-.16-.64-2.9.01-2.17-1.45.15-.3.45-.34.75-.38.91-.12,3.81-.12,4.72,0,1.49.2.71,1.45-.39,1.51-.41.02-.99-.46-1.18.13-.38,1.19.35,3.62-.22,4.95,1.07-.33,2.25.4,3.1.4.78,0,1.53-.78,2.28-.22.19.14.37,1.05.84.26.23-.39.29-4.44.17-5.04-.25-1.29-1.1-.45-1.38-.5-.93-.17-.34-.97.44-1.2.24-.07,1.7-.46,1.79-.46.24,0,.47.32.76.37.4.06,3.72-.24,2.22.92-.77.6-1.96-.05-2.47,1.1.15,2.12-.34,4.88-.05,6.93.06.44.33.67.4,1.11.14.97-.26,2.88.09,3.67.34.77,2.78.66,2.68,1.95-.07.91-.95.6-1.51.73-.27.06-.5.29-.81.32-.8.09-3.4.14-4.12,0s-1.07-1.26-.76-1.88,1.66-.18,1.94-1.06c.21-.66-.07-1.98.04-2.78.05-.36.31-1.09.41-1.65.02-.09.64-.89.05-.89-1.13,0-4.45-.22-5.26,0Z"/>
      <path class="cls-1" d="M28.14,28.33c.41.71-.24,1.63-.32,2.13-.07.44.19,1.82-.3,1.96-.54.16-1.62-1.36-2.06-1.69-1.22-.92-1.46-.62-2.81-.76-.88-.09-.7-.64-1.89.2-.84.59-1.38,1.28-1.23,2.36.16,1.16,1.29.64,1.7,1.68,1.48.59,5.15,1.07,6.1,2.17.65.76.77.74,1.33,1.3.33.32.85,1.51.85,1.98,0,.65-1.41,3.31-1.91,3.75-.85.73-4.03,1.82-5.11,1.56-.53-.13-2.17-1.27-2.5-1.27-.46,0-.75.79-1.17.91-.6.18-1.25-.2-1.36-.82-.09-.51-.06-4.47.09-4.79.26-.54,1.37-.73,1.85-.39.15.11,1.22,2.53,1.93,3.19,2.82,2.64,7.81-.34,5.8-3.35-.14-.21-1.44-1.54-1.59-1.61-.53-.24-1.21-.02-1.77-.11-.91-.14-1.86-.26-2.79-.41-.85-.14-2.6-1.23-3.25-1.83-.95-.88-.88-3.75-.25-4.77,1.34-2.16,4.9-2.69,7.11-1.72.22.1.34.43.58.55,1.63.81,1.56-.52,1.99-.64.19-.06.9.3.97.41Z"/>
      <path class="cls-1" d="M70.47,28.31c.05.06,0,.98.4,1.29.55-.12-.06-1.27,0-1.31.78-.11,1.4,1.9,1.13,2.25l-.56-.19s.13,1.08.18,1.19c.11.27.64-.15.72.78.09.97.08.4.21.8.79,2.45,1.47,5.06,2.07,7.67.11.48-.13,1.17.18,1.65.45.71,2.62-.24,2.99,1.01.22.73-.24,1.11-.9,1.28-.8.2-4.49.22-5.37.1-.87-.12-1.31-.99-.74-1.7.55-.68,1.2-.19,1.6-.46.45-.31-.25-2.6-.77-2.83-.47-.21-2.86-.18-3.3.08-.64.38-.56,2.09-.65,2.83.5.09,1.73-.17,2.08.08.26.18.29,1.36.05,1.63-.64.74-3.52.24-4.48.17-.37-.03-1.51.41-1.76-.31-.59-1.67,1.97-1.68,2.2-2.45.08-.28-.02-.63.05-.89.76-2.82,1.27-5.83,2.1-8.62.1-.33.57-.53.67-1.02.14-.62.05-3.03.92-3.22.14-.03.95.14.98.18ZM72.18,37.69c.4-.38-.62-.86-.76-1.03-.73-.9-.41-1.89-.57-2.82-.03-.17-.42-1.54-.46-1.61-.34-.63-.5.83-.76.94l-.47-.75c-.4.75.32,1.48.32,2.2s-.7,1.63-.23,2.69c.27.61,1.11-.11,1.89-.01.2.02.65.75,1.02.39Z"/>
      <path class="cls-1" d="M120.7,30.01c-.05-.69-.08-1.57.7-1.84.74-.25.55.21.8.43.21.19.52.27.63.51.29.67.03,1.58.13,2.3.05.32.39.52.37.93-.02.43-.63,1.77-1.03,2-1.63.93-2.36-2.11-3.03-3-.35-.47-1.92-1.45-2.43-1.45-.09,0-1.51.3-1.65.34-.21.06-1.72,1.57-1.79,1.79-.09.29.02.63-.05.89-.09.35-.32.53-.37.94-.21,1.47.38,5.91,1.16,7.13.44.69,2.11,1.51,2.91,1.62.65.08.86-.28,1.22-.28.34,0,1.32.39,1.49.28.11-.61-.57-.66-.54-1,0-.11.75-1.83.84-1.99.46-.84,2.06-2.2,2.32-.47.21,1.37-.39,3.75-1.58,4.6-.31.22-.67.22-.9.37-.36.24-.41.74-1.21.9-.19.04-2.05.13-2.12.05-.06-.08.04-.56,0-.75-.38-.02-.2.7-.5.76-.25.05-1.65-.21-1.9-.34-.35-.17-.4-.53-.62-.69-.3-.22-.76-.16-1.01-.49-.17-.23-1.52-2.74-1.56-2.95-.15-.71-.34-2.35-.42-3.15-.21-1.96.72-6.21,2.07-7.71.66-.74,1.64-1.01,2.49-1.42.11-.05.12-.33.27-.37.28-.06,1.18-.06,1.46,0,.41.08.52.45.79.52.66.19,1.61-.13,2.3.52.3.28.26.89.76,1.02Z"/>
      <path class="cls-1" d="M162.11,27.5c.13.65.66.89.97,1.34.36.52-.14.78,1.07.96.25,1.17.51,2.58.84,3.71.61,2.09,1.26,3.91,1.73,6.06.22,1.01.37,2.06.51,3.08.33.7,1.72.25,2.36.44,1.04.3,1.35,1.73-.05,2.06-.98.23-4.86.25-5.91.11-1.37-.18-1.06-1.9-.15-2.16.64-.18,1.49.29,1.48-.74,0-.58-.42-.66-.57-1.05-.13-.33-.05-.8-.23-1.12-.31-.51-3.24-.43-3.72-.14-.66.39-.41,1.07-.53,1.66-.1.48-.84,1.16.15,1.34,1.05.19,2.37-.6,2.06,1.25-.27,1.64-3.67.81-4.86.75-.6-.03-1.69.59-2.02-.59-.36-1.29,2.09-1.63,2.37-2.25.21-.44.1-.94.2-1.4.55-2.44,1.18-5.07,1.88-7.5.2-.71.81-1.92.85-2.14.2-1.07-.17-3.8,1.57-3.67ZM162.89,30.93c-.91-.55-1.72.93-1.76,1.65-.02.45.36.64.4.99.07.65-.61,3.95.11,4.09.21.04,1.34-.7,1.89-.4.14-1.27-.61-1.94-.39-3.28.11-.65.7-1.01.39-1.71.17-.13.86.41.6-.9-.21-1.03-.7-.1-1.09-.1-.12,0-.08-.3-.15-.34Z"/>
      <path class="cls-1" d="M89.95,30.18c-.15-.22-2.74-.3-3.02-.11-.41.28-.06,4.59-.17,5.47-.07.56-.4.9-.4,1.5,0,1.4.66,3.11.41,4.9-.07.48-.51.84-.38,1.29.15.51,1.15-.03,1.74.15.25.08.89.85.88,1-.05.64-1.7.24-1.96.28-1.03.14-2.02.38-3.2.39-.41,0-2.18.06-2.33-.04-.36-.23-.22-1.21.18-1.55,1.1-.93,1.68-.11,2.8-.11.13-.13-.09-3.1,0-3.68.37-2.64.37-2.79,0-5.43-.11-.8.13-1.81,0-2.63-.2-1.28-2.37-2.29-2.77-.91-.37,1.27.71,2.47-1.36,2.98-1.3.32-.78-1.2-.98-1.86-.1-.36-.63-.48-.72-.99-.13-.78.65-2.6,1.59-2.73,1.53-.2,8.88-.21,10.26.1.16.03.82.31.93.39,1.15.92-.19,5.99-1.51,4.33-.53-.66.14-1.12.14-1.33,0-.13-.28-.31-.29-.55s.27-.7.17-.85Z"/>
      <path class="cls-1" d="M43.19,31.86c.15-1.06-.72-.7-.75-.75-.08-.16.27-.67.19-.94-.15-.22-2.75-.3-3.02-.11-.41.28-.06,4.59-.17,5.47-.07.56-.4.9-.4,1.5,0,1.4.66,3.11.41,4.9-.07.48-.51.84-.38,1.29.15.5.86.08,1.21.1.74.03,1.39.53,1.22,1.32-.61.33-1.27-.05-1.76,0-.55.07-.67.49-1.7.37-.97-.12-.55,0-1.31.02-.46.01-2.33.07-2.56-.09-.88-.62.42-2.02,1.43-2,.5.01.97.61,1.59.39.13-.13-.09-3.1,0-3.68.37-2.64.37-2.79,0-5.43-.11-.8.13-1.81,0-2.63-.2-1.28-2.35-2.25-2.84-.97-.54,1.39.65,2.55-1.28,3.04-1.2.3-.83-1.06-1.05-1.8-.13-.43-.63-.52-.66-.84-.11-.98.5-2.78,1.6-2.93,1.49-.2,8.77-.22,10.12.05.8.16,1.36.74,1.46,1.55s-.25,3.23-1.08,3.46c-1.23.33-1.6-1.81-.24-1.29Z"/>
      <circle class="cls-1" cx="12.32" cy="35.81" r="2.9"/>
      <g>
        <path class="cls-1" d="M49.41,30.62c-1.1.27-3.66-.45-2.12-1.75,1.1-.93,1.72-.05,2.57-.04.6,0,1-.41,1.46-.4.8.01,1.74.47,3.08.37.32-.02.59-.34.89-.32.74.06,1.96,1.67,2.85,1.86.16.25.39.49.49.78.36,1.03.23,2.5.04,3.57-.31,1.72-1.14,1.25-1.81,2.01-.52.6.54,1.81.68,2.4.1.43-.01.83.05,1.22.05.29.34.5.36.75.05.44-.47.63-.29.98.04.08,1.12,1.15,1.2,1.18.56.24,1.8-.13,1.8,1.09,0,2-3.05.55-3.8-.37-.07-.09-.51-1.46-.54-1.64-.11-.82.3-2.24-.11-2.79-.17-.22-.51-.3-.71-.56-.22-.3-.33-.86-.51-1.04-.25-.26-.73-.02-1.08-.08-.2-.04-.39-.28-.77-.33-.89-.12-1.52.47-2.34.2-.2-.07-.18-.76-.58-.91,0,1-.84.45-.79-.23.06-.7.65-.45.7-.5.33-.34-.73-1.11-.73-1.18v-4.27ZM51.59,31.07c-.14.44,0,2.43,0,3.09,0,.24-.98,1.08.17,1.46,1,.33,1.34-.13,2.11-.27.83-.16,1.77.01,2.53-.74.87-.87.7-2.96-.4-3.4-.71-.28-4.21-.79-4.41-.14ZM55.77,36.07l-1.09.73c.64,1.41,1.34.53,1.09-.73Z"/>
        <path class="cls-1" d="M52.85,43.73c.1.1-.21.71.56.52.06,1.12-.56.5-1.17.54-.36.02-.7.18-1.09.2-1.3.05-2.62-.05-3.92,0-.24-1.88.72-1.01,1.69-1.31.66-.2.39-1.59,1.58-1.06l-.18-1.09c1.83-.31.95,1.32,1.43,1.92.32.4.97.16,1.09.28Z"/>
        <path class="cls-1" d="M50.32,39.89c-.04.52.19,1.51-.36,1.81-.02-.44-.47-.28-.37-.79.03-.16.34-1.17.73-1.02Z"/>
      </g>
      <path class="cls-1" d="M131.9,28.21s.06.28.27.38c.82.41,1.73.24,2.32,1.06.37.52.2.9.44,1.44.41.9,1.41.89,1.68,2.48.06.34-.15.65-.11.87.05.29.6.45.7.97.06.33.07,2.14-.03,2.41-.12.35-.73.32-.73.78,0,.4.61.61.73.98.36,1.2-.48,1.38-.88,2.24-.22.46-.26,1.26-.5,1.57s-.79.31-1.12.57c-.74.56-.92,1.18-2.06,1.32-.63.08-2.81.1-3.38,0-.14-.03-2.34-1.41-2.44-1.51-.09-.1-1.11-2.27-1.16-2.42-.09-.33.14-.62.11-.95l-.37.19c.12-.46-.23-1.01-.19-1.4.03-.31.39-.53.39-.95s-.34-.63-.39-.95c-.17-1.12.37-2.79.34-3.15-.02-.23-.35-.47-.34-.78,0-.22.65-1.72.85-1.96.66-.78,2.64-2.55,3.6-2.79.36-.09.74.02,1.08-.05.41-.08.72-.56,1.19-.32ZM134.23,33.77c-.12-.22,0-.79-.08-1.15-.16-.73-.81-.71-1.34-1.1-.65-.47-.77-1.28-2.06-.88-.11.03-1.26.54-1.44.63-.13.06-1.53,1.47-1.6,1.6-.63,1.33-.69,5.32-.47,6.84.18,1.2,1.49,2.4,1.86,3.59.97-.05,1.59.9,2.5.62.33-.1.51-.53.79-.72,2.21-1.5,1.77-2,2.68-4.27.11-.27.56-.57.56-.7,0-.08-.63-1.07-.69-1.52-.11-.72.15-1.78-.05-2.4-.13-.41-.61-.42-.68-.54Z"/>
      <g>
        <path class="cls-1" d="M83.2.47c.21.04.71.42,1.08.52.46.12,2.44.33,2.69.5.18.12.45,1.51.36,1.61-.61-.27-1.49-.07-2.03-.31-.37-.16-.17-.67-.53-.79-.92-.31-2.17-.01-3.08.17.04,1.44,1.9,1.85,3.11,1.89.52.02,1.01-.24,1.45-.17.49.08,1.56,1.08,2.12,1.28.81.3-.29-1.11-.27-1.2.21-1.18,1.3.24,1.49.26,0,.13,0,.25,0,.38,0,.22-.1.63.11.77.17.11,1.37.29,1.7.34,1.15.15,1.92.43,3.08.58-.15.28-.05.53-.46.58-1.84.21-4.28-.07-6.22-.02-19.73.47-39.78.2-59.5.38.25-1.08.94-.58,1.57-.78.25-.08.25-.43.44-.54.48-.29,1.11-.36,1.56-.93.11.18.51.35.73.86.15.33.18.97.21,1.01.34.34,2.4-.45,2.25-.74-.52-.08-.79-.72-1.18-1-.44-.32-1.02-.43-1.37-.69-.1-.08-1.94-2.21-1.22-.57h-.75s0-.75,0-.75c.18.02.44.08.37-.18-.5.04-.44-.58-.68-.9-.59-.76-.95-.94-1.95-.8,0-.25,0-.5,0-.75,17.35.28,35.44-1.01,52.75-.2.58.03,1.61.08,2.15.2ZM54.81,3.1c.09-.7,0-1.03-.66-1.31-.79,1.02.43.51.47.56.1.13-.21.79.19.75ZM55.37,3.1c-.48-.1-.33.11-.48.36-.83,1.29.88.15.48-.36ZM42.4,3.85c-.51.17-1.06-.38-1.41-.38-.54,0-1.16,1.36-1.57,1.09-.03-.02,0-.3-.15-.34-.73-.2-1.65.27-1.57,1.13.28.07.14-.25.32-.37.95-.66.52.52.83.73.18.12,1.45-.06,1.85.21-.02-1.21.04-1.23,1.06-1.43.45-.09.34.45.63-.63Z"/>
        <path class="cls-1" d="M100.12.28c4.54-.1,8.96-.05,13.44,0,1.13.02,7.32-.22,7.81.09.15.1.25.44.5.63.93.69,1.39.35,1.2-.72.18-.1,2.07.02,1.57.38-.07.05-.68.06-.26.37.03.02.56.04.64.01.15-.04,0-.86,1.17-.94,2.12-.14,4.8.18,6.94.19,5.2.02,10.55.13,15.8,0,.32,0,.81-.23.83-.2.37.52-.65.68-.56,1.03l1.03.66c.41-1.08,1.14-1.68,2.35-1.5.09.07-.34.73-.38.75-.05.04-.32-.04-.43.04-.74.58-1.41,2.23.24,1.84-.44-.68.4-1.1.19-1.88.56-.29,1.27.85.84.94-.5.11-.09-.43-.47-.38v1.22c.93-.08,1.08.01,1.88.28.63.21,1.1.27,1.69-.19.17.16.12.76.29.76.47-.02.75-.61.65.37-1.03-.68-1.47.5-1.81.55-.21.03-.4-.29-.57-.3-.59-.05-1.94.24-2.38.14-.22-.05-.23-.52-.41-.57-.41-.11-.41.71-.94.76-.4.03-1.99-.56-2.16-.38-.54,1.33,2.04.86,2.06,1.41.02.41-3.31.12-3.65.46l.08.76c-.69,0-1.38,0-2.07,0,.59-1.99-1.11-2.3-.38,0-12.91-.02-25.82.03-38.73,0l-.38-.94c.76.04,1.3-.35.85-1.13-.36-.61-1.18-.15-1.66-.2-.43-.04-1.6-.42-1.88-.34-.32.09-.4.78-.82.9-.42.12-1.07-.29-1.56-.17l.8-1.07c.84-.69,1.6.13,2.29.14.48,0,.9-.35,1.34-.38.37-.03,1.3.46,1.2-.1-.17-1.04-1.1-.32-1.58-.67-.34-.25-.3-.73-.68-1.02-.38-.3-2.29-1.13-2.63-.66l.19.94c-1.15.06-1.06-1.13-1.5-1.88ZM130.83,1.72c-.16-.11-.36-.6-.72-.69-.23-.07.29,1.53.38,1.69.17.29.55.31.61.42.22.37-.32.88.6.71-.03-.58-.11-1.21.65-1.14.99.09.46,1.6.95,1.7,1.34-.36-.19-1.47-.28-2.36-.3-.23-.65.29-1.01.26-.17-.02-.99-.45-1.19-.59ZM141.64,4.38c.15-.26-.29-1.2.03-1.66-.35.08-.35.61-.69.72-.93.32-1.38-.63-1.19,1.16.6-.41,1.46.43,1.85-.22ZM137.54,5.73c-.03-.32.1-.85-.04-1.09-.04-.08-1.38-1.08-1.46-.98l.38,1.88c.7-.44.49.12.69.19.15.05.36-.03.44,0,.04.38.28,1.14.75.75.34-.28-.66-.71-.75-.75ZM145.62,4.04c-.04-.06-.93-.23-1.13-.19.07.19.78.93.85.93.19,0,.39-.58.28-.75Z"/>
        <path class="cls-1" d="M154.46,3.1c-.71-.84-.78-1.73-.94-2.82,4.79.12,9.6-.12,14.39-.1,2.61.01,5.62-.12,8.26.1,2,.16.65.9-.37,1.32-.41.17-.76.14-1.23.37-.07.03-.12.15-.19.19-.75.44-.72.46-1.13,1.13-.41.02-1.04.6-1.32.94-.26.02-.53-.05-.75-.19.06-.05.56-.64.28-.75-.85.39-1.91.11-2.83.18-.6.04-.93.52-1.59.2.11.31.83.49,1.13.56-.74,1.28-1.27.49-1.99.38-.77-.12-2.87.29-3.65-.19-.04-.02-.11-.77-.56-.37-.5.43.53.34.56.37.04.05-.03.57,0,.75-.53.11-1.1-.62-1.57-.53-.29.06-.5.62-.81.69s-.6-.19-.9-.16c-.83.08-1.06.15-2.07.17-.75.01-1.26.53-1.98.2-.26-1.27,2.55-.69,2.82-.94l-.19-1.69c.46.2,1.89.1,2.44.19-.19-.37-.51-.44-.29-.93.34-.76,1,.56,1.42-.56-1.07-.81-1.22.11-1.99.18-.54.05-3.19-.79-1.96.75-.38.07-.59-.04-.75-.38.11-.19.24-.31.19-.56-.9-.32-1.86,1.91-2.44,1.5ZM166.49,2.35c-1.84.65-2.81-.42-4.51-.56.37.9.94.61,1.56.76.15.03.04.28.41.38.68.18,2.11.07,2.54-.57Z"/>
        <path class="cls-1" d="M25.48.28c.47.8-.27.91-.75,1.5-.09-.07-.26-.14-.38-.19-1.22-.5-.56.18-.76.36-.13.12-.71-.09-.91.04-.12.08-.11.62-.24.7-.24.17-1.24-.22-1.48.31-.15.33.35.29.52.59.12.22.36,1.14.43,1.19.05.04,1.17-.21,1.3-.28.33-.17.33-.67.48-.66.27.02.42.3.6.34.31.07.7-.17,1.08-.16.53.01.98.38,1.51.4s1.21-.4,1.47-.35c.29.06.63.74,1.16.71.23-.01,1.2-.72,1.6-.18.27.36-.95.78-1.2.96-.22.16-.48.7-.59.72-.27.04-1.12-1.47-1.99-.85l-.18,1.24-1.22-.19.09.75c-4.38.04-8.78-.03-13.16,0-.11.75.35.76.57,1.08.58.85,1.14,1.71,1.71,2.56.25.37.77.47.72,1.24-.03.01-.09.27-.31.34-.92.26-1.59-.42-2-.31-.37.1-1.36,1.23-1.57,1.27-.32.06-.9-.98-2.01-.32-.35.21-.37.74-.88.72-.92-1.28-2.48-2.9-3.01-4.32-.15-.39.13-.85-.75-.75-.48-.6-.86-1.26-1.32-1.88.14-.36,1.24-.71,1.29-.78.23-.39-.44-1.13.92-1.04,1.09.07,1.39,1.24,1.49,1.27.24.07,1.68-.07,1.76-.2.1-1.14-2.01-1.42-1.8-2.63s1.67-.96,2.56-1.21c.41-.12.55-.66,1.11-.39.69.32.59.95,1.5-.19.79-1-.87-.59-.93-1.4,4.53-.03,9.19.15,13.54,0ZM10.44,5.17c.57-.58-1.3-1.84-1.88-1.69-.19.79.46.6.69.81.16.16.79,1.29,1.19.88ZM6.68,6.29h-.85c-.51.43.68,1.12.84.94v-.94ZM9.11,7.63c-.38-.26-.92.35-1.17.33-.62-.06-1.06-.95-1.25.78l2.63-.19c.06-.06-.13-.87-.21-.92ZM13.45,11.75c-.1-.57.07-1.84-.28-2.25-.7-.2-1.31-1.15-1.83-1.37-1.54-.65-1.09.07-1.28.69-.09.32-.44.65-.37.95.17.67.96-.06,1.19-.06,1.15.05,1.16,2.22,2.57,2.03ZM9.5,11.56c.06-.36-.27-.55-.33-.87-.04-.24.24-.58.06-.83-.17-.24-1.42-.25-1.8-.37.03,1.3,1.48,1.53,1.13,2.82,1.24.2-.3-.94.94-.75Z"/>
        <path class="cls-1" d="M174.58,1.97c.8.48,2.84,1.13,3.19-.19-.2.03-.42.73-.75.37-.02-.02-.02-.54,0-.56.15-.14,1.02.35,1.05-1.14.77.08,1.56-.3,1.87.58l.1-.56c.34-.07.12.31.19.38.03.03.44-.34.83-.39,1.49-.19,3.19.21,4.69.22.42.14.34,1.07.39,1.49l-2.72,3.37c-.86-.51-4.24.97-4.69.54-.08-.07.03-.5-.01-.54-.02-.02-.54-.02-.56,0-.09.1.37,1.02-.82.89-.59-.06-.73-1.11-1.81-.7-.17.63,1.06.17.56.93-.21.32-2.34-.06-2.44.01-.06.04.04.3,0,.37-8.79,0-17.53-.09-26.32-.19l-.08-.76c.34-.34,3.67-.05,3.65-.46-.03-.54-2.6-.08-2.06-1.41.17-.18,1.77.42,2.16.38.52-.05.53-.87.94-.76.18.05.2.52.41.57.44.11,1.79-.19,2.38-.14.17.01.35.33.57.3.34-.05.78-1.23,1.81-.55.1-.98-.18-.39-.65-.37-.17,0-.12-.6-.29-.76.04-.03.52-.67.56-.75.17.33.37.45.75.38.07.09.31.35.38.38l.19,1.69c-.27.25-3.08-.33-2.82.94.72.33,1.23-.19,1.98-.2,1.02-.02,1.25-.09,2.07-.17.3-.03.6.23.9.16s.52-.63.81-.69c.47-.09,1.04.63,1.57.53-.03-.18.05-.71,0-.75-.03-.03-1.06.06-.56-.37.45-.4.53.35.56.37.78.48,2.88.07,3.65.19.72.11,1.25.9,1.99-.38.04,0,.25-.2.44-.15.25.07.37.41.58.45.26.05,1.75-.32,1.98-.49.23.13.49.21.75.19,1.01-.08.9-.26,1.32-.94.2,0,.5.27.75.11.3-.19.41-.88.38-1.24.07-.04.12-.16.19-.19ZM179.03,3.8c.24-.74-.12-1.37-.69-1.83-.12.83-.77.99-.34,1.93.29.63.94.15,1.03-.1ZM171.38,4.79c-.26-.14-.5.12-.37.18.26.14.5-.12.37-.18ZM154.27,5.17c-.23-.15-2.41.11-2.91,0-.83,1.12.79.53,1.3.56.54.03,1.16.28,1.7.38.21-.07-.05-.92-.09-.94ZM161.04,5.54h-.56v.37h.56v-.37Z"/>
        <path class="cls-1" d="M85.46.28s.31.18.64.2c.62.05,1.69.09,2.18-.2h.38c.36.28.49.72,1.02.77l.49-.77c.06,0,.13,0,.19,0,.12.3.82.3.94,0,.06,0,.13,0,.19,0,.03.28.54.28.56,0,.19,0,.38,0,.56,0,.12.3.82.3.94,0,.06,0,.13,0,.19,0l.94.94c-.1-.91.75-.49.75-1.13.08.02.15.18.19.19.29.09.88.18.92.21.08.06.26,1.49,1.06,1.49.66,0,1.05-1.35,1.26-1.47.17-.1,1.05.06.53-.23.2,0,.54,0,.75,0,.44.75.36,1.94,1.5,1.88l-.19-.94c.34-.48,2.26.36,2.63.66.38.3.33.77.68,1.02.48.35,1.41-.37,1.58.67.09.56-.83.07-1.2.1-.44.03-.86.39-1.34.38-.69,0-1.45-.84-2.29-.14l-.8,1.07c.49-.12,1.14.28,1.56.17.42-.12.5-.81.82-.9.28-.08,1.45.3,1.88.34.48.05,1.3-.41,1.66.2.46.78-.08,1.17-.85,1.13l.38.94c-3.54,0-7.09,0-10.63.01-.39.02-.34-.49-.66-.69-.23-.14-.35.12-.37.11-1.16-.15-1.93-.43-3.08-.58-.33-.04-1.53-.22-1.7-.34-.21-.14-.11-.56-.11-.77.2-.07.91.34.94.09.12-1-.64-.44-.94-.47-.19-.02-1.28-1.43-1.49-.26-.01.08,1.09,1.49.27,1.2-.56-.2-1.63-1.2-2.12-1.28-.44-.08-.92.18-1.45.17-1.21-.04-3.07-.44-3.11-1.89.91-.18,2.17-.48,3.08-.17.36.12.16.63.53.79.54.24,1.42.04,2.03.31.09-.1-.18-1.48-.36-1.61-.25-.17-2.23-.39-2.69-.5-.37-.1-.87-.47-1.08-.52.09-.25.36-.17.56-.19.03.28.54.28.56,0,.39-.02.66-.02,1.13,0ZM88.84.84c-.06-.06-.71-.12-.56.28.26.68.89.05.56-.28ZM90.72,2.16c.05-.58-.47-.61-.94-.56-.05.58.47.61.94.56ZM93.12,1.84c-.11-.11-.32-.1-.42-.23-.74.74-.05.82.66.93.09-.09-.12-.59-.24-.7ZM95.61,1.78c-.26-.06-.5.1-.56.37h.56s0-.37,0-.37ZM94.48,2.35v.56s.56,0,.56,0v-.56s-.56,0-.56,0ZM101.06,3.85c.13-.96-.59-.65-1.17-.8-.21-.05-.38-.3-.62-.32-.51-.05-1.33.15-.94.75.22.34.72-.05,1.13-.02.51.03.96.6,1.6.39ZM91.66,3.1v.56s.56,0,.56,0v-.56s-.56,0-.56,0ZM91.85,3.85c.05,2.09,3.09-.01,1.21-.38-.71-.14-.41.88-1.21.38ZM93.92,4.98c-.12.1-.65.05-.57.47.18.33.43-.04.57-.09.36-.15.56-.38.94-.47-.37-1.02-.62-.17-.94.1ZM102.05,5.73c0-.13-.1-.23-.23-.23s-.23.1-.23.23.1.23.23.23.23-.1.23-.23ZM105.01,6.29c.22-.23-.37-.74-.75-.56-.28.36.65.66.75.56Z"/>
        <path class="cls-1" d="M183.41,5.54c-2.4,3.84-5.38,7.29-8.08,10.9-.54-.46-1.82.27-2.26-.19-.35-.37,1.21-.56.94-1.12-.62.14-1.54.32-2.15.2-.23-.04.02-.55-.21-.59-.48-.09-1.24.09-1.78.01v.56s1.32.19,1.32.19c-.55,1.83-.76.32-1.58.37-.43.03-1.26.39-1.05.94-.17.16-.95-.83-1.32-.94,1.83-2.5,5.07-6.32,6.39-8.84.04-.07-.05-.33,0-.37.1-.07,2.23.31,2.44-.01.5-.76-.73-.3-.56-.93,1.08-.42,1.22.63,1.81.7,1.19.13.73-.79.82-.89.02-.02.54-.02.56,0,.05.05-.07.47.01.54.45.42,3.83-1.06,4.69-.54Z"/>
        <path class="cls-1" d="M167.24,15.88c.37.11,1.14,1.1,1.32.94-.2-.55.62-.92,1.05-.94.82-.05,1.03,1.46,1.58-.37l-1.32-.19v-.56c.53.08,1.29-.11,1.78-.01.23.04-.02.55.21.59.62.12,1.53-.06,2.15-.2.27.56-1.28.76-.94,1.12.43.46,1.72-.27,2.26.19-.09.12-.24.37-.38.56-.99-.11-.61.54-.75.94-.58,1.6-2.7,3.59-3.67,5.08h-8.18l.21-1.01c1.56-2.04,3.16-4.07,4.68-6.13ZM170.44,17.39c-.1,1.13,3.57.35,3.57.09,0-.59-3.1.14-3.57-.09Z"/>
        <path class="cls-1" d="M17.96,14.76c.18.28.51.75.75,1.13-.54-.03-.97.71-.73,1.1.04.07,1.67.85,1.48.02,1.07.92,1.51,1.37,2.41,2.56.81,1.07,1.9,2.39,2.29,3.64h-8.18c-.99-1.1-1.72-2.49-2.57-3.64-.48-.65-.98-1.33-1.47-2,.61-.67,1.25.04,2.02.14,1.38.18,1.02.04,1.61-.83.31-.46.72-.2.32-1.37,1,.17,1.68.4,2.07-.75ZM17.77,16.82c-2.41.1-.31,1.07,0,.75.05-.05-.03-.57,0-.75Z"/>
        <path class="cls-1" d="M11.94.28c.06.81,1.72.4.93,1.4-.91,1.14-.81.51-1.5.19-.57-.26-.7.28-1.11.39-.89.25-2.34-.06-2.56,1.21s1.9,1.49,1.8,2.63c-.09.13-1.53.27-1.76.2-.1-.03-.4-1.2-1.49-1.27-1.36-.09-.68.65-.92,1.04-.04.07-1.15.42-1.29.78C3.09,5.55.72,2.91.13,1.66-.55.21,1.57.4,2.67.35c2.93-.14,6.29-.05,9.28-.07Z"/>
        <path class="cls-1" d="M15.89,12.12c.09-.04.44-.03.53.03.1.06,1.18,1.66,1.36,1.94.16.25.14.61.17.66-.39,1.15-1.07.93-2.07.75.41,1.17,0,.91-.32,1.37-.58.87-.23,1.02-1.61.83-.78-.1-1.41-.81-2.02-.14-.93-1.26-1.9-2.48-2.82-3.76.51.02.53-.5.88-.72,1.11-.66,1.69.38,2.01.32.21-.04,1.2-1.17,1.57-1.27.4-.11,1.08.58,2,.31.22-.06.29-.33.31-.34Z"/>
        <path class="cls-1" d="M28.3.47c0,.25,0,.5,0,.75,0,.01-.15.05-.15.11.03.17.42.22.53.4.13.21.08.55.23.75.14.19.82.46.98.81.36.13.24-.38.39-.39s.24.2.26.21v.75s.75,0,.75,0c.16.36.36.79.56,1.13-.45.57-1.08.65-1.56.93-.19.11-.19.46-.44.54-.64.2-1.32-.3-1.57.78-.75,0-1.5,0-2.26,0l-.09-.75,1.22.19.18-1.24c.87-.62,1.72.89,1.99.85.1-.01.36-.55.59-.72.25-.18,1.46-.6,1.2-.96-.4-.54-1.37.17-1.6.18-.52.03-.87-.65-1.16-.71-.27-.05-.92.37-1.47.35s-.99-.38-1.51-.4c-.38-.01-.77.23-1.08.16-.19-.04-.34-.33-.6-.34-.14,0-.15.49-.48.66-.13.07-1.25.32-1.3.28-.07-.05-.31-.97-.43-1.19-.17-.31-.67-.26-.52-.59.24-.52,1.24-.14,1.48-.31.12-.08.11-.62.24-.7.2-.13.78.08.91-.04.2-.18-.46-.86.76-.36-.19,1.42.29.7.71.99.06.04.04.65.42.23-.27-.44-.31-.71-.75-1.04.49-.59,1.22-.7.75-1.5.88-.03,1.95.04,2.82.19ZM26.42,1.78c.24.12.46.25.74.18.49-1.01-.1-1.41-1.08-.99-.34.14-.17.3-.23.44-.1.24-.3.39-.19.75.49-.02.86.19.75-.38ZM26.24,3.49c-.11,1,2.01.52,1.87-.1-.05-.23-.78-.5-1.04-.49-.38,0-.38.61-.83.59Z"/>
        <path class="cls-1" d="M99.37.28c.52.29-.35.12-.53.23-.21.12-.6,1.47-1.26,1.47-.8,0-.98-1.43-1.06-1.49-.04-.03-.63-.12-.92-.21,1.26-.12,2.51,0,3.76,0Z"/>
        <path class="cls-1" d="M18.71,15.88c.12.19.7,1.08.75,1.13.2.83-1.44.05-1.48-.02-.24-.4.19-1.14.73-1.1Z"/>
        <path class="cls-1" d="M95.42.09c0,.63-.86.21-.75,1.13l-.94-.94c.42,0,1.41-.25,1.69-.19Z"/>
        <path class="cls-1" d="M90.16.28l-.49.77c-.53-.05-.65-.49-1.02-.77.5,0,1,0,1.5,0Z"/>
        <path class="cls-1" d="M174.95,17.01c-.19.26-.21.79-.75.94.14-.4-.24-1.05.75-.94Z"/>
        <path class="cls-1" d="M6.12,9.49c-.36-.15-.53-.47-.75-.75.88-.09.61.36.75.75Z"/>
        <path class="cls-1" d="M84.33.28c-.03.28-.54.28-.56,0,.19-.01.38,0,.56,0Z"/>
        <path class="cls-1" d="M89.59,4.23c.3.03,1.06-.54.94.47-.03.24-.74-.16-.94-.09,0-.13,0-.25,0-.38Z"/>
        <path class="cls-1" d="M13.45,11.75c-1.41.18-1.42-1.99-2.57-2.03-.23,0-1.02.73-1.19.06-.08-.3.28-.63.37-.95.18-.62-.27-1.34,1.28-.69.52.22,1.13,1.17,1.83,1.37.36.41.18,1.68.28,2.25Z"/>
        <path class="cls-1" d="M9.5,11.56c-1.24-.18.3.95-.94.75.36-1.29-1.1-1.52-1.13-2.82.38.12,1.63.12,1.8.37.18.26-.1.6-.06.83.05.31.39.51.33.87Z"/>
        <path class="cls-1" d="M9.11,7.63c.08.05.27.86.21.92l-2.63.19c.19-1.74.63-.84,1.25-.78.25.02.8-.58,1.17-.33Z"/>
        <path class="cls-1" d="M10.44,5.17c-.4.41-1.03-.72-1.19-.88-.23-.22-.88-.03-.69-.81.58-.15,2.45,1.11,1.88,1.69Z"/>
        <path class="cls-1" d="M6.68,6.29v.94c-.16.18-1.36-.51-.85-.94h.85Z"/>
        <path class="cls-1" d="M24.73,1.78c.44.33.48.6.75,1.04-.37.41-.36-.19-.42-.23-.42-.29-.9.43-.71-.99.11.05.29.12.38.19Z"/>
        <path class="cls-1" d="M154.27,5.17s.3.87.09.94c-.54-.11-1.16-.36-1.7-.38-.52-.02-2.13.57-1.3-.56.5.11,2.68-.15,2.91,0Z"/>
        <rect class="cls-1" x="160.48" y="5.54" width=".56" height=".37"/>
        <path class="cls-1" d="M171.38,4.79c.13.07-.11.32-.37.18-.13-.07.11-.32.37-.18Z"/>
        <path class="cls-1" d="M101.06,3.85c-.63.21-1.08-.37-1.6-.39-.41-.02-.91.37-1.13.02-.39-.6.43-.81.94-.75.25.03.42.27.62.32.58.15,1.3-.16,1.17.8Z"/>
        <path class="cls-1" d="M91.85,3.85c.8.5.49-.52,1.21-.38,1.89.37-1.16,2.47-1.21.38Z"/>
        <path class="cls-1" d="M93.12,1.84c.11.11.32.61.24.7-.71-.11-1.4-.19-.66-.93.11.13.32.13.42.23Z"/>
        <path class="cls-1" d="M93.92,4.98c.32-.27.57-1.12.94-.1-.38.09-.59.32-.94.47v-.38Z"/>
        <path class="cls-1" d="M90.72,2.16c-.46.05-.99.01-.94-.56.46-.05.99-.01.94.56Z"/>
        <rect class="cls-1" x="94.48" y="2.35" width=".56" height=".56" transform="translate(91.8 97.38) rotate(-89.8)"/>
        <path class="cls-1" d="M105.01,6.29c-.1.1-1.03-.21-.75-.56.38-.18.97.34.75.56Z"/>
        <rect class="cls-1" x="91.66" y="3.1" width=".56" height=".56" transform="translate(88.23 95.31) rotate(-89.8)"/>
        <path class="cls-1" d="M88.84.84c.33.33-.3.96-.56.28-.15-.4.51-.33.56-.28Z"/>
        <path class="cls-1" d="M93.92,4.98v.38c-.13.05-.39.42-.57.09-.08-.42.45-.37.57-.47Z"/>
        <path class="cls-1" d="M95.61,1.78v.37s-.56,0-.56,0c.06-.27.3-.43.56-.37Z"/>
        <circle class="cls-1" cx="101.82" cy="5.73" r=".23"/>
        <path class="cls-1" d="M170.44,17.39c.47.24,3.56-.5,3.57.09,0,.26-3.67,1.04-3.57-.09Z"/>
        <path class="cls-1" d="M17.77,16.82c-.03.18.05.7,0,.75-.31.32-2.41-.65,0-.75Z"/>
        <path class="cls-1" d="M26.24,3.49c.46.02.45-.58.83-.59.26,0,.99.26,1.04.49.14.62-1.98,1.1-1.87.1Z"/>
        <path class="cls-1" d="M25.86,1.41c.06-.14-.11-.29.23-.44.98-.42,1.57-.01,1.08.99-.29.07-.5-.06-.74-.18-.15-.07-.32-.35-.56-.38Z"/>
        <path class="cls-1" d="M26.42,1.78c.11.56-.26.36-.75.38-.11-.36.09-.51.19-.75.25.02.42.3.56.38Z"/>
      </g>
      <path class="cls-1" d="M104.5,53.35c.95.83.17,1.63.07,2.3-.08.5.22,2.03-.5,2.14-.35.06-1.63-1.58-2.05-1.87-1.06-.74-1.51-.45-2.62-.57-.34-.04-.62-.35-.92-.33-.64.05-1.98,1.14-2.15,1.79-.62,2.37,1.92,2.24,3.33,3.35,1.37.18,3.52.54,4.42,1.6.15.18.12.53.37.75.23.21.65.21.97.54.69.73.71,1.89.64,2.83l-.75-.56c-.29.62.41.76.4,1.03-.04.81-.64,1.1-.96,1.56-.18.25-.24.78-.42.94-.12.1-1.12.4-1.43.54-.85.37-1.63.83-2.57,1-1.58.29-2.46-1.28-3.56-1.29-.79,0-.91,1.31-1.97.84-1.21-.54-.87-4.79-.38-5.92.33-.31.94,1.34,1.31.94.19-.2-.5-.82-.37-1.13,1.27-.29,1.25,1.71,1.75,2.38.06.08,1.37,1.4,1.46,1.45.71.48,2.24.6,3.08.47.88-.13,1.97-1.14,2.4-1.93.54-.99.4-1.58-.23-2.48-.13-.19-1.37-1.44-1.51-1.5-.53-.24-1.21-.02-1.77-.11-.29-.05-.52-.31-.94-.38-1.06-.17-1.95.06-3.11-.46-.13-.06-1.97-1.39-2.08-1.5-.69-.67-.68-2.83-.54-3.76.41-2.73,4.99-3.77,7.18-2.88.68.28.83,1.09,1.98,1.04.64-.03.55-1.66,1.5-.84Z"/>
      <path class="cls-1" d="M72.09,52.92c.46.03,2.39.19,2.68.31.3.13.3.48.5.63.46.34,1.05.25,1.4.86.59,1.04-.07,1.54-.17,2.42-.1.82.25,2.88-.18,3.39-.14.16-.58.3-.8.47-.55.42-1.69,1.22-2.39,1.42-.95.26-3.56-.43-4.04.66-.35.8-.15,4.06.46,4.8.38.46,2.04.77,1.15,1.89-.68.86-1.41-.27-1.81-.31-.53-.05-.88.65-1.49.58-.39-.04-.53-.46-.8-.55-.54-.16-.77.36-1.05.32-.05,0-.88-.4-.9-.45-.39-1.41,1.26-.93,1.78-1.78.8-1.29-.31-1.58-.25-1.93.07-.42,1.13-.69,1.12-1.15,0-.24-.41-.55-.41-1.13,0-.61.42-.85.4-1.41-2.44.02-.42-2.63-.44-3.1,0-.14-.3-.33-.31-.56s.33-.47.37-.76c.04-.26.18-1.94.16-2.04-.12-.54-2.03-.66-2.37-.9-.38-.26-.13-1.65-.04-1.65,2.41,0,5.04-.14,7.43,0ZM75.37,55.74c-1.03.22-2.25-1.05-3.12-1.13-.61-.06-.85.32-1.14.34-.24.02-.37-.29-.63-.26-.12.01-.93.38-1.04.47-.46.37-.01.84-.08,1.4-.04.35-.38.67-.37.96,0,.26.32.48.36.76.05.38-.06,1.9,0,1.97.05.05,1.03-.02,1.37.04.54.1,2.35.75,2.67.72.46-.05,1.03-1.03,1.79-.76.17-.52-.31-.85-.38-1.23s.41-.16.4-.55c-.01-.52-.45-.9-.41-1.51.04-.65.56-.66.58-1.22Z"/>
      <path class="cls-1" d="M90.24,56.36c.53.81.32,2.2.47,2.82.05.22.37.35.44.51.13.3.2,2.77.11,3.07-.06.2-.5.1-.67.3-.32.38.42.62.56.95.51,1.12-.35,1.83-.82,2.75-.2.4-.21.95-.42,1.27-.1.15-2.72,1.9-2.94,1.95-.58.13-3.63.12-4.06-.14-.19-.11-.23-.47-.51-.66-1.04-.7-.74-.07-1.68-1.33-1.5-1.99-1.28-3.44-1.32-5.83-.03-1.72.03-3.46.19-5.17l.56.56c-.18-.4-.29-.69-.09-1.12.07-.16,2.2-2.28,2.45-2.45.97-.67,1.29-.41,2.25-.57.29-.05.5-.34.77-.37.16-.02,2.2.8,2.44.94.79.46,1.8,1.77,2.28,2.51ZM84.81,55.41c-1.54.29-3.09,1.88-3.33,3.43-.12.76.08,1.65-.02,2.42-.04.29-.37.52-.37.76s.32.47.37.76c.23,1.58-.06,2.23.87,3.83.1.17.94,1.38,1.02,1.43.18.11,1.9.51,2.16.49.55-.05,2.46-1.51,2.73-1.98.33-.57.66-2.04.97-2.79.12-.28.51-.46.52-.79.01-.36-.47-.85-.55-1.33-.11-.7.11-1.52-.05-2.21-.11-.49-.57-.69-.67-1.02-.13-.44.07-1-.24-1.45-.26-.37-.77-.32-1.11-.59-.86-.68-.56-1.3-2.31-.97Z"/>
      <path class="cls-1" d="M116.68,55.36c-.2.2.13,4.68,0,5.54-.12.75-.82.93-.51,2.03.08.29.44.51.47.82.07.62.13,2.59.05,3.18-.06.5-.6,1.33-.57,1.5.11.55,1.19.02,1.7.17.56.16,1.32.93.63,1.41-.55.39-.96-.03-1.49,0-.46.03-.72.42-1.31.42-.49,0-.82-.33-.94-.33-.13,0-.38.31-.74.32-.58.01-1.98.1-2.42,0-.59-.14-.56-2.34,1.46-2.07.41.05,1.17.76,1.4.06.24-.74-.08-2.45.02-3.36.3-2.62.37-2.77,0-5.44-.22-1.57.61-4-1.8-4.24-1.89-.19-.86,2.38-1.29,3.01-.05.08-1.01.54-1.15.56-1.34.2-.86-1.08-1.05-1.75-.08-.27-.46-.39-.53-.8-.18-1.01.47-2.87,1.6-3.09.58-.11,6.72-.14,7.01.04.09.06-.05.36.13.33.16-.96,1.16.68,1.78.75l.2-1.12c2.73,0,2.95,2.62,1.92,4.64-.42.82-1.51.73-1.71-.08-.11-.42.3-.68.32-.93s-.36-.44-.32-.69c.01-.07.69-.88.07-.88h-2.91Z"/>
    </g>
  </g>
</svg>